<svg width="60" height="60" xmlns="http://www.w3.org/2000/svg">
 <style type="text/css">.st0{fill:#ffc151;}</style>

 <g>
  <title>background</title>
  <rect fill="none" id="canvas_background" height="402" width="582" y="-1" x="-1"/>
 </g>
 <g>
  <title>Layer 1</title>
  <path id="svg_1" d="m40.7,19.1c-1.6,-1.3 -3.8,-1.9 -7.1,-1.9c0,0 0,0 -0.1,0l0,-6.3l-3.4,0l0,6.3c-1,0 -2.1,0 -3.2,0.1l0,-6.4l-3.4,0l0,6.4c-1.2,0.1 -7,0 -7,0l0,3.7l4.4,0.1l0.1,18.6l-4.4,-0.1l0,3.8c0,0 5.7,0.1 7.1,0.2l0,6.4l3.4,0l0,-6.3c1.1,0 2.3,0 3.3,0.1l0,6.3l3.4,0l0,-6.2c3.8,-0.1 6.4,-0.9 8.1,-2.4c1.3,-1.3 2.2,-3 2.2,-5.3c0,-3.9 -2.9,-5.9 -5.4,-6.6l0,-0.1c2.7,-1 4.4,-3.2 4.4,-5.8c-0.3,-2 -1.1,-3.6 -2.4,-4.6zm-5.7,16.7c0,2.3 -1.9,3.9 -5,4l-2.7,0l0,-7.6c0.5,-0.1 1.3,-0.2 2.7,-0.2c2.9,0 5,1 5,3.8zm0.2,-11c0,1.3 -0.6,2.4 -1.7,3.1c-0.8,0.6 -2,0.9 -3.4,0.9l0,0l-2.7,0l0,-7.6c0.5,-0.1 1.3,-0.2 2.7,-0.2c0,0 0,0 0,0c1.4,0 2.5,0.2 3.4,0.7c1.1,0.6 1.7,1.6 1.7,3.1z" class="st0"/>
 </g>
</svg>