<svg xmlns="http://www.w3.org/2000/svg" id="Layer_1" x="0" y="0" version="1.1" viewBox="0 0 60 60" xml:space="preserve"><style>.st1{fill:#ffd792}</style><path id="canvas_background" fill="none" d="M-1-1h582v402H-1z"/><g><g id="svg_1"><path id="svg_2" d="M34.2 22.2c-1.1-.5-2.4-.5-4.3 0l-1-3.6-1.9.5 1 3.6c-.6.2-1.2.3-1.8.5l-1-3.6-1.9.5 1 3.6c-.7.2-4 1-4 1l.5 2.1 2.5-.6L26 36.8l-2.5.6.5 2.2s3.3-.8 4-.9l1 3.7 1.9-.5-1-3.6c.6-.1 1.3-.3 1.9-.5l.9 3.6 1.9-.5-.9-3.5c2.1-.6 3.5-1.5 4.2-2.6.6-.9.8-2 .5-3.3-.6-2.2-2.5-2.9-4-2.9 1.4-1 2-2.5 1.6-3.9-.2-1.4-.9-2.1-1.8-2.5zm-.8 10.3c.3 1.3-.5 2.5-2.3 3l-1.5.4-1.1-4.3c.3-.1.7-.3 1.5-.5 1.7-.5 3-.1 3.4 1.4zm-1.5-6.3c.2.7 0 1.4-.5 2-.4.4-1 .8-1.8 1l-1.5.4-1.1-4.3c.3-.1.7-.3 1.5-.5s1.5-.2 2-.1c.7.2 1.2.7 1.4 1.5z" class="st1"/></g><g id="svg_3"><path id="svg_4" d="M30 53C17.3 53 7 42.7 7 30S17.3 7 30 7s23 10.3 23 23-10.3 23-23 23zm0-44C18.4 9 9 18.4 9 30s9.4 21 21 21 21-9.4 21-21S41.6 9 30 9z" class="st1"/></g></g></svg>