<svg xmlns="http://www.w3.org/2000/svg" width="60" height="60"><path fill="none" d="M-1-1h582v402H-1z"/><g><path fill="#1773b9" d="M7.6 42.9c.1-.4.2-.8.4-1.1.6-1.9 1.2-3.7 1.8-5.6 0-.2.1-.2.3-.2H38c.2 0 .3-.1.4-.3 1.4-4.5 2.9-8.9 4.3-13.4 0-.1 0-.1.1-.2H14.4c0-.1 0-.2.1-.3.7-2.2 1.4-4.3 2.1-6.5.1-.2.1-.3.3-.3h31.4c1.7 0 3.1.7 4 2.2.4.7.6 1.4.7 2.2.2 1.3-.2 2.4-.5 3.6-1.4 4.2-2.7 8.4-4.1 12.6-.4 1.4-1.2 2.6-2.2 3.6-1.4 1.5-3 2.6-4.9 3.3-.8.3-1.5.5-2.3.5H7.9c-.1-.1-.2-.1-.3-.1zm17.7-17.1H9.1c-.4 0-.4-.1-.5.4-.7 1.9-1.3 3.8-2 5.8-.1.3-.1.3.2.3h16.3c.2 0 .3-.1.4-.3.7-2 1.3-3.9 2-5.9 0-.1 0-.2.1-.3h-.3z"/></g></svg>