<svg width="60" height="60" xmlns="http://www.w3.org/2000/svg">
 <style type="text/css">.st0{fill:#000000;}</style>

 <g>
  <title>background</title>
  <rect fill="none" id="canvas_background" height="402" width="582" y="-1" x="-1"/>
 </g>
 <g>
  <title>Layer 1</title>
  <path id="svg_1" d="m30.4,55l16.6,-10.2l-5.4,-25.2l-11.1,-15.5l-1,0l-11,15.5l-5.4,25.2l16.6,10.2l0.7,0zm-0.4,-38.5l0,0l7.3,12.8l-4.6,14.7l-2.3,0l-0.7,0l-2.3,0l-4.6,-14.7l7.2,-12.8zm3.5,28.6l11.2,0l-13.8,8.5l2.6,-8.5zm-3.4,7.5l-2.4,-7.5l2,0l0.7,0l2,0l-2.3,7.5zm3.7,-8.5l4.2,-13.5l7.6,13.5l-11.8,0zm-7.5,0l-11.8,0l7.6,-13.5l4.2,13.5zm0.3,1l2.7,8.5l-13.8,-8.5l11.1,0zm18.6,-3.9l-6.7,-12l2.5,-8l4.2,20zm-4.7,-21.4l-0.1,0l-2.7,8.2l-7.1,-12.6l0,0l0,-9.5l9.9,13.9zm-11,-4.4l0,0l-7.1,12.6l-2.6,-8.3l-0.1,0l9.9,-13.9l0,9.6l-0.1,0zm-10.3,5.9l2.5,8l-6.7,12l4.2,-20z" class="st0"/>
 </g>
</svg>