<?xml version="1.0" encoding="UTF-8"?>
<svg width="728px" height="392px" viewBox="0 0 728 392" version="1.1" xmlns="http://www.w3.org/2000/svg" xmlns:xlink="http://www.w3.org/1999/xlink">
    <title>Expansion-big_FFF1E0</title>
    <g id="Expansion-big_FFF1E0" stroke="none" stroke-width="1" fill="none" fill-rule="evenodd">
        <g id="Group-10" transform="translate(124.000000, 141.000000)" fill-rule="nonzero">
            <g id="expansion-logo-vector">
                <path d="M216.32,73.0659341 C213.68,74.5831502 211.76,75.3018315 209.44,75.3018315 C205.28,75.3018315 202.24,72.2673993 202.24,67.0769231 C202.24,60.6087912 205.76,57.0952381 216.32,56.3765568 C216.32,56.3765568 216.32,73.0659341 216.32,73.0659341 Z M222.08,80.7318681 L236.88,80.7318681 L236.88,79.0549451 L230.88,76.2600733 L230.88,41.603663 C230.88,30.9831502 224.8,25.4732601 214.64,25.4732601 C203.84,25.4732601 188.64,30.7435897 188.64,40.6454212 C188.64,44.7978022 191.36,48.3912088 196.08,48.3912088 C200.32,48.3912088 203.28,44.7179487 203.28,40.8849817 C203.28,37.9304029 201.68,34.2571429 198.48,31.7018315 C200.32,31.3824176 202.24,31.2227106 204.08,31.2227106 C213.6,31.2227106 216.24,35.9340659 216.24,42.6417582 L216.24,53.5018315 C198.72,53.581685 186.8,59.410989 186.8,70.1912088 C186.8,77.4578755 192.08,82.5684982 200.64,82.5684982 C207.04,82.5684982 212.08,79.5340659 216.24,75.1421245 L216.8,75.381685 C216.96,78.4161172 219.2,80.7318681 222.08,80.7318681 Z M393.68,0.0798534799 L409.92,0.0798534799 L398,18.7655678 L388.72,18.7655678 C388.72,18.7655678 393.68,0.0798534799 393.68,0.0798534799 Z M344.72,9.42271062 C344.72,4.23223443 348.8,0.0798534799 353.84,0.0798534799 C358.88,0.0798534799 362.96,4.23223443 362.96,9.42271062 C362.96,14.6131868 358.88,18.7655678 353.84,18.7655678 C348.8,18.7655678 344.72,14.6131868 344.72,9.42271062 Z M473.92,41.76337 C473.92,33.3787546 470.16,25.4732601 459.84,25.4732601 C453.68,25.4732601 447.04,28.6673993 440.24,35.2153846 L439.76,34.9758242 L439.76,27.2300366 L419.52,27.2300366 L419.52,28.8271062 L426.08,32.1010989 L426.08,76.2600733 L420,79.0549451 L420,80.7318681 L445.6,80.7318681 L445.6,79.0549451 L440.72,76.2600733 L440.72,37.2915751 C444.64,35.614652 447.12,35.0556777 451.12,35.0556777 C457.68,35.0556777 459.28,39.8468864 459.28,46.4747253 L459.28,76.2600733 L453.6,79.0549451 L453.6,80.7318681 L480,80.7318681 L480,79.0549451 L473.92,76.2600733 L473.92,41.76337 L473.92,41.76337 Z M347.2,32.1809524 L347.2,76.2600733 L340.8,79.0549451 L340.8,80.7318681 L367.92,80.7318681 L367.92,79.0549451 L361.84,76.2600733 L361.84,27.3098901 L340.56,27.3098901 L340.56,28.9868132 L347.2,32.1809524 L347.2,32.1809524 Z M170.88,55.4981685 C170.88,72.1076923 165.52,78.2564103 159.68,78.2564103 C154.64,78.2564103 151.68,76.1802198 148.88,71.7882784 L148.88,34.8959707 C151.76,34.1772894 154.24,33.8578755 156.64,33.8578755 C165.84,33.778022 170.88,40.4058608 170.88,55.4981685 Z M134.24,103.889377 L128.24,106.684249 L128.24,108.201465 L156.08,108.201465 L156.08,106.684249 L148.88,103.889377 L148.88,81.2908425 C151.2,81.7699634 153.6,82.0095238 156,82.0095238 C175.36,82.0095238 186.56,67.7157509 186.56,51.8249084 C186.56,35.5347985 177.36,24.8344322 166.32,24.8344322 C159.6,24.8344322 152.8,28.8271062 148.56,32.9794872 L148.08,32.7399267 L148.08,27.3098901 L127.68,27.3098901 L127.68,28.9868132 L134.16,32.1809524 C134.24,32.1010989 134.24,103.889377 134.24,103.889377 Z M405.76,53.3421245 C405.76,68.0351648 402.24,78.0967033 394,78.0967033 C385.76,78.0967033 382.24,68.1150183 382.24,53.3421245 C382.24,38.6490842 385.76,28.5875458 394,28.5875458 C402.16,28.6673993 405.76,38.6490842 405.76,53.3421245 Z M421.44,53.3421245 C421.44,38.2498168 413.12,24.8344322 394.64,24.8344322 C376.32,24.8344322 366.48,39.2080586 366.48,53.3421245 C366.48,68.5142857 374.8,81.9299979 393.28,81.9299979 C411.68,82.0095238 421.44,67.4761905 421.44,53.3421245 Z M341.12,64.1223443 C341.12,53.9010989 333.12,50.2278388 325.68,47.1934066 C319.12,44.4783883 312.96,42.1626374 312.96,36.0937729 C312.96,32.5802198 315.44,28.9069597 319.92,28.9069597 C325.44,28.9069597 328.4,32.5802198 335.28,42.0827839 L337.6,41.603663 L337.28,26.9904762 C334.08,25.792674 327.44,24.8344322 322.96,24.8344322 C310.56,24.8344322 301.68,32.5003663 301.68,41.76337 C301.68,52.1443223 309.68,55.8175824 317.12,58.9318681 C323.68,61.6468864 329.68,63.9626374 329.68,69.8717949 C329.68,74.5831502 326.96,77.8571429 322.32,77.8571429 C316.4,77.8571429 312.16,73.9443223 303.76,62.2857143 L301.44,62.5252747 L301.76,78.6556777 C307.04,80.8117216 312.88,81.8498168 319.76,81.8498168 C330.8,82.0095238 341.12,75.0622711 341.12,64.1223443 Z M293.36,41.76337 C293.36,33.3787546 289.6,25.4732601 279.28,25.4732601 C273.12,25.4732601 266.48,28.6673993 259.68,35.2153846 L259.2,34.9758242 L259.2,27.2300366 L238.96,27.2300366 L238.96,28.8271062 L245.52,32.1010989 L245.52,76.2600733 L239.52,79.0549451 L239.52,80.7318681 L265.12,80.7318681 L265.12,79.0549451 L260.24,76.2600733 L260.24,37.2915751 C264.16,35.614652 266.64,35.0556777 270.64,35.0556777 C277.2,35.0556777 278.8,39.8468864 278.8,46.4747253 L278.8,76.2600733 L273.92,79.0549451 L273.92,80.7318681 L299.52,80.7318681 L299.52,79.0549451 L293.52,76.2600733 L293.36,41.76337 C293.36,41.76337 293.36,41.76337 293.36,41.76337 Z M101.12,46.8739927 L92.16,31.3025641 L97.28,28.9868132 L97.28,27.3098901 L69.52,27.3098901 L69.52,28.9868132 L74.96,31.3025641 L91.76,56.8556777 L76.16,75.9406593 L70.08,79.1347985 L70.08,80.8117216 L88.88,80.8117216 L88.88,79.1347985 L84.24,76.5794872 L94.4,61.1677656 L103.68,76.7391941 L98.24,79.214652 L98.24,80.8915751 L126.32,80.8915751 L126.32,79.214652 L120.88,76.7391941 L103.44,51.0263736 L118.4,32.1809524 L124.88,28.9868132 L124.88,27.3098901 L105.68,27.3098901 L105.68,28.9868132 L110.08,31.7018315 C110.4,31.621978 101.12,46.8739927 101.12,46.8739927 Z M65.36,0 L0.24,0 L0.24,2.15604396 L10.16,5.19047619 L10.16,75.5413919 L0.24,78.5758242 L0.24,80.7318681 L67.92,80.7318681 L70.24,54.4600733 L67.92,53.9809524 L57.92,67.1567766 C53.84,72.5069597 49.76,75.1421245 42.88,75.5413919 L27.76,76.3399267 L27.76,43.1208791 L31.92,43.1208791 C38.96,43.1208791 41.68,45.6761905 44.64,53.5018315 L46.16,57.414652 L48.72,57.414652 L48.72,23.3172161 L46.16,23.3172161 L44.64,27.4695971 C41.84,35.2952381 38.96,37.8505495 31.92,37.8505495 L27.76,37.8505495 L27.76,4.23223443 L38.96,4.71135531 C47.6,5.11062271 50.64,7.34652015 55.12,13.814652 L64.72,27.789011 L67.04,27.1501832 C67.04,27.3098901 65.36,0 65.36,0 Z" id="Shape" stroke="#F8EDDF" stroke-width="8.42928" fill="#F8EDDF"></path>
                <path d="M216,73.8644689 C213.36,75.381685 211.44,76.1003663 209.12,76.1003663 C204.96,76.1003663 201.92,73.0659341 201.92,67.8754579 C201.92,61.407326 205.44,57.8937729 216,57.1750916 C216,57.0952381 216,73.8644689 216,73.8644689 Z M221.84,81.4505495 L236.72,81.4505495 L236.72,79.7736264 L230.72,76.9787546 L230.72,42.3223443 C230.72,31.7018315 224.64,26.1919414 214.48,26.1919414 C203.68,26.1919414 188.48,31.4622711 188.48,41.3641026 C188.48,45.5164835 191.2,49.1098901 195.92,49.1098901 C200.16,49.1098901 203.12,45.43663 203.12,41.603663 C203.12,38.6490842 201.52,34.9758242 198.32,32.4205128 C200.16,32.1010989 202.08,31.9413919 203.92,31.9413919 C213.44,31.9413919 216.08,36.6527473 216.08,43.3604396 L216.08,54.2205128 C198.56,54.3003663 186.64,60.1296703 186.64,70.9897436 C186.64,78.2564103 191.92,83.367033 200.48,83.367033 C206.88,83.367033 211.92,80.3326007 216.08,75.9406593 L216.64,76.1802198 C216.64,79.1347985 218.96,81.4505495 221.84,81.4505495 Z M393.44,0.798534799 L409.68,0.798534799 L397.76,19.4842491 L388.56,19.4842491 C388.48,19.4842491 393.44,0.798534799 393.44,0.798534799 Z M344.48,10.1413919 C344.48,4.95091575 348.56,0.798534799 353.6,0.798534799 C358.64,0.798534799 362.72,4.95091575 362.72,10.1413919 C362.72,15.3318681 358.64,19.4842491 353.6,19.4842491 C348.56,19.4842491 344.48,15.3318681 344.48,10.1413919 Z M473.68,42.4820513 C473.68,34.0974359 469.92,26.1919414 459.6,26.1919414 C453.44,26.1919414 446.8,29.3860806 440,35.9340659 L439.52,35.6945055 L439.52,27.9487179 L419.28,27.9487179 L419.28,29.5457875 L425.84,32.8197802 L425.84,76.9787546 L419.76,79.7736264 L419.76,81.4505495 L445.36,81.4505495 L445.36,79.7736264 L440.48,76.9787546 L440.48,38.0102564 C444.4,36.3333333 446.88,35.774359 450.88,35.774359 C457.44,35.774359 459.04,40.5655678 459.04,47.1934066 L459.04,76.9787546 L453.28,79.7736264 L453.28,81.4505495 L479.68,81.4505495 L479.68,79.7736264 L473.6,76.9787546 L473.68,42.4820513 L473.68,42.4820513 Z M346.96,32.8996337 L346.96,76.9787546 L340.56,79.7736264 L340.56,81.4505495 L367.68,81.4505495 L367.68,79.7736264 L361.6,76.9787546 L361.6,27.9487179 L340.32,27.9487179 L340.32,29.625641 L346.96,32.8996337 L346.96,32.8996337 Z M170.64,56.2168498 C170.64,72.8263736 165.28,78.9750916 159.44,78.9750916 C154.4,78.9750916 151.44,76.8989011 148.64,72.5069597 L148.64,35.614652 C151.52,34.8959707 154,34.5765568 156.4,34.5765568 C165.6,34.5765568 170.64,41.1245421 170.64,56.2168498 Z M134,104.687912 L128,107.482784 L128,109 L155.84,109 L155.84,107.482784 L148.64,104.687912 L148.64,82.0893773 C151.04,82.5684982 153.44,82.8080586 155.76,82.8080586 C175.12,82.8080586 186.32,68.5142857 186.32,52.6234432 C186.32,36.3333333 177.2,25.632967 166.08,25.632967 C159.36,25.632967 152.56,29.625641 148.32,33.778022 L147.84,33.5384615 L147.84,28.0285714 L127.44,28.0285714 L127.44,29.7054945 L133.92,32.8996337 C134,32.8197802 134,104.687912 134,104.687912 Z M405.52,54.0608059 C405.52,68.7538462 402,78.8153846 393.76,78.8153846 C385.52,78.8153846 382,68.8336996 382,54.0608059 C382,39.3677656 385.52,29.3062271 393.76,29.3062271 C401.92,29.3860806 405.52,39.3677656 405.52,54.0608059 Z M421.2,54.0608059 C421.2,38.9684982 412.88,25.5531136 394.4,25.5531136 C376.08,25.5531136 366.24,39.9267399 366.24,54.0608059 C366.24,69.232967 374.56,82.7282051 393.04,82.7282051 C411.44,82.7282051 421.2,68.2747253 421.2,54.0608059 L421.2,54.0608059 Z M340.88,64.8410256 C340.88,54.6197802 332.88,50.9465201 325.44,47.9120879 C318.88,45.1970696 312.72,42.8813187 312.72,36.8124542 C312.72,33.2989011 315.2,29.625641 319.68,29.625641 C325.2,29.625641 328.16,33.2989011 335.04,42.8014652 L337.36,42.3223443 L337.04,27.7091575 C333.84,26.5113553 327.2,25.5531136 322.72,25.5531136 C310.32,25.5531136 301.44,33.2190476 301.44,42.4820513 C301.44,52.8630037 309.44,56.5362637 316.88,59.6505495 C323.44,62.3655678 329.44,64.6813187 329.44,70.5904762 C329.44,75.3018315 326.72,78.5758242 322.08,78.5758242 C316.16,78.5758242 311.92,74.6630037 303.52,63.0043956 L301.2,63.243956 L301.52,79.374359 C306.8,81.5304029 312.64,82.5684982 319.52,82.5684982 C330.56,82.7282051 340.88,75.7809524 340.88,64.8410256 Z M293.04,42.4820513 C293.04,34.0974359 289.28,26.1919414 278.96,26.1919414 C272.8,26.1919414 266.16,29.3860806 259.36,35.9340659 L258.88,35.6945055 L258.88,27.9487179 L238.64,27.9487179 L238.64,29.5457875 L245.2,32.8197802 L245.2,76.9787546 L239.2,79.7736264 L239.2,81.4505495 L264.8,81.4505495 L264.8,79.7736264 L259.92,76.9787546 L259.92,38.0102564 C263.84,36.3333333 266.32,35.774359 270.32,35.774359 C276.88,35.774359 278.48,40.5655678 278.48,47.1934066 L278.48,76.9787546 L273.6,79.7736264 L273.6,81.4505495 L299.2,81.4505495 L299.2,79.7736264 L293.2,76.9787546 L293.04,42.4820513 L293.04,42.4820513 Z M100.88,47.592674 L91.92,32.0212454 L97.04,29.625641 L97.04,27.9487179 L69.28,27.9487179 L69.28,29.625641 L74.72,32.0212454 L91.52,57.574359 L75.92,76.6593407 L69.84,79.8534799 L69.84,81.5304029 L88.64,81.5304029 L88.64,79.8534799 L84,77.2981685 L94.32,61.8065934 L103.6,77.378022 L98.16,79.8534799 L98.16,81.5304029 L126.24,81.5304029 L126.24,79.8534799 L120.8,77.378022 L103.44,51.6652015 L118.48,32.8197802 L124.96,29.625641 L124.96,27.9487179 L105.76,27.9487179 L105.76,29.625641 L110.16,32.3406593 C110.08,32.3406593 100.88,47.592674 100.88,47.592674 Z M65.12,0.798534799 L-5.68434189e-14,0.798534799 L-5.68434189e-14,2.95457875 L9.92,5.98901099 L9.92,76.3399267 L-5.68434189e-14,79.374359 L-5.68434189e-14,81.5304029 L67.68,81.5304029 L70,55.2586081 L67.68,54.7794872 L57.68,67.9553114 C53.6,73.3054945 49.52,75.9406593 42.64,76.3399267 L27.52,77.1384615 L27.52,43.9194139 L31.68,43.9194139 C38.72,43.9194139 41.44,46.4747253 44.4,54.3003663 L45.92,58.2131868 L48.48,58.2131868 L48.48,24.1157509 L45.92,24.1157509 L44.4,28.2681319 C41.6,36.0937729 38.72,38.6490842 31.68,38.6490842 L27.52,38.6490842 L27.52,5.11062271 L38.72,5.58974359 C47.36,5.98901099 50.4,8.22490842 54.88,14.6930403 L64.48,28.6673993 L66.8,28.0285714 L65.12,0.798534799 Z" id="Shape" fill="#171614"></path>
            </g>
        </g>
    </g>
</svg>