<?xml version="1.0" encoding="UTF-8"?>
<svg width="180px" height="70px" viewBox="0 0 180 70" version="1.1" xmlns="http://www.w3.org/2000/svg" xmlns:xlink="http://www.w3.org/1999/xlink">
    <title>Expansion-small</title>
    <g id="Expansion-small" stroke="none" stroke-width="1" fill="none" fill-rule="evenodd">
        <g id="Group-8" transform="translate(14.000000, 19.000000)" fill-rule="nonzero">
            <g id="expansion-logo-vector">
                <path d="M68.952,23.4615385 C68.1105,23.9487179 67.4985,24.1794872 66.759,24.1794872 C65.433,24.1794872 64.464,23.2051282 64.464,21.5384615 C64.464,19.4615385 65.586,18.3333333 68.952,18.1025641 C68.952,18.1025641 68.952,23.4615385 68.952,23.4615385 Z M70.788,25.9230769 L75.5055,25.9230769 L75.5055,25.3846154 L73.593,24.4871795 L73.593,13.3589744 C73.593,9.94871795 71.655,8.17948718 68.4165,8.17948718 C64.974,8.17948718 60.129,9.87179487 60.129,13.0512821 C60.129,14.3846154 60.996,15.5384615 62.5005,15.5384615 C63.852,15.5384615 64.7955,14.3589744 64.7955,13.1282051 C64.7955,12.1794872 64.2855,11 63.2655,10.1794872 C63.852,10.0769231 64.464,10.025641 65.0505,10.025641 C68.085,10.025641 68.9265,11.5384615 68.9265,13.6923077 L68.9265,17.1794872 C63.342,17.2051282 59.5425,19.0769231 59.5425,22.5384615 C59.5425,24.8717949 61.2255,26.5128205 63.954,26.5128205 C65.994,26.5128205 67.6005,25.5384615 68.9265,24.1282051 L69.105,24.2051282 C69.156,25.1794872 69.87,25.9230769 70.788,25.9230769 Z M125.4855,0.0256410256 L130.662,0.0256410256 L126.8625,6.02564103 L123.9045,6.02564103 C123.9045,6.02564103 125.4855,0.0256410256 125.4855,0.0256410256 Z M109.8795,3.02564103 C109.8795,1.35897436 111.18,0.0256410256 112.7865,0.0256410256 C114.393,0.0256410256 115.6935,1.35897436 115.6935,3.02564103 C115.6935,4.69230769 114.393,6.02564103 112.7865,6.02564103 C111.18,6.02564103 109.8795,4.69230769 109.8795,3.02564103 Z M151.062,13.4102564 C151.062,10.7179487 149.8635,8.17948718 146.574,8.17948718 C144.6105,8.17948718 142.494,9.20512821 140.3265,11.3076923 L140.1735,11.2307692 L140.1735,8.74358974 L133.722,8.74358974 L133.722,9.25641026 L135.813,10.3076923 L135.813,24.4871795 L133.875,25.3846154 L133.875,25.9230769 L142.035,25.9230769 L142.035,25.3846154 L140.4795,24.4871795 L140.4795,11.974359 C141.729,11.4358974 142.5195,11.2564103 143.7945,11.2564103 C145.8855,11.2564103 146.3955,12.7948718 146.3955,14.9230769 L146.3955,24.4871795 L144.585,25.3846154 L144.585,25.9230769 L153,25.9230769 L153,25.3846154 L151.062,24.4871795 L151.062,13.4102564 L151.062,13.4102564 Z M110.67,10.3333333 L110.67,24.4871795 L108.63,25.3846154 L108.63,25.9230769 L117.2745,25.9230769 L117.2745,25.3846154 L115.3365,24.4871795 L115.3365,8.76923077 L108.5535,8.76923077 L108.5535,9.30769231 L110.67,10.3333333 L110.67,10.3333333 Z M54.468,17.8205128 C54.468,23.1538462 52.7595,25.1282051 50.898,25.1282051 C49.2915,25.1282051 48.348,24.4615385 47.4555,23.0512821 L47.4555,11.2051282 C48.3735,10.974359 49.164,10.8717949 49.929,10.8717949 C52.8615,10.8461538 54.468,12.974359 54.468,17.8205128 Z M42.789,33.3589744 L40.8765,34.2564103 L40.8765,34.7435897 L49.7505,34.7435897 L49.7505,34.2564103 L47.4555,33.3589744 L47.4555,26.1025641 C48.195,26.2564103 48.96,26.3333333 49.725,26.3333333 C55.896,26.3333333 59.466,21.7435897 59.466,16.6410256 C59.466,11.4102564 56.5335,7.97435897 53.0145,7.97435897 C50.8725,7.97435897 48.705,9.25641026 47.3535,10.5897436 L47.2005,10.5128205 L47.2005,8.76923077 L40.698,8.76923077 L40.698,9.30769231 L42.7635,10.3333333 C42.789,10.3076923 42.789,33.3589744 42.789,33.3589744 Z M129.336,17.1282051 C129.336,21.8461538 128.214,25.0769231 125.5875,25.0769231 C122.961,25.0769231 121.839,21.8717949 121.839,17.1282051 C121.839,12.4102564 122.961,9.17948718 125.5875,9.17948718 C128.1885,9.20512821 129.336,12.4102564 129.336,17.1282051 Z M134.334,17.1282051 C134.334,12.2820513 131.682,7.97435897 125.7915,7.97435897 C119.952,7.97435897 116.8155,12.5897436 116.8155,17.1282051 C116.8155,22 119.4675,26.3077975 125.358,26.3077975 C131.223,26.3333333 134.334,21.6666667 134.334,17.1282051 Z M108.732,20.5897436 C108.732,17.3076923 106.182,16.1282051 103.8105,15.1538462 C101.7195,14.2820513 99.756,13.5384615 99.756,11.5897436 C99.756,10.4615385 100.5465,9.28205128 101.9745,9.28205128 C103.734,9.28205128 104.6775,10.4615385 106.8705,13.5128205 L107.61,13.3589744 L107.508,8.66666667 C106.488,8.28205128 104.3715,7.97435897 102.9435,7.97435897 C98.991,7.97435897 96.1605,10.4358974 96.1605,13.4102564 C96.1605,16.7435897 98.7105,17.9230769 101.082,18.9230769 C103.173,19.7948718 105.0855,20.5384615 105.0855,22.4358974 C105.0855,23.9487179 104.2185,25 102.7395,25 C100.8525,25 99.501,23.7435897 96.8235,20 L96.084,20.0769231 L96.186,25.2564103 C97.869,25.9487179 99.7305,26.2820513 101.9235,26.2820513 C105.4425,26.3333333 108.732,24.1025641 108.732,20.5897436 Z M93.5085,13.4102564 C93.5085,10.7179487 92.31,8.17948718 89.0205,8.17948718 C87.057,8.17948718 84.9405,9.20512821 82.773,11.3076923 L82.62,11.2307692 L82.62,8.74358974 L76.1685,8.74358974 L76.1685,9.25641026 L78.2595,10.3076923 L78.2595,24.4871795 L76.347,25.3846154 L76.347,25.9230769 L84.507,25.9230769 L84.507,25.3846154 L82.9515,24.4871795 L82.9515,11.974359 C84.201,11.4358974 84.9915,11.2564103 86.2665,11.2564103 C88.3575,11.2564103 88.8675,12.7948718 88.8675,14.9230769 L88.8675,24.4871795 L87.312,25.3846154 L87.312,25.9230769 L95.472,25.9230769 L95.472,25.3846154 L93.5595,24.4871795 L93.5085,13.4102564 C93.5085,13.4102564 93.5085,13.4102564 93.5085,13.4102564 Z M32.232,15.0512821 L29.376,10.0512821 L31.008,9.30769231 L31.008,8.76923077 L22.1595,8.76923077 L22.1595,9.30769231 L23.8935,10.0512821 L29.2485,18.2564103 L24.276,24.3846154 L22.338,25.4102564 L22.338,25.9487179 L28.3305,25.9487179 L28.3305,25.4102564 L26.8515,24.5897436 L30.09,19.6410256 L33.048,24.6410256 L31.314,25.4358974 L31.314,25.974359 L40.2645,25.974359 L40.2645,25.4358974 L38.5305,24.6410256 L32.9715,16.3846154 L37.74,10.3333333 L39.8055,9.30769231 L39.8055,8.76923077 L33.6855,8.76923077 L33.6855,9.30769231 L35.088,10.1794872 C35.19,10.1538462 32.232,15.0512821 32.232,15.0512821 Z M20.8335,0 L0.0765,0 L0.0765,0.692307692 L3.2385,1.66666667 L3.2385,24.2564103 L0.0765,25.2307692 L0.0765,25.9230769 L21.6495,25.9230769 L22.389,17.4871795 L21.6495,17.3333333 L18.462,21.5641026 C17.1615,23.2820513 15.861,24.1282051 13.668,24.2564103 L8.8485,24.5128205 L8.8485,13.8461538 L10.1745,13.8461538 C12.4185,13.8461538 13.2855,14.6666667 14.229,17.1794872 L14.7135,18.4358974 L15.5295,18.4358974 L15.5295,7.48717949 L14.7135,7.48717949 L14.229,8.82051282 C13.3365,11.3333333 12.4185,12.1538462 10.1745,12.1538462 L8.8485,12.1538462 L8.8485,1.35897436 L12.4185,1.51282051 C15.1725,1.64102564 16.1415,2.35897436 17.5695,4.43589744 L20.6295,8.92307692 L21.369,8.71794872 C21.369,8.76923077 20.8335,0 20.8335,0 Z" id="Shape" stroke="#F8EDDF" stroke-width="2.686833" fill="#F8EDDF"></path>
                <path d="M68.85,23.7179487 C68.0085,24.2051282 67.3965,24.4358974 66.657,24.4358974 C65.331,24.4358974 64.362,23.4615385 64.362,21.7948718 C64.362,19.7179487 65.484,18.5897436 68.85,18.3589744 C68.85,18.3333333 68.85,23.7179487 68.85,23.7179487 Z M70.7115,26.1538462 L75.4545,26.1538462 L75.4545,25.6153846 L73.542,24.7179487 L73.542,13.5897436 C73.542,10.1794872 71.604,8.41025641 68.3655,8.41025641 C64.923,8.41025641 60.078,10.1025641 60.078,13.2820513 C60.078,14.6153846 60.945,15.7692308 62.4495,15.7692308 C63.801,15.7692308 64.7445,14.5897436 64.7445,13.3589744 C64.7445,12.4102564 64.2345,11.2307692 63.2145,10.4102564 C63.801,10.3076923 64.413,10.2564103 64.9995,10.2564103 C68.034,10.2564103 68.8755,11.7692308 68.8755,13.9230769 L68.8755,17.4102564 C63.291,17.4358974 59.4915,19.3076923 59.4915,22.7948718 C59.4915,25.1282051 61.1745,26.7692308 63.903,26.7692308 C65.943,26.7692308 67.5495,25.7948718 68.8755,24.3846154 L69.054,24.4615385 C69.054,25.4102564 69.7935,26.1538462 70.7115,26.1538462 Z M125.409,0.256410256 L130.5855,0.256410256 L126.786,6.25641026 L123.8535,6.25641026 C123.828,6.25641026 125.409,0.256410256 125.409,0.256410256 Z M109.803,3.25641026 C109.803,1.58974359 111.1035,0.256410256 112.71,0.256410256 C114.3165,0.256410256 115.617,1.58974359 115.617,3.25641026 C115.617,4.92307692 114.3165,6.25641026 112.71,6.25641026 C111.1035,6.25641026 109.803,4.92307692 109.803,3.25641026 Z M150.9855,13.6410256 C150.9855,10.9487179 149.787,8.41025641 146.4975,8.41025641 C144.534,8.41025641 142.4175,9.43589744 140.25,11.5384615 L140.097,11.4615385 L140.097,8.97435897 L133.6455,8.97435897 L133.6455,9.48717949 L135.7365,10.5384615 L135.7365,24.7179487 L133.7985,25.6153846 L133.7985,26.1538462 L141.9585,26.1538462 L141.9585,25.6153846 L140.403,24.7179487 L140.403,12.2051282 C141.6525,11.6666667 142.443,11.4871795 143.718,11.4871795 C145.809,11.4871795 146.319,13.025641 146.319,15.1538462 L146.319,24.7179487 L144.483,25.6153846 L144.483,26.1538462 L152.898,26.1538462 L152.898,25.6153846 L150.96,24.7179487 L150.9855,13.6410256 L150.9855,13.6410256 Z M110.5935,10.5641026 L110.5935,24.7179487 L108.5535,25.6153846 L108.5535,26.1538462 L117.198,26.1538462 L117.198,25.6153846 L115.26,24.7179487 L115.26,8.97435897 L108.477,8.97435897 L108.477,9.51282051 L110.5935,10.5641026 L110.5935,10.5641026 Z M54.3915,18.0512821 C54.3915,23.3846154 52.683,25.3589744 50.8215,25.3589744 C49.215,25.3589744 48.2715,24.6923077 47.379,23.2820513 L47.379,11.4358974 C48.297,11.2051282 49.0875,11.1025641 49.8525,11.1025641 C52.785,11.1025641 54.3915,13.2051282 54.3915,18.0512821 Z M42.7125,33.6153846 L40.8,34.5128205 L40.8,35 L49.674,35 L49.674,34.5128205 L47.379,33.6153846 L47.379,26.3589744 C48.144,26.5128205 48.909,26.5897436 49.6485,26.5897436 C55.8195,26.5897436 59.3895,22 59.3895,16.8974359 C59.3895,11.6666667 56.4825,8.23076923 52.938,8.23076923 C50.796,8.23076923 48.6285,9.51282051 47.277,10.8461538 L47.124,10.7692308 L47.124,9 L40.6215,9 L40.6215,9.53846154 L42.687,10.5641026 C42.7125,10.5384615 42.7125,33.6153846 42.7125,33.6153846 Z M129.2595,17.3589744 C129.2595,22.0769231 128.1375,25.3076923 125.511,25.3076923 C122.8845,25.3076923 121.7625,22.1025641 121.7625,17.3589744 C121.7625,12.6410256 122.8845,9.41025641 125.511,9.41025641 C128.112,9.43589744 129.2595,12.6410256 129.2595,17.3589744 Z M134.2575,17.3589744 C134.2575,12.5128205 131.6055,8.20512821 125.715,8.20512821 C119.8755,8.20512821 116.739,12.8205128 116.739,17.3589744 C116.739,22.2307692 119.391,26.5641026 125.2815,26.5641026 C131.1465,26.5641026 134.2575,21.9230769 134.2575,17.3589744 L134.2575,17.3589744 Z M108.6555,20.8205128 C108.6555,17.5384615 106.1055,16.3589744 103.734,15.3846154 C101.643,14.5128205 99.6795,13.7692308 99.6795,11.8205128 C99.6795,10.6923077 100.47,9.51282051 101.898,9.51282051 C103.6575,9.51282051 104.601,10.6923077 106.794,13.7435897 L107.5335,13.5897436 L107.4315,8.8974359 C106.4115,8.51282051 104.295,8.20512821 102.867,8.20512821 C98.9145,8.20512821 96.084,10.6666667 96.084,13.6410256 C96.084,16.974359 98.634,18.1538462 101.0055,19.1538462 C103.0965,20.025641 105.009,20.7692308 105.009,22.6666667 C105.009,24.1794872 104.142,25.2307692 102.663,25.2307692 C100.776,25.2307692 99.4245,23.974359 96.747,20.2307692 L96.0075,20.3076923 L96.1095,25.4871795 C97.7925,26.1794872 99.654,26.5128205 101.847,26.5128205 C105.366,26.5641026 108.6555,24.3333333 108.6555,20.8205128 Z M93.4065,13.6410256 C93.4065,10.9487179 92.208,8.41025641 88.9185,8.41025641 C86.955,8.41025641 84.8385,9.43589744 82.671,11.5384615 L82.518,11.4615385 L82.518,8.97435897 L76.0665,8.97435897 L76.0665,9.48717949 L78.1575,10.5384615 L78.1575,24.7179487 L76.245,25.6153846 L76.245,26.1538462 L84.405,26.1538462 L84.405,25.6153846 L82.8495,24.7179487 L82.8495,12.2051282 C84.099,11.6666667 84.8895,11.4871795 86.1645,11.4871795 C88.2555,11.4871795 88.7655,13.025641 88.7655,15.1538462 L88.7655,24.7179487 L87.21,25.6153846 L87.21,26.1538462 L95.37,26.1538462 L95.37,25.6153846 L93.4575,24.7179487 L93.4065,13.6410256 L93.4065,13.6410256 Z M32.1555,15.2820513 L29.2995,10.2820513 L30.9315,9.51282051 L30.9315,8.97435897 L22.083,8.97435897 L22.083,9.51282051 L23.817,10.2820513 L29.172,18.4871795 L24.1995,24.6153846 L22.2615,25.6410256 L22.2615,26.1794872 L28.254,26.1794872 L28.254,25.6410256 L26.775,24.8205128 L30.0645,19.8461538 L33.0225,24.8461538 L31.2885,25.6410256 L31.2885,26.1794872 L40.239,26.1794872 L40.239,25.6410256 L38.505,24.8461538 L32.9715,16.5897436 L37.7655,10.5384615 L39.831,9.51282051 L39.831,8.97435897 L33.711,8.97435897 L33.711,9.51282051 L35.1135,10.3846154 C35.088,10.3846154 32.1555,15.2820513 32.1555,15.2820513 Z M20.757,0.256410256 L0,0.256410256 L0,0.948717949 L3.162,1.92307692 L3.162,24.5128205 L0,25.4871795 L0,26.1794872 L21.573,26.1794872 L22.3125,17.7435897 L21.573,17.5897436 L18.3855,21.8205128 C17.085,23.5384615 15.7845,24.3846154 13.5915,24.5128205 L8.772,24.7692308 L8.772,14.1025641 L10.098,14.1025641 C12.342,14.1025641 13.209,14.9230769 14.1525,17.4358974 L14.637,18.6923077 L15.453,18.6923077 L15.453,7.74358974 L14.637,7.74358974 L14.1525,9.07692308 C13.26,11.5897436 12.342,12.4102564 10.098,12.4102564 L8.772,12.4102564 L8.772,1.64102564 L12.342,1.79487179 C15.096,1.92307692 16.065,2.64102564 17.493,4.71794872 L20.553,9.20512821 L21.2925,9 L20.757,0.256410256 Z" id="Shape" fill="#171614"></path>
            </g>
        </g>
    </g>
</svg>