<?xml version="1.0" encoding="UTF-8"?>
<svg width="728px" height="392px" viewBox="0 0 728 392" version="1.1" xmlns="http://www.w3.org/2000/svg" xmlns:xlink="http://www.w3.org/1999/xlink">
    <title>financefwd-big_FFDD00</title>
    <g id="financefwd-big_FFDD00" stroke="none" stroke-width="1" fill="none" fill-rule="evenodd">
        <g id="logo-by" transform="translate(158.000000, 130.000000)" fill-rule="nonzero">
            <g id="Group">
                <g>
                    <g>
                        <polygon id="Path" fill="#000000" points="155.063135 63.5930057 138.227068 63.5930057 138.227068 1.13873983 167.984396 1.13873983 167.984396 15.8220681 155.063135 15.8220681 155.063135 24.9239674 167.095759 24.9239674 167.095759 39.0379258 155.063135 39.0379258"></polygon>
                        <rect id="Rectangle" fill="#000000" x="173.51636" y="1.13873983" width="16.8360665" height="62.4542659"></rect>
                        <g transform="translate(196.332713, 0.000000)" fill="#000000">
                            <path d="M0,63.5930057 L0,1.13873983 L16.0675157,1.13873983 L24.5055633,23.0634911 C24.9618904,24.3545975 25.4822633,25.838167 26.0586764,27.5141996 C26.6350896,29.1902321 27.2755486,31.1148628 27.9720478,33.2961109 L29.7092929,38.797347 C29.0928511,33.3763039 28.6205125,28.7411516 28.2922773,24.883871 C27.9720478,21.0265903 27.8039273,17.7948146 27.8039273,15.1725053 L27.8039273,1.13873983 L43.8794487,1.13873983 L43.8794487,63.5930057 L27.8039273,63.5930057 L19.325851,40.6177269 C18.4372141,38.1638227 17.6366403,35.8622852 16.9241296,33.7211336 C16.211619,31.5799819 15.5871714,29.5350618 15.0427813,27.5943925 C15.3950337,31.9889659 15.6512173,35.8221887 15.8113321,39.0860416 C15.9714468,42.3498945 16.0515042,45.2047633 16.0515042,47.6586675 L16.0515042,63.5930057 L0,63.5930057 Z" id="Path"></path>
                            <path d="M74.3252694,42.2777208 L73.2364891,34.9962014 C73.2124719,34.9721435 73.1564317,34.603256 73.0763744,33.9055773 C73.0203342,33.3121495 72.7401334,30.9705155 72.2277661,26.8646367 C72.171726,26.4075369 72.1076801,25.782032 72.0276227,24.9801025 C71.9475653,24.1861923 71.835485,23.1757612 71.7073932,21.9648478 L71.1790145,16.062647 C71.1229743,16.6320169 71.0509227,17.2655412 70.9548538,17.9632198 C70.858785,18.6689177 70.7547104,19.4307507 70.6506358,20.2727766 C70.4584981,21.9488092 70.3304063,23.1035876 70.2503489,23.7531504 C70.1702915,24.4027133 70.1142514,24.7956587 70.0902342,24.9239674 L68.9213964,32.4861622 L67.22418,42.2777208 L74.3252694,42.2777208 L74.3252694,42.2777208 Z M94.9640614,63.5930057 L77.5595875,63.5930057 L76.3106924,55.6619234 L64.966562,55.6619234 L63.5975808,63.5930057 L46.1931069,63.5930057 L61.1718423,1.13873983 L81.7625998,1.13873983 L94.9640614,63.5930057 Z" id="Shape"></path>
                            <path d="M97.2537024,63.5930057 L97.2537024,1.13873983 L113.329224,1.13873983 L121.767271,23.0634911 C122.223599,24.3545975 122.743971,25.838167 123.320385,27.5141996 C123.896798,29.1902321 124.537257,31.1148628 125.233756,33.2961109 L126.971001,38.797347 C126.354559,33.3763039 125.882221,28.7411516 125.553985,24.883871 C125.233756,21.0265903 125.065635,17.7948146 125.065635,15.1725053 L125.065635,1.13873983 L141.141157,1.13873983 L141.141157,63.5930057 L125.073641,63.5930057 L116.595565,40.6177269 C115.706928,38.1638227 114.906354,35.8622852 114.193844,33.7211336 C113.481333,31.5799819 112.856885,29.5350618 112.312495,27.5943925 C112.664748,31.9889659 112.920931,35.8221887 113.081046,39.0860416 C113.241161,42.3498945 113.321218,45.2047633 113.321218,47.6586675 L113.321218,63.5930057 L97.2537024,63.5930057 Z" id="Path"></path>
                            <path d="M181.257909,44.378776 L180.289215,62.4221887 C176.550535,63.9298161 173.196131,64.6836298 170.234008,64.6836298 C163.26101,64.6836298 157.392805,62.1254748 152.629391,57.0011456 C147.297569,51.2593307 144.631659,43.1277661 144.631659,32.6064516 C144.631659,22.7667772 147.137454,14.8677721 152.141041,8.90141694 C157.152632,2.96713898 163.837423,0 172.211425,0 C174.933376,0 177.703361,0.513234851 180.529387,1.53970455 L180.529387,19.3746156 C178.023591,16.8645764 175.453749,15.6135665 172.819861,15.6135665 C169.377394,15.6135665 166.67946,17.0810974 164.742072,20.0241785 C162.804683,22.9913175 161.835989,27.089177 161.835989,32.317757 C161.835989,34.8518541 162.076161,37.1213144 162.564511,39.1100995 C163.044855,41.1069038 163.741355,42.7909557 164.646003,44.1702743 C165.550651,45.5415737 166.655443,46.6001206 167.97639,47.3218571 C169.297337,48.0516129 170.802415,48.4124812 172.499632,48.4124812 C175.405715,48.4285197 178.327809,47.073259 181.257909,44.378776" id="Path"></path>
                        </g>
                        <polygon id="Path" fill="#000000" points="381.569474 63.5930057 381.569474 1.13873983 412.863902 1.13873983 412.863902 15.8220681 398.413546 15.8220681 398.413546 24.9239674 411.374835 24.9239674 411.374835 39.0379258 398.413546 39.0379258 398.413546 48.5889056 412.863902 48.5889056 412.863902 63.5930057"></polygon>
                        <polygon id="Path" fill="#FFDD00" points="0 1.13072053 0 133 131.646352 133 131.646352 1.13072053"></polygon>
                    </g>
                    <polygon id="Path" fill="#00A8C5" points="95.220245 126.400121 69.0895169 126.400121 69.0895169 7.72258065 124.609308 7.72258065 124.609308 33.8815194 95.220245 33.897558"></polygon>
                    <polygon id="Path" fill="#00A8C5" points="101.744921 89.9604462 101.752927 44.162255 125.289796 67.0653603"></polygon>
                    <polygon id="Path" fill="#E61F42" points="33.1757773 126.400121 7.0370435 126.400121 7.0370435 7.72258065 62.5568349 7.72258065 62.5568349 33.897558 33.1757773 33.897558"></polygon>
                    <polygon id="Path" fill="#E61F42" points="39.6924479 89.9684655 39.6924479 44.162255 63.2293169 67.0653603"></polygon>
                </g>
                <polygon id="Path" fill="#000000" points="155.063135 132.991981 138.227068 132.991981 138.227068 70.5377148 167.984396 70.5377148 167.984396 85.2210431 155.063135 85.2210431 155.063135 94.3229424 167.095759 94.3229424 167.095759 108.436901 155.063135 108.436901"></polygon>
                <path d="M228.683899,132.991981 L212.448263,132.991981 L208.573486,111.107326 C207.820947,106.873138 207.252539,103.208321 206.87627,100.104854 C206.684132,98.5651492 206.524017,97.2900814 206.38792,96.2636117 C206.251822,95.237142 206.155753,94.4592704 206.107719,93.9139584 C205.971621,95.020621 205.771478,97.0815797 205.499283,100.104854 C205.363185,101.644558 205.20307,103.256437 205.010933,104.956527 C204.818795,106.656617 204.594634,108.452939 204.322439,110.337474 L201.12815,132.991981 L184.74841,132.991981 L170.858455,70.5377148 L187.494379,70.5377148 L190.240347,87.7310823 C191.289098,94.5795598 192.01762,99.9605065 192.417907,103.873922 L192.986315,109.575641 L193.514693,104.683871 C194.083101,98.966114 194.803617,93.5370516 195.692254,88.3806452 L198.838509,70.5457341 L213.3369,70.5457341 L216.162925,85.5498342 C217.507889,92.5346397 218.676727,100.802532 219.677444,110.345493 C219.973657,106.05517 220.293886,102.254025 220.646139,98.9420561 C220.998391,95.6220681 221.382667,92.6148327 221.814976,89.9203497 L224.881174,70.5457341 L241.316954,70.5457341 L228.683899,132.991981 Z" id="Path" fill="#000000"></path>
                <path d="M260.915,117.899668 C266.94332,117.602954 269.961483,112.398432 269.961483,102.286102 C269.961483,97.2981007 269.192932,93.3606271 267.663837,90.473681 C266.126735,87.5626771 264.053249,86.1031655 261.443378,86.1031655 L260.915,86.1031655 L260.915,117.899668 Z M244.070927,132.991981 L244.070927,70.5377148 L258.609347,70.5377148 C266.927309,70.5377148 273.403951,72.775098 278.031267,77.2498643 C284.115628,83.1039494 287.157808,91.2836298 287.157808,101.804944 C287.157808,112.157853 284.587966,120.15309 279.448283,125.790654 C275.061138,130.594212 268.52045,132.991981 259.826219,132.991981 L244.070927,132.991981 Z" id="Shape" fill="#000000"></path>
            </g>
            <g id="Group" transform="translate(318.324145, 81.187338)" fill="#000000">
                <path d="M0.00800573777,0.304733193 C0.584418857,0.184443774 1.49707296,0.08821224 2.42573854,0.08821224 C3.74668528,0.08821224 4.60329922,0.320771782 5.2357525,0.834006632 C5.76413119,1.22695207 6.0843607,1.83641845 6.0843607,2.6463672 C6.0843607,3.63274043 5.42789021,4.50684353 4.34711561,4.89978897 L4.34711561,4.93186614 C5.32381562,5.17244498 6.46063038,5.98239373 6.46063038,7.50605969 C6.46063038,8.38818209 6.10837792,9.06180283 5.5960107,9.5589991 C4.88350004,10.2165812 3.72266806,10.5213144 2.04946887,10.5213144 C1.13681476,10.5213144 0.440315577,10.4571601 0,10.401025 L0,0.304733193 L0.00800573777,0.304733193 Z M1.32895247,4.50684353 L2.52981313,4.50684353 C3.93081724,4.50684353 4.7474025,3.77708773 4.7474025,2.78269521 C4.7474025,1.57980103 3.83474839,1.10666265 2.49779018,1.10666265 C1.88935411,1.10666265 1.53710165,1.15477841 1.32895247,1.19487489 L1.32895247,4.50684353 Z M1.32895247,9.42267109 C1.58513608,9.47078686 1.96941149,9.48682544 2.44175002,9.48682544 C3.81073118,9.48682544 5.07563775,8.98160989 5.07563775,7.4900211 C5.07563775,6.08664456 3.87477708,5.50925535 2.43374428,5.50925535 L1.33695821,5.50925535 L1.33695821,9.42267109 L1.32895247,9.42267109 Z" id="Shape"></path>
                <path d="M9.90309762,7.2013265 L8.8383345,10.4331022 L7.46935334,10.4331022 L10.9518493,0.168405185 L12.5449911,0.168405185 L16.0434985,10.4331022 L14.6264829,10.4331022 L13.5296968,7.2013265 L9.90309762,7.2013265 Z M13.2655075,6.1668375 L12.2647903,3.20771782 C12.0326239,2.53409708 11.8885206,1.92463069 11.7364116,1.33120289 L11.7043886,1.33120289 C11.5522796,1.94066928 11.3841591,2.56617425 11.1840157,3.19167923 L10.1832984,6.15881821 L13.2655075,6.15881821 L13.2655075,6.1668375 Z" id="Shape"></path>
                <path d="M24.4895518,10.0962918 C24.0012018,10.3368707 23.0325076,10.5854688 21.7836125,10.5854688 C18.8935411,10.5854688 16.7159805,8.75706964 16.7159805,5.38896593 C16.7159805,2.17322882 18.8935411,0 22.071819,0 C23.3527371,0 24.1533108,0.272656014 24.5055633,0.457099789 L24.1853338,1.53970455 C23.6809723,1.29912572 22.9684617,1.11468194 22.1198535,1.11468194 C19.7181321,1.11468194 18.1169846,2.65438649 18.1169846,5.34886946 C18.1169846,7.85890865 19.5580174,9.47880615 22.0558076,9.47880615 C22.8643871,9.47880615 23.6809723,9.31040096 24.2173567,9.05378354 L24.4895518,10.0962918 Z" id="Path"></path>
                <path d="M26.1467396,0.160385891 L27.4676863,0.160385891 L27.4676863,5.10829062 L27.5157207,5.10829062 C27.7879158,4.71534519 28.0601109,4.34645764 28.3243002,4.00964727 L31.4545437,0.152366596 L33.0957199,0.152366596 L29.3890633,4.50684353 L33.3919322,10.4170636 L31.8228076,10.4170636 L28.4443863,5.37292734 L27.4676863,6.50364787 L27.4676863,10.4170636 L26.1467396,10.4170636 L26.1467396,0.160385891 Z" id="Path"></path>
                <polygon id="Path" points="39.7004536 5.61350618 35.7135962 5.61350618 35.7135962 9.31842026 40.1567806 9.31842026 40.1567806 10.4331022 34.3926495 10.4331022 34.3926495 0.168405185 39.9246143 0.168405185 39.9246143 1.28308713 35.7135962 1.28308713 35.7135962 4.53090142 39.7004536 4.53090142 39.7004536 5.61350618"></polygon>
                <path d="M41.8700085,0.304733193 C42.678588,0.184443774 43.6312708,0.08821224 44.6800225,0.08821224 C46.5773823,0.08821224 47.9383578,0.52927344 48.8350004,1.37129937 C49.7476545,2.205306 50.2760332,3.40018089 50.2760332,5.06017486 C50.2760332,6.73620742 49.7556602,8.10750678 48.8029774,9.05378354 C47.8422889,10.0160989 46.2651586,10.5293337 44.2717299,10.5293337 C43.3270528,10.5293337 42.5344848,10.481218 41.8700085,10.4090443 L41.8700085,0.304733193 Z M43.198961,9.38257462 C43.535202,9.44672897 44.023552,9.45474827 44.5359192,9.45474827 C47.3619446,9.45474827 48.8990463,7.86692795 48.8990463,5.10027133 C48.9150578,2.67844438 47.5460766,1.13873983 44.7440684,1.13873983 C44.0635807,1.13873983 43.5432077,1.20289418 43.1909553,1.27506783 L43.1909553,9.38257462 L43.198961,9.38257462 Z" id="Shape"></path>
                <path d="M55.2235791,0.304733193 C55.7999922,0.184443774 56.7126464,0.08821224 57.6413119,0.08821224 C58.9622587,0.08821224 59.8188726,0.320771782 60.4513259,0.834006632 C60.9877103,1.22695207 61.2999341,1.83641845 61.2999341,2.6463672 C61.2999341,3.63274043 60.6434636,4.50684353 59.562689,4.89978897 L59.562689,4.93186614 C60.539389,5.17244498 61.6762038,5.98239373 61.6762038,7.50605969 C61.6762038,8.38818209 61.3239513,9.06180283 60.8115841,9.5589991 C60.0990734,10.2165812 58.9382415,10.5213144 57.2650423,10.5213144 C56.3523882,10.5213144 55.655889,10.4571601 55.2155734,10.401025 L55.2155734,0.304733193 L55.2235791,0.304733193 Z M56.5445259,4.50684353 L57.7453865,4.50684353 C59.1463906,4.50684353 59.9629759,3.77708773 59.9629759,2.78269521 C59.9629759,1.57980103 59.0503218,1.10666265 57.7133636,1.10666265 C57.1049275,1.10666265 56.752675,1.15477841 56.5445259,1.19487489 L56.5445259,4.50684353 Z M56.5445259,9.42267109 C56.8007095,9.47078686 57.1849849,9.48682544 57.6573234,9.48682544 C59.0263046,9.48682544 60.2912111,8.98160989 60.2912111,7.4900211 C60.2912111,6.08664456 59.0903505,5.50925535 57.6413119,5.50925535 L56.5445259,5.50925535 L56.5445259,9.42267109 Z" id="Shape"></path>
                <path d="M65.5189579,10.4331022 L65.5189579,6.07862526 L62.2766341,0.168405185 L63.7817128,0.168405185 L65.2307513,2.99921616 C65.6230325,3.77708773 65.9272505,4.4025927 66.24748,5.11630992 L66.279503,5.11630992 C66.5677095,4.44268918 66.919962,3.77708773 67.3122432,2.99921616 L68.7852989,0.168405185 L70.2903776,0.168405185 L66.8559161,6.06258667 L66.8559161,10.4331022 L65.5189579,10.4331022 Z" id="Path"></path>
            </g>
            <g id="Group" transform="translate(293.946674, 98.196262)">
                <g id="Group" transform="translate(83.267679, 0.809949)">
                    <path d="M35.7856478,14.4748267 L35.7856478,1.7642448 C35.7856478,1.7642448 35.7856478,0 34.0243855,0 L1.76126231,0 C1.76126231,0 0,0 0,1.7642448 L0,14.4748267 C0,14.4748267 0,16.2390715 1.76126231,16.2390715 L28.2922773,16.2390715 L28.2922773,21.9568285 L32.6393929,16.2390715 L34.0243855,16.2390715 C34.0243855,16.2390715 35.7856478,16.2390715 35.7856478,14.4748267" id="Path" fill="#020204"></path>
                    <path d="M10.6316198,7.98721737 C10.6316198,8.77310823 10.3514189,9.44672897 9.79101729,10.0080796 C9.23061565,10.5694302 8.55813367,10.8420862 7.77357137,10.8420862 C6.98900907,10.8420862 6.3165271,10.5614109 5.75612546,10.0080796 C5.19572381,9.44672897 4.92352873,8.78112752 4.92352873,7.98721737 C4.92352873,7.2013265 5.20372955,6.52770576 5.75612546,5.96635514 C6.3165271,5.40500452 6.98100333,5.12432921 7.77357137,5.12432921 C8.55813367,5.12432921 9.23061565,5.40500452 9.79101729,5.96635514 C10.3514189,6.52770576 10.6316198,7.2013265 10.6316198,7.98721737 M11.1359812,11.3473018 C12.0646468,10.4170636 12.5369853,9.29436238 12.5369853,7.97919807 C12.5369853,6.67205306 12.0726526,5.54935182 11.1359812,4.61911366 C10.2073157,3.68887549 9.08651237,3.21573711 7.78157711,3.21573711 C6.46863612,3.21573711 5.35583857,3.6808562 4.41916725,4.61911366 C3.49050167,5.54935182 3.02616888,6.67205306 3.02616888,7.97919807 C3.02616888,9.29436238 3.49050167,10.4170636 4.41916725,11.3473018 C5.34783283,12.2775399 6.46863612,12.742659 7.78157711,12.742659 C9.08651237,12.7506783 10.2073157,12.2855592 11.1359812,11.3473018 M21.4793944,12.6704854 L23.4488059,12.6704854 L23.4488059,3.30394935 L18.653369,9.22218872 L13.8579321,3.30394935 L13.8579321,12.6704854 L15.8273436,12.6704854 L15.8273436,8.73301176 L18.653369,12.5181188 L21.4793944,8.73301176 L21.4793944,12.6704854 L21.4793944,12.6704854 Z M28.5324494,7.86692795 L32.6874273,3.30394935 L24.5936264,3.30394935 L24.5936264,5.18046427 L28.4283748,5.18046427 L25.7944871,7.86692795 L30.0295224,12.6624661 L32.7594789,12.6704854 L28.5324494,7.86692795 Z" id="Shape" fill="#FFFFFF"></path>
                </g>
                <g fill="#000000">
                    <polygon id="Path" points="40.9013143 6.66403377 40.9013143 7.29755803 42.526479 7.29755803 42.526479 17.6103708 40.9493487 17.6103708 40.9493487 18.2438951 47.5540823 18.2438951 47.5540823 17.6103708 45.9529348 17.6103708 45.9529348 6.66403377"></polygon>
                    <g>
                        <polygon id="Path" points="67.9126735 0 67.9126735 0.633524269 69.5378383 0.633524269 69.5378383 17.6103708 69.5378383 17.6103708 69.5378383 18.2438951 74.5414244 18.2438951 74.5414244 17.6103708 72.9402768 17.6103708 72.9402768 0"></polygon>
                        <path d="M61.5000775,12.4299065 C58.2257308,12.4299065 56.112216,13.0874887 56.112216,15.5895086 C56.112216,17.8750075 57.8094324,18.4844739 59.5867062,18.4844739 C61.1398193,18.4844739 62.156548,17.8990654 62.6929325,16.7603256 C62.9331046,17.9070847 63.837753,18.4844739 65.4629177,18.4844739 C67.3522718,18.4844739 68.1608514,17.562255 68.2809374,14.8838107 L67.7205358,14.8356949 C67.5524153,16.7843835 67.2321858,17.1693096 66.7518415,17.1693096 C66.2875087,17.1693096 65.9993022,16.8324992 65.9993022,15.8060295 L65.9993022,11.0185107 C65.9993022,7.4900211 64.662344,6.42345493 61.2919284,6.42345493 C58.5219431,6.42345493 56.6566062,7.41784745 56.6566062,9.31842026 C56.6566062,10.3849864 57.1929906,11.0906844 58.3538226,11.0906844 C59.3465341,11.0906844 60.0990734,10.481218 60.0990734,9.46276756 C60.0990734,9.06982213 60.0270218,8.75706964 59.9069357,8.44431715 L59.2504652,8.44431715 C59.2024308,8.27591197 59.1784136,8.10750678 59.1784136,7.95514019 C59.1784136,7.29755803 59.8589013,7.00886343 60.7075095,7.00886343 C62.188571,7.00886343 62.6048693,8.00325595 62.6048693,10.6576424 L62.6048693,12.4299065 L61.5000775,12.4299065 L61.5000775,12.4299065 Z M60.8195898,17.4419656 C60.0190161,17.4419656 59.6587579,16.9527887 59.6587579,15.5173349 C59.6587579,13.8894181 60.2912111,13.0393729 62.036462,13.0393729 L62.5968636,13.0393729 L62.5968636,15.0602352 C62.5968636,16.5598432 61.700221,17.4419656 60.8195898,17.4419656" id="Shape"></path>
                        <g transform="translate(0.000000, 0.858065)">
                            <path d="M42.0941692,1.84443774 C42.0941692,2.71854085 42.5104676,3.71293337 44.0635807,3.71293337 C45.4005389,3.71293337 46.008975,2.91100392 46.008975,1.84443774 C46.008975,0.577389207 45.2564356,0 44.0875979,0 C42.6945995,0 42.0941692,0.874103105 42.0941692,1.84443774" id="Path"></path>
                            <path d="M34.376638,6.6078987 C35.9537683,6.6078987 36.3460495,7.94712089 36.3460495,11.5958999 C36.3460495,15.4130841 35.8817167,16.82448 34.2325347,16.82448 C32.6554044,16.82448 31.8067962,15.3409105 31.8067962,13.9295146 L31.8067962,10.0401568 C31.8067962,7.94712089 33.1197371,6.6078987 34.376638,6.6078987 M31.8067962,5.80596925 L26.80321,5.80596925 L26.80321,6.43949352 L28.4283748,6.43949352 L28.4283748,21.2671691 L26.7071412,21.2671691 L26.7071412,21.9006934 L34.9610568,21.9006934 L34.9610568,21.2671691 L31.8308134,21.2671691 L31.8308134,16.2470907 C32.391215,17.097136 33.2878576,17.6344287 34.9610568,17.6344287 C38.1633519,17.6344287 39.9406257,15.6376244 39.9406257,11.5558034 C39.9406257,7.52209828 38.2434093,5.57340971 35.4494068,5.57340971 C33.552047,5.57340971 32.4872839,6.44751281 31.8067962,7.66644558 L31.8067962,5.80596925 Z" id="Shape"></path>
                            <path d="M20.6147748,11.571842 C17.340428,11.571842 15.2269132,12.2294242 15.2269132,14.7314441 C15.2269132,17.016943 16.9241296,17.6264094 18.7014034,17.6264094 C20.2545166,17.6264094 21.2712453,17.0410009 21.8076297,15.9022611 C22.0478018,17.0490202 22.9524502,17.6264094 24.5776149,17.6264094 C26.4749748,17.6264094 27.2755486,16.7041905 27.3956346,14.0257462 L26.835233,13.9776304 C26.6671125,15.926319 26.346883,16.3112451 25.8665387,16.3112451 C25.4022059,16.3112451 25.1139994,15.9744347 25.1139994,14.947965 L25.1139994,10.1604462 C25.1139994,6.63195659 23.7770412,5.56539041 20.4066256,5.56539041 C17.6366403,5.56539041 15.7713034,6.55978294 15.7713034,8.46035574 C15.7713034,9.52692192 16.3076878,10.2326198 17.4685198,10.2326198 C18.4612313,10.2326198 19.2137706,9.62315345 19.2137706,8.60470304 C19.2137706,8.21175761 19.141719,7.89900513 19.0216329,7.58625264 L18.3651624,7.58625264 C18.317128,7.41784745 18.2931108,7.24944227 18.2931108,7.09707567 C18.2931108,6.43949352 18.9735985,6.15079891 19.8222067,6.15079891 C21.3032682,6.15079891 21.7195666,7.14519144 21.7195666,9.79957793 L21.7195666,11.571842 L20.6147748,11.571842 L20.6147748,11.571842 Z M19.934287,16.5839011 C19.1337133,16.5839011 18.7654493,16.0947241 18.7654493,14.6592704 C18.7654493,13.0313536 19.3979026,12.1813084 21.1431534,12.1813084 L21.7035551,12.1813084 L21.7035551,14.2021706 C21.7035551,15.7017787 20.8069125,16.5839011 19.934287,16.5839011" id="Shape"></path>
                            <path d="M8.32596728,0.850045222 C10.7036714,0.850045222 12.2087501,2.5020199 13.1534272,5.51727465 L13.6898116,5.51727465 L13.4976739,0.360868254 L13.1374157,0.360868254 C13.0173296,0.673620742 12.9212608,0.850045222 12.5529968,0.850045222 C11.752423,0.850045222 10.3674304,0.0962315345 8.13382957,0.0962315345 C3.42645576,0.0962315345 0,3.15960205 0,8.97359059 C0,14.9800422 3.10622625,17.6264094 8.06177793,17.6264094 C10.4394821,17.6264094 11.968578,16.8725957 12.7451345,16.8725957 C13.0813755,16.8725957 13.2334845,17.0410009 13.3535706,17.3617727 L13.7138288,17.3617727 L13.8819493,12.061019 L13.3695821,12.061019 C12.3768706,15.1725053 10.7517058,16.8725957 8.43804761,16.8725957 C5.35583857,16.8725957 3.85075987,14.0979198 3.85075987,8.821224 C3.86677134,2.9430811 5.44390168,0.850045222 8.32596728,0.850045222" id="Path"></path>
                            <path d="M52.661743,14.4186916 L52.661743,6.43949352 L55.9120726,6.43949352 L55.9120726,5.80596925 L52.661743,5.80596925 L52.661743,1.79632198 L49.2112701,2.67042508 L49.2112701,5.80596925 L47.6341397,5.80596925 L47.6341397,6.43949352 L49.2112701,6.43949352 L49.2112701,14.5790775 C49.2112701,15.2446789 49.3553733,15.8862225 49.3553733,15.8862225 C49.5955455,17.0249623 50.5001938,17.6103708 52.1253586,17.6103708 C54.0147127,17.6103708 54.8232922,16.6881519 54.9433783,14.0097076 L54.3829767,13.9615918 C54.2148562,15.9102804 53.8946267,16.2952065 53.4142824,16.2952065 C52.9499496,16.2952065 52.661743,15.9583961 52.661743,14.9319264 L52.661743,14.4186916 L52.661743,14.4186916 Z" id="Path"></path>
                        </g>
                    </g>
                </g>
            </g>
        </g>
    </g>
</svg>