<?xml version="1.0" encoding="UTF-8"?>
<svg width="180px" height="70px" viewBox="0 0 180 70" version="1.1" xmlns="http://www.w3.org/2000/svg" xmlns:xlink="http://www.w3.org/1999/xlink">
    <title>financefwd-small</title>
    <g id="financefwd-small" stroke="none" stroke-width="1" fill="none" fill-rule="evenodd">
        <g id="Group-5" transform="translate(26.000000, 15.000000)" fill-rule="nonzero">
            <g id="logo-by">
                <g id="Group">
                    <g>
                        <g>
                            <polygon id="Path" fill="#000000" points="48.4337637 19.6038589 43.1750407 19.6038589 43.1750407 0.351040096 52.4697023 0.351040096 52.4697023 4.87747965 48.4337637 4.87747965 48.4337637 7.68332831 52.1921377 7.68332831 52.1921377 12.0342478 48.4337637 12.0342478"></polygon>
                            <rect id="Rectangle" fill="#000000" x="54.1976041" y="0.351040096" width="5.25872296" height="19.2528188"></rect>
                            <g transform="translate(61.324261, 0.000000)" fill="#000000">
                                <path d="M0,19.6038589 L0,0.351040096 L5.01866713,0.351040096 L7.65428007,7.10979801 C7.79681321,7.50780826 7.95935101,7.96514923 8.13939288,8.48182092 C8.31943475,8.99849261 8.51948127,9.59179982 8.73703187,10.2642147 L9.27965806,11.9600844 C9.08711328,10.2889358 8.93957897,8.86005427 8.83705513,7.67096774 C8.73703187,6.48188122 8.68451966,5.48561954 8.68451966,4.67723847 L8.68451966,0.351040096 L13.7056874,0.351040096 L13.7056874,19.6038589 L8.68451966,19.6038589 L6.03640381,12.5212541 C5.75883926,11.7647875 5.50878111,11.0552909 5.28622936,10.3952367 C5.0636776,9.73518239 4.86863224,9.10479349 4.6985927,8.50654206 C4.80861828,9.86126017 4.88863689,11.0429304 4.93864852,12.0490805 C4.98866015,13.0552306 5.01366597,13.935303 5.01366597,14.6917697 L5.01366597,19.6038589 L0,19.6038589 Z" id="Path"></path>
                                <path d="M23.2153989,13.0329816 L22.8753198,10.7883027 C22.8678181,10.7808863 22.850314,10.6671691 22.8253082,10.4520953 C22.8078041,10.2691589 22.7202838,9.54730178 22.5602466,8.28157974 C22.5427425,8.14066928 22.5227378,7.94784444 22.497732,7.7006331 C22.4727262,7.45589388 22.4377181,7.1444076 22.3977088,6.77111848 L22.2326704,4.95164305 C22.2151663,5.1271631 22.1926611,5.32246005 22.1626541,5.53753392 C22.1326471,5.75507989 22.1001396,5.98993066 22.067632,6.24950256 C22.0076181,6.76617425 21.9676087,7.12215858 21.9426029,7.32239976 C21.9175971,7.52264094 21.900093,7.6437745 21.8925913,7.68332831 L21.5275064,10.0145312 L20.9973831,13.0329816 L23.2153989,13.0329816 L23.2153989,13.0329816 Z M29.6618981,19.6038589 L24.2256339,19.6038589 L23.8355431,17.1589388 L20.2922191,17.1589388 L19.8646197,19.6038589 L14.4283554,19.6038589 L19.1069435,0.351040096 L25.5384392,0.351040096 L29.6618981,19.6038589 Z" id="Shape"></path>
                                <path d="M30.3770644,19.6038589 L30.3770644,0.351040096 L35.3982321,0.351040096 L38.0338451,7.10979801 C38.1763782,7.50780826 38.338916,7.96514923 38.5189579,8.48182092 C38.6989998,8.99849261 38.8990463,9.59179982 39.1165969,10.2642147 L39.6592231,11.9600844 C39.4666783,10.2889358 39.319144,8.86005427 39.2166201,7.67096774 C39.1165969,6.48188122 39.0640847,5.48561954 39.0640847,4.67723847 L39.0640847,0.351040096 L44.0852524,0.351040096 L44.0852524,19.6038589 L39.0665853,19.6038589 L36.4184694,12.5212541 C36.1409049,11.7647875 35.8908467,11.0552909 35.668295,10.3952367 C35.4457432,9.73518239 35.2506978,9.10479349 35.0806583,8.50654206 C35.1906839,9.86126017 35.2707025,11.0429304 35.3207141,12.0490805 C35.3707258,13.0552306 35.3957316,13.935303 35.3957316,14.6917697 L35.3957316,19.6038589 L30.3770644,19.6038589 Z" id="Path"></path>
                                <path d="M56.6156664,13.6806753 L56.3130961,19.2429304 C55.1453245,19.7076877 54.0975808,19.9400663 53.1723657,19.9400663 C50.9943592,19.9400663 49.1614329,19.1514622 47.6735869,17.5717817 C46.0081996,15.8017486 45.1755059,13.2950256 45.1755059,10.0516129 C45.1755059,7.01832982 45.958188,4.58329816 47.5210514,2.74404582 C49.0864154,0.914681942 51.174401,-4.39135547e-16 53.7900093,-4.39135547e-16 C54.640207,-4.39135547e-16 55.5054082,0.158215255 56.3881135,0.474645764 L56.3881135,5.97262587 C55.6054315,5.19885439 54.8027448,4.8132047 53.9800535,4.8132047 C52.9048034,4.8132047 52.0621075,5.26560145 51.4569667,6.17286705 C50.851826,7.08754899 50.5492556,8.35079891 50.5492556,9.96261682 C50.5492556,10.7438046 50.6242731,11.4434127 50.7768086,12.0564968 C50.9268435,12.6720531 51.144394,13.1911969 51.4269598,13.6164004 C51.7095255,14.0391317 52.0546057,14.3654507 52.4672017,14.5879409 C52.8797976,14.8129032 53.349907,14.9241483 53.8800302,14.9241483 C54.7877413,14.9290926 55.7004536,14.5113054 56.6156664,13.6806753" id="Path"></path>
                            </g>
                            <polygon id="Path" fill="#000000" points="119.182717 19.6038589 119.182717 0.351040096 128.95749 0.351040096 128.95749 4.87747965 124.44394 4.87747965 124.44394 7.68332831 128.492382 7.68332831 128.492382 12.0342478 124.44394 12.0342478 124.44394 14.9785348 128.95749 14.9785348 128.95749 19.6038589"></polygon>
                            <polygon id="Path" fill="#FFDD00" points="0 0.348567983 0 41 41.1195627 41 41.1195627 0.348567983"></polygon>
                        </g>
                        <polygon id="Path" fill="#00A8C5" points="29.7419167 38.9654507 21.5800186 38.9654507 21.5800186 2.38064516 38.9215515 2.38064516 38.9215515 10.4446789 29.7419167 10.4496232"></polygon>
                        <polygon id="Path" fill="#00A8C5" points="31.7798907 27.7321676 31.7823913 13.6139282 39.134101 20.674284"></polygon>
                        <polygon id="Path" fill="#E61F42" points="10.3624099 38.9654507 2.19801117 38.9654507 2.19801117 2.38064516 19.5395441 2.38064516 19.5395441 10.4496232 10.3624099 10.4496232"></polygon>
                        <polygon id="Path" fill="#E61F42" points="12.3978832 27.7346397 12.3978832 13.6139282 19.7495929 20.674284"></polygon>
                    </g>
                    <polygon id="Path" fill="#000000" points="48.4337637 40.9975279 43.1750407 40.9975279 43.1750407 21.7447091 52.4697023 21.7447091 52.4697023 26.2711486 48.4337637 26.2711486 48.4337637 29.0769973 52.1921377 29.0769973 52.1921377 33.4279168 48.4337637 33.4279168"></polygon>
                    <path d="M71.4291114,40.9975279 L66.3579321,40.9975279 L65.1476506,34.2511305 C64.912596,32.9458547 64.7350547,31.8160989 64.6175273,30.859391 C64.5575134,30.3847453 64.5075017,29.9916792 64.4649919,29.6752487 C64.422482,29.3588182 64.392475,29.1190232 64.3774715,28.9509195 C64.3349616,29.2920711 64.2724471,29.9274043 64.1874273,30.859391 C64.1449174,31.3340368 64.0949058,31.8309316 64.0348918,32.3550196 C63.9748779,32.8791076 63.9048616,33.432861 63.8198418,34.0138077 L62.8221098,40.9975279 L57.70592,40.9975279 L53.367411,21.7447091 L58.5636194,21.7447091 L59.4213189,27.0449201 C59.7488951,29.1561049 59.976448,30.814893 60.1014771,32.0212843 L60.2790184,33.7789569 L60.4440568,32.2709677 C60.621598,30.5083509 60.8466504,28.8347302 61.1242149,27.2451613 L62.1069435,21.7471812 L66.6354966,21.7471812 L67.5182019,26.3725053 C67.9382996,28.525716 68.3033845,31.0744649 68.6159572,34.0162798 C68.7084787,32.6936991 68.808502,31.5219174 68.9185276,30.5009346 C69.0285532,29.4774797 69.1485811,28.5504371 69.2836125,27.7198071 L70.2413352,21.7471812 L75.3750291,21.7471812 L71.4291114,40.9975279 Z" id="Path" fill="#000000"></path>
                    <path d="M81.4964527,36.3450106 C83.3793906,36.2535424 84.3221098,34.6491408 84.3221098,31.5318058 C84.3221098,29.9941513 84.082054,28.7803437 83.6044429,27.8903829 C83.1243312,26.9930057 82.4766806,26.5430811 81.661491,26.5430811 L81.4964527,26.5430811 L81.4964527,36.3450106 Z M76.2352291,40.9975279 L76.2352291,21.7447091 L80.7762852,21.7447091 C83.3743894,21.7447091 85.3973599,22.4344287 86.842696,23.813868 C88.7431379,25.6185107 89.6933589,28.1400663 89.6933589,31.383479 C89.6933589,34.5749774 88.8906722,37.0396744 87.2852989,38.7775701 C85.9149802,40.258366 83.8720051,40.9975279 81.1563736,40.9975279 L76.2352291,40.9975279 Z" id="Shape" fill="#000000"></path>
                </g>
                <g id="Group" transform="translate(99.428123, 25.027676)" fill="#000000">
                    <path d="M0.00250058153,0.0939403075 C0.182542452,0.0568586072 0.467608746,0.0271932469 0.757676204,0.0271932469 C1.17027216,0.0271932469 1.43783438,0.0988845342 1.63538032,0.257099789 C1.8004187,0.378233343 1.90044196,0.566113958 1.90044196,0.815797407 C1.90044196,1.11986735 1.69539428,1.38932771 1.35781577,1.51046126 L1.35781577,1.52034971 C1.66288672,1.59451311 2.0179693,1.84419656 2.0179693,2.3138981 C2.0179693,2.58583057 1.90794371,2.79348809 1.74790649,2.94675912 C1.52535473,3.14947241 1.16277041,3.24341272 0.640148872,3.24341272 C0.355082577,3.24341272 0.137531984,3.22363582 0,3.20633102 L0,0.0939403075 L0.00250058153,0.0939403075 Z M0.415096534,1.38932771 L0.790183764,1.38932771 C1.22778553,1.38932771 1.48284485,1.16436539 1.48284485,0.857823334 C1.48284485,0.487006331 1.19777855,0.341151643 0.780181438,0.341151643 C0.590137241,0.341151643 0.480111654,0.355984323 0.415096534,0.36834489 L0.415096534,1.38932771 Z M0.415096534,2.90473319 C0.495115143,2.91956587 0.615143057,2.9245101 0.762677367,2.9245101 C1.19027681,2.9245101 1.58536869,2.76876696 1.58536869,2.30895387 C1.58536869,1.87633404 1.21028146,1.69834188 0.760176785,1.69834188 L0.417597116,1.69834188 L0.417597116,2.90473319 L0.415096534,2.90473319 Z" id="Shape"></path>
                    <path d="M3.09321935,2.21995779 L2.76064201,3.21621948 L2.33304257,3.21621948 L3.42079553,0.0519143805 L3.91841126,0.0519143805 L5.01116539,3.21621948 L4.56856246,3.21621948 L4.22598279,2.21995779 L3.09321935,2.21995779 Z M4.1434636,1.90105517 L3.8308909,0.988845342 C3.75837404,0.78118782 3.71336357,0.593307205 3.66585252,0.410370817 L3.6558502,0.410370817 C3.60833915,0.598251432 3.55582694,0.791076274 3.4933124,0.983901115 L3.18073971,1.89858306 L4.1434636,1.89858306 L4.1434636,1.90105517 Z" id="Shape"></path>
                    <path d="M7.6492789,3.11239071 C7.49674343,3.18655412 7.19417306,3.26318963 6.80408234,3.26318963 C5.90137241,3.26318963 5.22121424,2.69954778 5.22121424,1.66126017 C5.22121424,0.669942719 5.90137241,0 6.89410328,0 C7.29419632,0 7.54425448,0.0840518541 7.65428007,0.140910461 L7.5542568,0.474645764 C7.39672017,0.400482364 7.17416841,0.343623756 6.90910677,0.343623756 C6.15893231,0.343623756 5.658816,0.818269521 5.658816,1.64889961 C5.658816,2.42267109 6.10892068,2.92203799 6.88910212,2.92203799 C7.14166085,2.92203799 7.39672017,2.87012361 7.56425913,2.79101598 L7.6492789,3.11239071 Z" id="Path"></path>
                    <path d="M8.16689928,0.0494422671 L8.57949523,0.0494422671 L8.57949523,1.57473621 L8.59449872,1.57473621 C8.67951849,1.45360265 8.76453826,1.33988544 8.84705746,1.23605668 L9.82478483,0.0469701538 L10.337404,0.0469701538 L9.1796348,1.38932771 L10.4299256,3.21127525 L9.93981158,3.21127525 L8.88456618,1.65631595 L8.57949523,2.00488393 L8.57949523,3.21127525 L8.16689928,3.21127525 L8.16689928,0.0494422671 Z" id="Path"></path>
                    <polygon id="Path" points="12.4003838 1.73047935 11.1550942 1.73047935 11.1550942 2.87259572 12.542917 2.87259572 12.542917 3.21621948 10.7424983 3.21621948 10.7424983 0.0519143805 12.4704001 0.0519143805 12.4704001 0.395538137 11.1550942 0.395538137 11.1550942 1.39674405 12.4003838 1.39674405 12.4003838 1.73047935"></polygon>
                    <path d="M13.0780414,0.0939403075 C13.3306001,0.0568586072 13.6281693,0.0271932469 13.9557455,0.0271932469 C14.5483833,0.0271932469 14.9734822,0.163159481 15.2535473,0.422731384 C15.5386136,0.679831173 15.703652,1.04817606 15.703652,1.55990353 C15.703652,2.07657522 15.5411142,2.4993066 15.243545,2.79101598 C14.9434752,3.08766958 14.4508607,3.24588484 13.8282159,3.24588484 C13.5331472,3.24588484 13.2855897,3.23105216 13.0780414,3.20880314 L13.0780414,0.0939403075 Z M13.4931379,2.89237263 C13.5981624,2.91214953 13.7506978,2.91462165 13.9107351,2.91462165 C14.7934403,2.91462165 15.273552,2.4251432 15.273552,1.57226409 C15.2785532,0.825685861 14.8509537,0.351040096 13.9757502,0.351040096 C13.7632007,0.351040096 13.6006629,0.370817003 13.4906374,0.393066024 L13.4906374,2.89237263 L13.4931379,2.89237263 Z" id="Shape"></path>
                    <path d="M17.2490114,0.0939403075 C17.4290533,0.0568586072 17.7141196,0.0271932469 18.004187,0.0271932469 C18.416783,0.0271932469 18.6843452,0.0988845342 18.8818911,0.257099789 C19.0494301,0.378233343 19.1469528,0.566113958 19.1469528,0.815797407 C19.1469528,1.11986735 18.9419051,1.38932771 18.6043266,1.51046126 L18.6043266,1.52034971 C18.9093975,1.59451311 19.2644801,1.84419656 19.2644801,2.3138981 C19.2644801,2.58583057 19.1544545,2.79348809 18.9944173,2.94675912 C18.7718656,3.14947241 18.4092812,3.24341272 17.8866597,3.24341272 C17.6015934,3.24341272 17.3840428,3.22363582 17.2465108,3.20633102 L17.2465108,0.0939403075 L17.2490114,0.0939403075 Z M17.6616074,1.38932771 L18.0366946,1.38932771 C18.4742963,1.38932771 18.7293557,1.16436539 18.7293557,0.857823334 C18.7293557,0.487006331 18.4442894,0.341151643 18.0266923,0.341151643 C17.8366481,0.341151643 17.7266225,0.355984323 17.6616074,0.36834489 L17.6616074,1.38932771 Z M17.6616074,2.90473319 C17.741626,2.91956587 17.8616539,2.9245101 18.0091882,2.9245101 C18.4367876,2.9245101 18.8318795,2.76876696 18.8318795,2.30895387 C18.8318795,1.87633404 18.4567923,1.69834188 18.004187,1.69834188 L17.6616074,1.69834188 L17.6616074,2.90473319 Z" id="Shape"></path>
                    <path d="M20.4647592,3.21621948 L20.4647592,1.87386192 L19.4520237,0.0519143805 L19.9221331,0.0519143805 L20.3747383,0.924570395 C20.4972668,1.16436539 20.5922889,1.35719023 20.6923122,1.57720832 L20.7023145,1.57720832 C20.7923354,1.3695508 20.902361,1.16436539 21.0248895,0.924570395 L21.4849965,0.0519143805 L21.9551058,0.0519143805 L20.8823564,1.8689177 L20.8823564,3.21621948 L20.4647592,3.21621948 Z" id="Path"></path>
                </g>
                <g id="Group" transform="translate(91.813852, 30.271028)">
                    <g id="Group" transform="translate(26.008548, 0.249683)">
                        <path d="M11.1775994,4.46216461 L11.1775994,0.543864938 C11.1775994,0.543864938 11.1775994,0 10.6274715,0 L0.550127937,0 C0.550127937,0 0,0 0,0.543864938 L0,4.46216461 C0,4.46216461 0,5.00602954 0.550127937,5.00602954 L8.83705513,5.00602954 L8.83705513,6.76864637 L10.1948709,5.00602954 L10.6274715,5.00602954 C10.6274715,5.00602954 11.1775994,5.00602954 11.1775994,4.46216461" id="Path" fill="#020204"></path>
                        <path d="M3.32077227,2.4622249 C3.32077227,2.70449201 3.23325192,2.91214953 3.05821121,3.08519747 C2.8831705,3.2582454 2.67312166,3.34229726 2.42806467,3.34229726 C2.18300768,3.34229726 1.97295883,3.25577329 1.79791812,3.08519747 C1.62287741,2.91214953 1.53785764,2.70696412 1.53785764,2.4622249 C1.53785764,2.21995779 1.62537799,2.01230027 1.79791812,1.83925234 C1.97295883,1.6662044 2.18050709,1.57968043 2.42806467,1.57968043 C2.67312166,1.57968043 2.8831705,1.6662044 3.05821121,1.83925234 C3.23325192,2.01230027 3.32077227,2.21995779 3.32077227,2.4622249 M3.47830891,3.4980404 C3.76837637,3.21127525 3.91591068,2.86517938 3.91591068,2.45975279 C3.91591068,2.05679831 3.77087695,1.71070244 3.47830891,1.42393729 C3.18824145,1.13717214 2.83816004,0.991317456 2.43056525,0.991317456 C2.02046988,0.991317456 1.67288904,1.13470003 1.380321,1.42393729 C1.09025355,1.71070244 0.945219819,2.05679831 0.945219819,2.45975279 C0.945219819,2.86517938 1.09025355,3.21127525 1.380321,3.4980404 C1.67038846,3.78480555 2.02046988,3.92818812 2.43056525,3.92818812 C2.83816004,3.93066024 3.18824145,3.78727766 3.47830891,3.4980404 M6.70906025,3.9059391 L7.3242033,3.9059391 L7.3242033,1.0185107 L5.82635497,2.84293036 L4.32850663,1.0185107 L4.32850663,3.9059391 L4.94364969,3.9059391 L4.94364969,2.69213144 L5.82635497,3.85896895 L6.70906025,2.69213144 L6.70906025,3.9059391 L6.70906025,3.9059391 Z M8.91207258,2.4251432 L10.2098744,1.0185107 L7.68178646,1.0185107 L7.68178646,1.59698523 L8.87956502,1.59698523 L8.05687369,2.4251432 L9.37968132,3.90346699 L10.2323796,3.9059391 L8.91207258,2.4251432 Z" id="Shape" fill="#FFFFFF"></path>
                    </g>
                    <g fill="#000000">
                        <polygon id="Path" points="12.775471 2.0543262 12.775471 2.24962315 13.2830891 2.24962315 13.2830891 5.42876093 12.7904745 5.42876093 12.7904745 5.62405788 14.8534543 5.62405788 14.8534543 5.42876093 14.353338 5.42876093 14.353338 2.0543262"></polygon>
                        <g>
                            <polygon id="Path" points="21.2124331 0 21.2124331 0.195296955 21.7200512 0.195296955 21.7200512 5.42876093 21.7200512 5.42876093 21.7200512 5.62405788 23.2829146 5.62405788 23.2829146 5.42876093 22.7827983 5.42876093 22.7827983 0"></polygon>
                            <path d="M19.2094673,3.8317757 C18.1867295,3.8317757 17.5265759,4.034489 17.5265759,4.80578836 C17.5265759,5.51034067 18.0566992,5.69822128 18.6118283,5.69822128 C19.0969411,5.69822128 19.414515,5.51775701 19.582054,5.16671691 C19.6570714,5.52022912 19.9396371,5.69822128 20.4472552,5.69822128 C21.0373924,5.69822128 21.2899512,5.41392825 21.3274599,4.58824239 L21.1524192,4.57340971 C21.099907,5.17413325 20.9998837,5.29279469 20.8498488,5.29279469 C20.7048151,5.29279469 20.6147941,5.18896593 20.6147941,4.87253542 L20.6147941,3.39668375 C20.6147941,2.30895387 20.197197,1.9801628 19.1444522,1.9801628 C18.279251,1.9801628 17.6966155,2.28670485 17.6966155,2.87259572 C17.6966155,3.2013868 17.8641545,3.41893277 18.2267388,3.41893277 C18.5368109,3.41893277 18.7718656,3.23105216 18.7718656,2.91709376 C18.7718656,2.79596021 18.7493603,2.69954778 18.7118516,2.60313536 L18.5068039,2.60313536 C18.4918004,2.55122098 18.4842987,2.4993066 18.4842987,2.45233645 C18.4842987,2.24962315 18.6968481,2.16062707 18.9619097,2.16062707 C19.4245173,2.16062707 19.5545476,2.46716913 19.5545476,3.28543865 L19.5545476,3.8317757 L19.2094673,3.8317757 L19.2094673,3.8317757 Z M18.9969179,5.37684655 C18.7468597,5.37684655 18.6343336,5.22604763 18.6343336,4.78353934 C18.6343336,4.28170033 18.8318795,4.01965632 19.3770063,4.01965632 L19.552047,4.01965632 L19.552047,4.64262888 C19.552047,5.10491408 19.2719819,5.37684655 18.9969179,5.37684655" id="Shape"></path>
                            <g transform="translate(0.000000, 0.264516)">
                                <path d="M13.1480577,0.568586072 C13.1480577,0.838046427 13.2780879,1.14458848 13.7632007,1.14458848 C14.1807979,1.14458848 14.3708421,0.897377148 14.3708421,0.568586072 C14.3708421,0.177992162 14.1357874,0 13.7707025,0 C13.3356013,0 13.1480577,0.269460356 13.1480577,0.568586072" id="Path"></path>
                                <path d="M10.7374971,2.0370214 C11.2301117,2.0370214 11.3526401,2.44986434 11.3526401,3.57467591 C11.3526401,4.75140187 11.2076064,5.18649382 10.6924866,5.18649382 C10.1998721,5.18649382 9.93481042,4.72915285 9.93481042,4.2940609 L9.93481042,3.09508592 C9.93481042,2.44986434 10.3449058,2.0370214 10.7374971,2.0370214 M9.93481042,1.78981007 L8.37194696,1.78981007 L8.37194696,1.98510702 L8.87956502,1.98510702 L8.87956502,6.55604462 L8.34193999,6.55604462 L8.34193999,6.75134157 L10.9200395,6.75134157 L10.9200395,6.55604462 L9.94231217,6.55604462 L9.94231217,5.00850166 C10.1173529,5.27054567 10.397418,5.43617727 10.9200395,5.43617727 C11.9202722,5.43617727 12.4754013,4.82062104 12.4754013,3.56231535 C12.4754013,2.31884233 11.945278,1.71811878 11.072575,1.71811878 C10.4799372,1.71811878 10.1473599,1.98757914 9.93481042,2.36334037 L9.93481042,1.78981007 Z" id="Shape"></path>
                                <path d="M6.43899744,3.56725957 C5.4162596,3.56725957 4.75610607,3.76997287 4.75610607,4.54127223 C4.75610607,5.24582454 5.28622936,5.43370516 5.84135846,5.43370516 C6.32647127,5.43370516 6.64404513,5.25324088 6.81158409,4.90220078 C6.88660154,5.25571299 7.16916725,5.43370516 7.6767853,5.43370516 C8.26942312,5.43370516 8.51948127,5.14941212 8.55699,4.32372626 L8.38194929,4.30889358 C8.32943708,4.90961712 8.22941382,5.02827856 8.07937893,5.02827856 C7.9343452,5.02827856 7.84432426,4.9244498 7.84432426,4.60801929 L7.84432426,3.13216762 C7.84432426,2.04443774 7.42672715,1.71564667 6.37398232,1.71564667 C5.50878111,1.71564667 4.92614562,2.02218872 4.92614562,2.60807959 C4.92614562,2.93687067 5.09368458,3.15441664 5.4562689,3.15441664 C5.76634101,3.15441664 6.00139567,2.96653603 6.00139567,2.65257763 C6.00139567,2.53144408 5.97889044,2.43503166 5.94138172,2.33861923 L5.73633403,2.33861923 C5.72133054,2.28670485 5.7138288,2.23479047 5.7138288,2.18782032 C5.7138288,1.98510702 5.92637823,1.89611094 6.19143987,1.89611094 C6.65404745,1.89611094 6.78407769,2.202653 6.78407769,3.02092252 L6.78407769,3.56725957 L6.43899744,3.56725957 L6.43899744,3.56725957 Z M6.22644801,5.11233042 C5.97638986,5.11233042 5.86136311,4.9615315 5.86136311,4.51902321 C5.86136311,4.0171842 6.05890905,3.75514019 6.60403582,3.75514019 L6.77907653,3.75514019 L6.77907653,4.37811275 C6.77907653,4.84039795 6.4990114,5.11233042 6.22644801,5.11233042" id="Shape"></path>
                                <path d="M2.60060479,0.262044016 C3.34327751,0.262044016 3.81338683,0.771299367 4.10845545,1.70081399 L4.27599442,1.70081399 L4.21598046,0.111245101 L4.10345429,0.111245101 C4.06594557,0.207657522 4.03593859,0.262044016 3.92091184,0.262044016 C3.67085369,0.262044016 3.23825308,0.0296653603 2.54059084,0.0296653603 C1.0702489,0.0296653603 0,0.974012662 0,2.76629484 C0,4.61790775 0.970225634,5.43370516 2.5180856,5.43370516 C3.26075832,5.43370516 3.73836939,5.2013265 3.9809258,5.2013265 C4.08595022,5.2013265 4.13346127,5.25324088 4.17096999,5.35212541 L4.28349616,5.35212541 L4.33600837,3.71805849 L4.17597116,3.71805849 C3.86589905,4.67723847 3.358281,5.2013265 2.63561293,5.2013265 C1.67288904,5.2013265 1.20277972,4.34597528 1.20277972,2.71932469 C1.20778088,0.907265601 1.70039544,0.262044016 2.60060479,0.262044016" id="Path"></path>
                                <path d="M16.4488253,4.44485981 L16.4488253,1.98510702 L17.4640614,1.98510702 L17.4640614,1.78981007 L16.4488253,1.78981007 L16.4488253,0.553753392 L15.3710747,0.823213747 L15.3710747,1.78981007 L14.8784601,1.78981007 L14.8784601,1.98510702 L15.3710747,1.98510702 L15.3710747,4.49430208 C15.3710747,4.69948749 15.4160851,4.89725656 15.4160851,4.89725656 C15.4911026,5.24829665 15.7736683,5.42876093 16.2812863,5.42876093 C16.8714236,5.42876093 17.1239823,5.14446789 17.161491,4.31878203 L16.9864503,4.30394935 C16.9339381,4.9046729 16.8339149,5.02333434 16.68388,5.02333434 C16.5388462,5.02333434 16.4488253,4.91950558 16.4488253,4.60307507 L16.4488253,4.44485981 L16.4488253,4.44485981 Z" id="Path"></path>
                            </g>
                        </g>
                    </g>
                </g>
            </g>
        </g>
    </g>
</svg>