<?xml version="1.0" encoding="UTF-8"?>
<svg width="728px" height="392px" viewBox="0 0 728 392" version="1.1" xmlns="http://www.w3.org/2000/svg" xmlns:xlink="http://www.w3.org/1999/xlink">
    <title>fortune-big_2C2C2C</title>
    <g id="fortune-big_2C2C2C" stroke="none" stroke-width="1" fill="none" fill-rule="evenodd">
        <g id="fortune-seeklogo.com" transform="translate(178.000000, 152.000000)" fill="#FFFFFF" fill-rule="nonzero">
            <path d="M68.4503293,0.000178398023 C61.3117065,0.0305833474 54.2103572,3.85003079 50.6660383,11.4564911 L49.0286515,14.9675072 L49.0286515,43.9787197 L49.0286515,72.9899322 L50.6660383,76.5009482 C53.2071901,81.9544337 57.1404618,85.3971047 63.0356044,87.2977347 C67.2604749,88.6598639 73.995075,87.9420737 78.2908622,85.6823376 C81.0773535,84.2165382 85.0205961,79.8524817 86.5426435,76.5503991 L87.9368541,73.5174087 L87.9368541,43.9787197 L87.9368541,14.4400306 L86.4129495,11.3081383 C82.7545564,3.73216615 75.5889519,-0.0298549204 68.4503293,0.000178398023 Z M68.7745643,14.3740044 C69.0327373,14.3756785 69.2909607,14.4016831 69.5365166,14.4565142 C70.3597104,14.6403504 71.7325993,15.6107649 72.6005376,16.6158715 L74.1892892,18.445556 L74.1892892,43.8468505 L74.1892892,69.2481451 L73.0220431,70.9789277 C72.3800577,71.9353007 71.1743289,72.959117 70.3471042,73.2536705 C69.5198743,73.5482187 68.5860774,73.7853669 68.272,73.7812025 C67.021812,73.7641096 65.0813043,72.3580363 63.9596742,70.6657384 L62.7762164,68.8855049 L62.7762164,44.0446543 C62.778084,20.3331468 62.8148808,19.1176192 63.781345,17.5059883 C64.9243881,15.5998831 66.967353,14.3617425 68.7745643,14.3740044 Z" id="path3022"></path>
            <path d="M232.008849,87.0218802 C225.995348,84.7540896 222.045066,80.8474661 219.768723,74.917031 C218.967676,72.8300909 218.887167,69.3056137 218.9012,36.9387112 L218.91666,1.26082227 L225.92355,1.11406774 L232.930434,0.9673132 L232.93806,35.1363078 C232.943974,61.5412479 233.094134,69.6049408 233.598924,70.6239939 C233.958192,71.3492742 235.077638,72.3951232 236.086585,72.9481085 C238.353569,74.1905955 240.253461,73.8088079 242.334853,71.6925085 L243.82471,70.1776696 L243.82471,35.5724888 L243.82471,0.9673132 L250.836695,1.11406774 L257.848674,1.26082227 L257.847118,36.9586551 C257.845561,71.8426969 257.820919,72.7234668 256.764432,75.5945535 C255.238286,79.7419543 251.34494,83.905385 247.017673,86.0174593 C242.505992,88.2195422 236.288062,88.635658 232.008808,87.0218802 L232.008849,87.0218802 Z" id="path3018"></path>
            <polygon id="path3016" points="0 43.9864261 0 0.997083979 17.3789972 0.997083979 34.7579938 0.997083979 34.7579938 8.38175625 34.7579938 15.7664285 24.6418611 15.7664285 14.525729 15.7664285 14.525729 25.8157015 14.525729 35.8649798 20.8807354 35.7751928 27.2357413 35.685411 27.3800752 42.8689089 27.5244085 50.0524069 21.0250693 50.0524069 14.525729 50.0524069 14.525729 68.5140876 14.525729 86.9757682 7.26286448 86.9757682 1.47445017e-14 86.9757682 1.47445017e-14 43.9864261"></polygon>
            <path d="M107.386639,43.9864261 L107.386639,0.997083979 L118.171941,0.997083979 C129.916149,0.997083979 133.130687,1.49163021 137.21831,3.92731139 C140.301796,5.76466004 143.524547,9.45869993 145.164076,13.0350545 C146.490467,15.9283533 146.543086,16.4102928 146.712016,27.2127022 C146.852593,36.202433 146.723325,39.0443186 146.052869,41.7053061 C145.084869,45.5471502 143.320585,48.8215667 140.883313,51.299715 L139.159907,53.0520291 L143.707135,68.8857951 C146.208108,77.5943703 148.412823,85.2272097 148.606503,85.8476646 C148.955146,86.9645752 148.884369,86.9757682 141.4723,86.9757682 L133.985962,86.9757682 L131.807144,78.4042736 C129.635895,69.8625393 124.092254,48.4629406 123.622041,46.8080883 C123.443862,46.1810241 123.806227,45.8410391 124.917165,45.5929405 C126.975233,45.1333343 130.693493,41.834253 131.577228,39.6836993 C132.090147,38.4355262 132.287889,35.2964497 132.287889,28.4022305 L132.287889,18.8501358 L130.771465,17.3082795 C129.362272,15.8754527 128.977102,15.7664285 125.324316,15.7664285 L121.393592,15.7664285 L121.393592,51.3710984 L121.393592,86.9757682 L114.390115,86.9757682 L107.386639,86.9757682 L107.386639,43.9864261 L107.386639,43.9864261 Z" id="path3014"></path>
            <path d="M175.34091,86.5801608 C175.337797,86.3625767 175.279585,70.3998164 175.211216,51.1073601 L175.086912,16.0301668 L168.731905,15.8820619 L162.376899,15.7339571 L162.376899,8.36552052 L162.376899,0.997083979 L182.090388,0.997083979 L201.803877,0.997083979 L201.803877,8.38175625 L201.803877,15.7664285 L195.578565,15.7664285 L189.353253,15.7664285 L189.353253,51.3710984 L189.353253,86.9757682 L182.349776,86.9757682 C178.497864,86.9757682 175.343877,86.7977449 175.34091,86.5801608 Z" id="path3012"></path>
            <path d="M276.507606,43.9864261 L276.507606,0.997083979 L283.663317,0.997083979 L290.819008,0.997083979 L291.371618,2.97512119 C291.675559,4.06304166 294.038174,11.7180457 296.621875,19.9862412 C299.205582,28.2544368 302.058104,37.4523098 302.96081,40.4259591 C303.863522,43.3996084 304.822194,45.8325942 305.091195,45.8325942 C305.390285,45.8325942 305.567385,37.1746356 305.547059,23.5467082 L305.513806,1.26082227 L312.539911,1.11406774 L319.566017,0.9673132 L319.566017,43.9715407 L319.566017,86.9757682 L311.632593,86.9757682 L303.699169,86.9757682 L302.213882,82.0966098 C301.396975,79.4130726 299.957968,74.7589884 299.016089,71.7542022 C298.07421,68.7494213 295.969753,61.9251929 294.339515,56.5892502 C292.709282,51.2533129 291.181751,46.8875474 290.945003,46.8875474 C290.708259,46.8875474 290.514559,55.9073971 290.514559,66.9316578 L290.514559,86.9757682 L283.511082,86.9757682 L276.507606,86.9757682 L276.507606,43.9864261 L276.507606,43.9864261 Z" id="path3010"></path>
            <polygon id="path3006" points="338.241975 43.9864261 338.241975 0.997083979 355.620972 0.997083979 372.999969 0.997083979 372.999969 8.38175625 372.999969 15.7664285 362.612999 15.7664285 352.226034 15.7664285 352.367172 25.6566146 352.508316 35.5468007 359.123244 35.5468007 365.738173 35.5468007 365.737654 42.7996038 365.737136 50.0524069 358.993047 50.0524069 352.248959 50.0524069 352.248959 61.1294153 352.248959 72.2064237 362.624479 72.2064237 373 72.2064237 373 79.591096 373 86.9757682 355.621003 86.9757682 338.242006 86.9757682 338.242006 43.9864261"></polygon>
        </g>
    </g>
</svg>