<?xml version="1.0" encoding="UTF-8"?>
<svg width="180px" height="70px" viewBox="0 0 180 70" version="1.1" xmlns="http://www.w3.org/2000/svg" xmlns:xlink="http://www.w3.org/1999/xlink">
    <title>fortune-small</title>
    <g id="fortune-small" stroke="none" stroke-width="1" fill="none" fill-rule="evenodd">
        <g id="Group-9" transform="translate(16.000000, 18.000000)" fill="#0F0F0F" fill-rule="nonzero">
            <g id="fortune-seeklogo.com">
                <path d="M27.3434291,7.09537588e-05 C24.4918077,0.0121638313 21.6550757,1.53126225 20.2392486,4.55655898 L19.5851718,5.95298582 L19.5851718,17.4915362 L19.5851718,29.0300867 L20.2392486,30.4265135 C21.2543467,32.5955134 22.8255464,33.9647575 25.1804425,34.7206899 C26.8681254,35.2624459 29.5583543,34.9769611 31.2743659,34.0782025 C32.3874683,33.4952141 33.962651,31.7595098 34.5706538,30.4461815 L35.1275905,29.2398785 L35.1275905,17.4915362 L35.1275905,5.74319399 L34.5188458,4.49755503 C33.0574502,1.48438426 30.1950505,-0.0118741161 27.3434291,7.09537588e-05 Z M27.4729493,5.71693358 C27.5760801,5.71759939 27.679231,5.72794213 27.7773216,5.74974999 C28.1061578,5.82286663 28.6545772,6.20882695 29.0012871,6.60858527 L29.6359359,7.33630067 L29.6359359,17.4390883 L29.6359359,27.5418759 L29.1696633,28.2302553 C28.9132134,28.610631 28.4315684,29.0178306 28.101122,29.1349826 C27.7706736,29.2521324 27.3976556,29.3464527 27.272193,29.3447964 C26.7727882,29.3379981 25.9976256,28.7787644 25.549575,28.1056914 L25.0768264,27.397644 L25.0768264,17.5177602 C25.0775724,8.08704701 25.0922714,7.60359853 25.4783389,6.96260898 C25.9349432,6.20449894 26.7510338,5.71205669 27.4729493,5.71693358 Z" id="path3022"></path>
                <path d="M92.6791383,34.6109751 C90.2769621,33.7090129 88.6989673,32.1552422 87.7896508,29.7965464 C87.4696614,28.9665134 87.4375011,27.5647327 87.4431067,14.6915328 L87.4492822,0.501463405 L90.2482812,0.443095123 L93.0472781,0.384726841 L93.0503244,13.9746679 C93.0526868,24.4766327 93.1126702,27.6837833 93.3143155,28.0890885 C93.45783,28.3775523 93.9050082,28.7935149 94.3080459,29.0134523 C95.2136239,29.5076232 95.9725623,29.3557759 96.8040029,28.5140659 L97.399147,27.9115731 L97.399147,14.1481489 L97.399147,0.384726841 L100.200181,0.443095123 L103.001213,0.501463405 L103.000591,14.6994651 C102.99997,28.5737999 102.990126,28.9241061 102.568098,30.0660156 C101.958458,31.71555 100.403206,33.37146 98.6746201,34.2114895 C96.8723668,35.0873179 94.3885287,35.2528185 92.6791217,34.6109751 L92.6791383,34.6109751 Z" id="path3018"></path>
                <polygon id="path3016" points="0 17.4946013 0 0.396567492 6.94228037 0.396567492 13.8845605 0.396567492 13.8845605 3.33365305 13.8845605 6.27073861 9.84353166 6.27073861 5.80250299 6.27073861 5.80250299 10.2676086 5.80250299 14.2644806 8.34109805 14.2287698 10.8796929 14.1930612 10.9373491 17.0501342 10.995005 19.9072073 8.39875421 19.9072073 5.80250299 19.9072073 5.80250299 27.2499212 5.80250299 34.5926351 2.9012515 34.5926351 5.88989479e-15 34.5926351 5.88989479e-15 17.4946013"></polygon>
                <path d="M42.8970755,17.4946013 L42.8970755,0.396567492 L47.2054132,0.396567492 C51.8967993,0.396567492 53.1808911,0.593262014 54.8137486,1.56199885 C56.0454895,2.29276252 57.3328618,3.76198293 57.9877944,5.18439668 C58.5176396,6.33514051 58.5386592,6.52682101 58.6061402,10.8232338 C58.662296,14.3986949 58.6106579,15.5289903 58.3428351,16.5873377 C57.9561542,18.1153438 57.2513863,19.4176686 56.2777844,20.4032957 L55.5893464,21.1002389 L57.4057992,27.3977594 C58.4048473,30.8613973 59.2855512,33.8971857 59.3629193,34.1439575 C59.5021897,34.5881833 59.473917,34.5926351 56.5130634,34.5926351 L53.5225425,34.5926351 L52.6521836,31.1835179 C51.7848483,27.7862372 49.5703643,19.2750332 49.382531,18.6168533 C49.311355,18.3674528 49.4561068,18.2322315 49.8998863,18.1335559 C50.7220098,17.950758 52.2073202,16.6386234 52.5603404,15.7832895 C52.765233,15.286857 52.8442237,14.0383607 52.8442237,11.2963417 L52.8442237,7.4972131 L52.2384672,6.88397481 C51.6755457,6.31410049 51.521684,6.27073861 50.0625284,6.27073861 L48.4923462,6.27073861 L48.4923462,20.4316869 L48.4923462,34.5926351 L45.6947109,34.5926351 L42.8970755,34.5926351 L42.8970755,17.4946013 L42.8970755,17.4946013 Z" id="path3014"></path>
                <path d="M70.0423473,34.4352912 C70.0411039,34.3487521 70.0178503,27.999927 69.9905392,20.3267909 L69.9408843,6.37563453 L67.4022892,6.31672918 L64.8636942,6.25782383 L64.8636942,3.32719566 L64.8636942,0.396567492 L72.7385197,0.396567492 L80.6133452,0.396567492 L80.6133452,3.33365305 L80.6133452,6.27073861 L78.1265582,6.27073861 L75.6397712,6.27073861 L75.6397712,20.4316869 L75.6397712,34.5926351 L72.8421358,34.5926351 C71.3034363,34.5926351 70.0435326,34.5218304 70.0423473,34.4352912 Z" id="path3012"></path>
                <path d="M110.454781,17.4946013 L110.454781,0.396567492 L113.313228,0.396567492 L116.171668,0.396567492 L116.392416,1.18328684 C116.513829,1.61598248 117.457608,4.66058635 118.489704,7.94907322 C119.521801,11.2375601 120.66128,14.8958051 121.021879,16.0785065 C121.382479,17.2612079 121.765434,18.2288727 121.87289,18.2288727 C121.992366,18.2288727 122.063111,14.7853664 122.054991,9.36516804 L122.041708,0.501463405 L124.848383,0.443095123 L127.655058,0.384726841 L127.655058,17.488681 L127.655058,34.5926351 L124.485942,34.5926351 L121.316826,34.5926351 L120.723508,32.6520607 C120.397183,31.5847448 119.822352,29.7336886 119.446105,28.5386031 C119.069859,27.3435198 118.229204,24.6293381 117.577983,22.5070882 C116.926764,20.3848403 116.316571,18.6484563 116.221998,18.6484563 C116.127428,18.6484563 116.050052,22.2358966 116.050052,26.6205457 L116.050052,34.5926351 L113.252416,34.5926351 L110.454781,34.5926351 L110.454781,17.4946013 L110.454781,17.4946013 Z" id="path3010"></path>
                <polygon id="path3006" points="135.115427 17.4946013 135.115427 0.396567492 142.057707 0.396567492 148.999988 0.396567492 148.999988 3.33365305 148.999988 6.27073861 144.850769 6.27073861 140.701552 6.27073861 140.757932 10.2043353 140.814314 14.1379321 143.456738 14.1379321 146.099163 14.1379321 146.098956 17.0225697 146.098749 19.9072073 143.404729 19.9072073 140.71071 19.9072073 140.71071 24.3128356 140.71071 28.718464 144.855355 28.718464 149 28.718464 149 31.6555495 149 34.5926351 142.05772 34.5926351 135.115439 34.5926351 135.115439 17.4946013"></polygon>
            </g>
        </g>
    </g>
</svg>