<?xml version="1.0" encoding="UTF-8"?>
<svg width="728px" height="392px" viewBox="0 0 728 392" version="1.1" xmlns="http://www.w3.org/2000/svg" xmlns:xlink="http://www.w3.org/1999/xlink">
    <title>lesechos-big_BB1307</title>
    <g id="lesechos-big_BB1307" stroke="none" stroke-width="1" fill="none" fill-rule="evenodd">
        <g id="les-echos-logo-vector" transform="translate(139.000000, 153.000000)" fill="#FFFFFF" fill-rule="nonzero">
            <path d="M27.0033123,18.1052632 L27.0033123,71.3649123 C27.0033123,76.2684211 28.5034963,78.8333333 34.8792784,78.8333333 L42.5302169,78.8333333 C51.2312842,78.8333333 55.281781,75.4385965 58.2821491,69.0263158 L61.0574895,62.8403509 L65.5580415,64.122807 L62.1826275,84.4157895 L0,84.4157895 L0,79.8894737 C11.1013617,77.5508772 11.4764077,77.0982456 11.4764077,72.7982456 L11.4764077,17.8035088 C11.4764077,13.277193 10.8013249,13.1263158 0,10.9385965 L0,6.4122807 L38.9297752,6.4122807 L38.9297752,10.9385965 C27.6033859,13.2017544 27.0033123,13.4280702 27.0033123,18.1052632 Z M114.239013,41.6421053 C114.239013,48.8842105 110.188516,57.0315789 83.1852037,58.3140351 C83.8602865,69.4789474 89.5609858,76.7210526 98.9371359,76.7210526 C104.037762,76.7210526 108.91336,74.6087719 113.188884,70.5350877 L115.739197,73.5526316 C110.863599,80.7947368 102.762605,86 93.386455,86 C78.3096057,86 67.4332716,75.0614035 67.4332716,58.1631579 C67.4332716,41.7175439 80.6348909,28.6666667 96.1617955,28.6666667 C109.138387,28.1385965 114.239013,36.0596491 114.239013,41.6421053 Z M95.4867127,32.8912281 C87.010673,32.8912281 83.3352221,42.0947368 82.9601761,53.6368421 C101.487449,50.845614 102.087522,43.8298246 102.087522,39.7561404 C102.31255,35.0035088 98.4870807,32.8912281 95.4867127,32.8912281 Z M137.416856,85.6982456 C123.990209,85.6982456 118.889583,80.3421053 118.889583,74.5333333 C118.889583,70.2333333 123.165108,66.3859649 128.640779,67.4421053 L130.140963,69.177193 C126.765549,75.1368421 129.315862,80.7192982 138.01693,80.7192982 C143.56761,80.7192982 147.618107,77.7017544 147.618107,73.0245614 C147.618107,67.6684211 143.117555,65.3298246 136.1417,62.5385965 C126.390503,58.4649123 120.389767,54.0140351 120.389767,44.8105263 C120.389767,35.8333333 128.265733,28.1385965 140.417224,28.1385965 C153.168788,28.1385965 158.944497,34.3245614 158.944497,39.454386 C158.944497,43.754386 155.119027,47.8280702 148.743245,46.3192982 L147.468089,44.3578947 C151.518586,39.0017544 149.418328,32.5894737 140.642252,32.5894737 C135.541626,32.5894737 131.941184,35.8333333 131.941184,40.2842105 C131.941184,45.4140351 137.491865,47.9789474 143.64262,50.0912281 C153.393816,53.4859649 161.269782,58.0122807 161.269782,68.045614 C161.494809,78.6824561 154.218917,85.6982456 137.416856,85.6982456 Z M173.196245,6.56315789 L235.303863,6.56315789 L235.978946,27.0824561 L231.703421,27.0824561 L229.603164,20.6701754 C227.502906,14.2578947 223.002354,12.2964912 216.401544,12.2964912 L200.199557,12.2964912 L200.199557,41.4157895 L216.176517,41.4157895 C219.551931,41.4157895 219.776958,40.7368421 222.102244,30.7035088 L226.602796,30.7035088 L226.602796,58.7666667 L222.102244,58.7666667 C219.776958,49.1105263 219.551931,47.6017544 216.176517,47.6017544 L200.199557,47.6017544 L200.199557,71.3649123 C200.199557,76.2684211 201.699741,78.8333333 208.075523,78.8333333 L215.726462,78.8333333 C224.427529,78.8333333 228.478026,75.4385965 231.478394,69.0263158 L234.253734,62.8403509 L238.754286,64.122807 L235.153845,84.4157895 L173.271254,84.4157895 L173.271254,80.1157895 C184.372616,77.777193 184.747662,77.3245614 184.747662,73.0245614 L184.747662,17.8035088 C184.747662,13.277193 184.072579,13.1263158 173.271254,10.9385965 L173.271254,6.56315789 L173.196245,6.56315789 Z M286.835184,70.5350877 L289.385497,73.5526316 C284.509899,80.7947368 276.408905,85.7736842 267.032755,85.7736842 C251.955906,85.7736842 241.079572,74.8350877 241.079572,57.9368421 C241.079572,41.4912281 253.231062,28.4403509 268.982994,28.4403509 C281.359512,28.4403509 287.060212,35.3052632 287.060212,40.6614035 C287.060212,45.1877193 284.284871,49.6385965 276.183878,48.3561404 L274.908721,46.2438596 C277.008979,41.1140351 277.909089,32.9666667 269.133013,32.9666667 C260.206918,32.9666667 256.606476,43.2263158 256.606476,55.9 C256.606476,68.3473684 262.382185,76.8719298 272.358408,76.8719298 C277.684062,76.4947368 282.334632,74.6087719 286.835184,70.5350877 L286.835184,70.5350877 Z M327.415162,78.0035088 L327.415162,47.8280702 C327.415162,41.4157895 325.089876,38.6245614 320.589324,38.6245614 C313.53846,38.6245614 307.612733,49.7894737 307.612733,66.2350877 L307.612733,84.1894737 L292.910929,84.1894737 L292.910929,11.3912281 C292.910929,7.09122807 292.460874,6.86491228 285.485018,4.52631579 L285.485018,0 L308.287815,0 C307.612733,4.67719298 307.612733,41.2649123 307.612733,43.6789474 L307.83776,43.6789474 C311.663229,34.4754386 318.264039,28.0631579 327.640189,28.0631579 C335.966211,28.0631579 341.891937,33.8719298 341.891937,44.9614035 L341.891937,72.345614 C341.891937,77.4754386 342.717039,77.9280702 350.367977,79.8140351 L350.367977,84.3403509 C343.767167,85.0192982 338.441514,85.3964912 335.291128,85.3964912 C330.190502,85.6982456 327.415162,83.3596491 327.415162,78.0035088 Z M377.221271,81.0210526 C386.972467,81.0210526 389.597789,69.4789474 389.597789,57.7105263 C389.597789,44.8859649 387.872578,32.8912281 377.221271,32.8912281 C367.470075,32.8912281 364.844753,44.4333333 364.844753,56.2017544 C364.694734,68.8 366.794992,81.0210526 377.221271,81.0210526 Z M375.946115,85.6982456 C360.194182,85.6982456 349.16783,74.9859649 349.16783,58.7666667 C349.16783,40.3596491 360.644238,28.1385965 378.346409,28.1385965 C394.098341,28.1385965 405.124694,38.6245614 405.124694,55.0701754 C405.124694,73.5526316 393.798304,85.6982456 375.946115,85.6982456 Z M426.352298,85.6982456 C412.925651,85.6982456 407.825025,80.3421053 407.825025,74.5333333 C407.825025,70.2333333 412.100549,66.3859649 417.576221,67.4421053 L419.076405,69.177193 C415.700991,75.1368421 418.251304,80.7192982 426.952371,80.7192982 C432.503052,80.7192982 436.553549,77.7017544 436.553549,73.0245614 C436.553549,67.6684211 432.052997,65.3298246 425.077141,62.5385965 C415.325945,58.4649123 409.325209,54.0140351 409.325209,44.8105263 C409.325209,35.8333333 417.201175,28.1385965 429.127638,28.1385965 C441.879202,28.1385965 447.654911,34.3245614 447.654911,39.454386 C447.654911,43.754386 443.829441,47.8280702 437.453659,46.3192982 L436.178503,44.3578947 C440.229,39.0017544 438.278761,32.5894737 429.352666,32.5894737 C424.25204,32.5894737 420.651598,35.8333333 420.651598,40.2842105 C420.651598,45.4140351 425.977252,47.9789474 432.353034,50.0912281 C442.10423,53.4859649 449.980196,58.0122807 449.980196,68.045614 C450.430251,78.6824561 443.229368,85.6982456 426.352298,85.6982456 Z" id="Shape"></path>
        </g>
    </g>
</svg>