<?xml version="1.0" encoding="UTF-8"?>
<svg width="180px" height="70px" viewBox="0 0 180 70" version="1.1" xmlns="http://www.w3.org/2000/svg" xmlns:xlink="http://www.w3.org/1999/xlink">
    <title>lesechos-small</title>
    <g id="lesechos-small" stroke="none" stroke-width="1" fill="none" fill-rule="evenodd">
        <g id="Group-4" transform="translate(15.000000, 21.000000)" fill="#000000" fill-rule="nonzero">
            <g id="les-echos-logo-vector">
                <path d="M9.0011041,6.10526316 L9.0011041,24.0649123 C9.0011041,25.7184211 9.50116544,26.5833333 11.6264261,26.5833333 L14.176739,26.5833333 C17.0770947,26.5833333 18.4272603,25.4385965 19.427383,23.2763158 L20.3524965,21.1903509 L21.8526805,21.622807 L20.7275425,28.4657895 L0,28.4657895 L0,26.9394737 C3.70045391,26.1508772 3.82546924,25.9982456 3.82546924,24.5482456 L3.82546924,6.00350877 C3.82546924,4.47719298 3.60044164,4.42631579 0,3.68859649 L0,2.1622807 L12.9765917,2.1622807 L12.9765917,3.68859649 C9.20112864,4.45175439 9.0011041,4.52807018 9.0011041,6.10526316 Z M38.079671,14.0421053 C38.079671,16.4842105 36.7295053,19.2315789 27.7284012,19.6640351 C27.9534288,23.4289474 29.8536619,25.8710526 32.9790453,25.8710526 C34.6792539,25.8710526 36.3044532,25.1587719 37.729628,23.7850877 L38.5797323,24.8026316 C36.9545329,27.2447368 34.2542017,29 31.1288183,29 C26.1032019,29 22.4777572,25.3114035 22.4777572,19.6131579 C22.4777572,14.0675439 26.878297,9.66666667 32.0539318,9.66666667 C36.3794624,9.48859649 38.079671,12.1596491 38.079671,14.0421053 Z M31.8289042,11.0912281 C29.0035577,11.0912281 27.7784074,14.1947368 27.653392,18.0868421 C33.8291496,17.145614 34.0291741,14.7798246 34.0291741,13.4061404 C34.1041833,11.8035088 32.8290269,11.0912281 31.8289042,11.0912281 Z M45.8056186,28.8982456 C41.3300697,28.8982456 39.6298611,27.0921053 39.6298611,25.1333333 C39.6298611,23.6833333 41.0550359,22.3859649 42.8802598,22.7421053 L43.3803212,23.327193 C42.2551831,25.3368421 43.1052874,27.2192982 46.0056432,27.2192982 C47.8558701,27.2192982 49.2060358,26.2017544 49.2060358,24.6245614 C49.2060358,22.8184211 47.7058517,22.0298246 45.3805665,21.0885965 C42.1301678,19.7149123 40.1299225,18.2140351 40.1299225,15.1105263 C40.1299225,12.0833333 42.7552445,9.48859649 46.8057413,9.48859649 C51.0562627,9.48859649 52.9814989,11.5745614 52.9814989,13.304386 C52.9814989,14.754386 51.7063424,16.1280702 49.5810818,15.6192982 L49.1560296,14.9578947 C50.5061952,13.1517544 49.8061094,10.9894737 46.8807505,10.9894737 C45.180542,10.9894737 43.9803948,12.0833333 43.9803948,13.5842105 C43.9803948,15.3140351 45.8306217,16.1789474 47.8808732,16.8912281 C51.1312719,18.0359649 53.7565939,19.5622807 53.7565939,22.945614 C53.8316031,26.5324561 51.4063056,28.8982456 45.8056186,28.8982456 Z M57.7320816,2.21315789 L78.434621,2.21315789 L78.6596486,9.13245614 L77.2344738,9.13245614 L76.5343879,6.97017544 C75.8343021,4.80789474 74.334118,4.14649123 72.1338481,4.14649123 L66.7331857,4.14649123 L66.7331857,13.9657895 L72.0588389,13.9657895 C73.183977,13.9657895 73.2589862,13.7368421 74.0340812,10.3535088 L75.5342652,10.3535088 L75.5342652,19.8166667 L74.0340812,19.8166667 C73.2589862,16.5605263 73.183977,16.0517544 72.0588389,16.0517544 L66.7331857,16.0517544 L66.7331857,24.0649123 C66.7331857,25.7184211 67.233247,26.5833333 69.3585077,26.5833333 L71.9088205,26.5833333 C74.8091763,26.5833333 76.1593419,25.4385965 77.1594646,23.2763158 L78.0845781,21.1903509 L79.5847621,21.622807 L78.3846149,28.4657895 L57.7570846,28.4657895 L57.7570846,27.0157895 C61.4575386,26.227193 61.5825539,26.0745614 61.5825539,24.6245614 L61.5825539,6.00350877 C61.5825539,4.47719298 61.3575263,4.42631579 57.7570846,3.68859649 L57.7570846,2.21315789 L57.7320816,2.21315789 Z M95.611728,23.7850877 L96.4618323,24.8026316 C94.8366329,27.2447368 92.1363017,28.9236842 89.0109183,28.9236842 C83.9853019,28.9236842 80.3598572,25.2350877 80.3598572,19.5368421 C80.3598572,13.9912281 84.410354,9.59035088 89.6609981,9.59035088 C93.7865041,9.59035088 95.6867372,11.9052632 95.6867372,13.7114035 C95.6867372,15.2377193 94.7616237,16.7385965 92.0612925,16.3061404 L91.6362404,15.5938596 C92.3363262,13.8640351 92.636363,11.1166667 89.7110042,11.1166667 C86.7356392,11.1166667 85.535492,14.5763158 85.535492,18.85 C85.535492,23.0473684 87.4607282,25.9219298 90.7861361,25.9219298 C92.5613538,25.7947368 94.111544,25.1587719 95.611728,23.7850877 L95.611728,23.7850877 Z M109.138387,26.3035088 L109.138387,16.1280702 C109.138387,13.9657895 108.363292,13.0245614 106.863108,13.0245614 C104.51282,13.0245614 102.537578,16.7894737 102.537578,22.3350877 L102.537578,28.3894737 L97.6369764,28.3894737 L97.6369764,3.84122807 C97.6369764,2.39122807 97.486958,2.31491228 95.1616728,1.52631579 L95.1616728,0 L102.762605,0 C102.537578,1.57719298 102.537578,13.9149123 102.537578,14.7289474 L102.612587,14.7289474 C103.887743,11.6254386 106.088013,9.46315789 109.213396,9.46315789 C111.988737,9.46315789 113.963979,11.4219298 113.963979,15.1614035 L113.963979,24.395614 C113.963979,26.1254386 114.239013,26.2780702 116.789326,26.9140351 L116.789326,28.4403509 C114.589056,28.6692982 112.813838,28.7964912 111.763709,28.7964912 C110.063501,28.8982456 109.138387,28.1096491 109.138387,26.3035088 Z M125.740424,27.3210526 C128.990822,27.3210526 129.86593,23.4289474 129.86593,19.4605263 C129.86593,15.1359649 129.290859,11.0912281 125.740424,11.0912281 C122.490025,11.0912281 121.614918,14.9833333 121.614918,18.9517544 C121.564911,23.2 122.264997,27.3210526 125.740424,27.3210526 Z M125.315372,28.8982456 C120.064727,28.8982456 116.389277,25.2859649 116.389277,19.8166667 C116.389277,13.6096491 120.214746,9.48859649 126.11547,9.48859649 C131.366114,9.48859649 135.041565,13.0245614 135.041565,18.5701754 C135.041565,24.8026316 131.266101,28.8982456 125.315372,28.8982456 Z M142.117433,28.8982456 C137.641884,28.8982456 135.941675,27.0921053 135.941675,25.1333333 C135.941675,23.6833333 137.36685,22.3859649 139.192074,22.7421053 L139.692135,23.327193 C138.566997,25.3368421 139.417101,27.2192982 142.317457,27.2192982 C144.167684,27.2192982 145.51785,26.2017544 145.51785,24.6245614 C145.51785,22.8184211 144.017666,22.0298246 141.69238,21.0885965 C138.441982,19.7149123 136.441736,18.2140351 136.441736,15.1105263 C136.441736,12.0833333 139.067058,9.48859649 143.042546,9.48859649 C147.293067,9.48859649 149.218304,11.5745614 149.218304,13.304386 C149.218304,14.754386 147.943147,16.1280702 145.817886,15.6192982 L145.392834,14.9578947 C146.743,13.1517544 146.09292,10.9894737 143.117555,10.9894737 C141.417347,10.9894737 140.217199,12.0833333 140.217199,13.5842105 C140.217199,15.3140351 141.992417,16.1789474 144.117678,16.8912281 C147.368077,18.0359649 149.993399,19.5622807 149.993399,22.945614 C150.143417,26.5324561 147.743123,28.8982456 142.117433,28.8982456 Z" id="Shape"></path>
            </g>
        </g>
    </g>
</svg>