<svg version="1.1" id="Layer_1" xmlns="http://www.w3.org/2000/svg" x="0" y="0" viewBox="0 0 306.1 269.8" xml:space="preserve"><style></style><path fill-rule="evenodd" clip-rule="evenodd" fill="#878a97" d="M190.5 190.89l2.89-.08 2.85-.21 2.8-.35 2.77-.49 2.7-.63 2.67-.75 2.6-.89 2.55-1 2.5-1.14 2.41-1.22 2.35-1.36 2.28-1.46 2.19-1.56 2.12-1.67 2.04-1.75 1.94-1.87 1.87-1.95 1.76-2.04 1.66-2.11 1.57-2.19 1.45-2.29 1.36-2.34 1.23-2.42 1.13-2.49 1-2.55.89-2.61.76-2.66.62-2.7.49-2.78.36-2.79.21-2.85.07-2.89-.07-2.87-.21-2.84-.36-2.79-.49-2.74-.62-2.7-.76-2.65-.89-2.6-1-2.53-1.13-2.48-1.23-2.41-1.36-2.33-1.45-2.28-1.57-2.19-1.66-2.1-1.76-2.04-1.87-1.94-1.94-1.86-2.04-1.75-2.12-1.66-2.19-1.57-2.28-1.46-2.35-1.34-2.41-1.22-2.5-1.14-2.55-1-2.6-.89-2.67-.75-2.7-.62-2.77-.5-2.8-.35-2.85-.21-2.89-.08-2.87.08-2.85.21-2.8.35-2.75.5-2.7.62-2.67.75-2.58.89-2.55 1-2.48 1.14-2.4 1.22-2.34 1.34-2.27 1.46-2.19 1.57-2.11 1.66-2.02 1.75-1.95 1.86-1.85 1.94-1.75 2.04-1.67 2.1-1.55 2.19-1.45 2.28-1.34 2.33-1.25 2.41-1.11 2.48-1 2.53-.87 2.6-.76 2.65-.62 2.7-.49 2.74-.36 2.79-.21 2.84-.07 2.87.07 2.89.21 2.85.36 2.79.49 2.78.62 2.7.76 2.66.87 2.61 1 2.55 1.11 2.49 1.25 2.42 1.34 2.34 1.45 2.29 1.55 2.19 1.67 2.11 1.75 2.04 1.85 1.95 1.95 1.87 2.02 1.75 2.11 1.67 2.19 1.56 2.27 1.46 2.34 1.36 2.4 1.22 2.48 1.14 2.55 1 2.58.89 2.67.75 2.7.63 2.75.49 2.8.35 2.85.21 2.87.08z"/><path fill-rule="evenodd" clip-rule="evenodd" fill="#696d7d" d="M115.6 190.89l2.87-.08 2.85-.21 2.8-.35 2.75-.49 2.7-.63 2.67-.75 2.58-.89 2.55-1 2.48-1.14 2.4-1.22 2.34-1.36 2.27-1.46 2.19-1.56 2.11-1.67 2.02-1.75 1.95-1.87 1.85-1.95 1.75-2.04 1.67-2.11 1.55-2.19 1.45-2.29 1.34-2.34 1.25-2.42 1.11-2.49 1-2.55.87-2.61.76-2.66.62-2.7.49-2.78.36-2.79.21-2.85.07-2.89-.07-2.87-.21-2.84-.36-2.79-.49-2.74-.62-2.7-.76-2.65-.87-2.6-1-2.53-1.11-2.48-1.25-2.41-1.34-2.33-1.45-2.28-1.55-2.19-1.67-2.1-1.75-2.04-1.85-1.94-1.95-1.86-2.02-1.75-2.11-1.66-2.19-1.57-2.27-1.46-2.34-1.34-2.4-1.22-2.48-1.14-2.55-1-2.58-.89-2.67-.75-2.7-.62-2.75-.5-2.8-.35-2.85-.21-2.87-.08-2.89.08-2.85.21-2.8.35-2.77.5-2.7.62-2.67.75-2.6.89-2.55 1-2.5 1.14-2.41 1.22-2.35 1.34-2.28 1.46-2.19 1.57-2.12 1.66-2.04 1.75-1.94 1.86-1.87 1.94-1.76 2.04-1.66 2.1-1.57 2.19-1.45 2.28-1.36 2.33-1.23 2.41-1.13 2.48-1 2.53-.89 2.6-.76 2.65-.62 2.7-.49 2.74-.36 2.79-.21 2.84-.07 2.87.07 2.89.21 2.85.36 2.79.49 2.78.62 2.7.76 2.66.89 2.61 1 2.55 1.13 2.49 1.23 2.42 1.36 2.34 1.45 2.29 1.57 2.19 1.66 2.11 1.76 2.04 1.87 1.95 1.94 1.87 2.04 1.75 2.12 1.67 2.19 1.56 2.28 1.46 2.35 1.36 2.41 1.22 2.5 1.14 2.55 1 2.6.89 2.67.75 2.7.63 2.77.49 2.8.35 2.85.21 2.89.08z"/></svg>