<svg version="1.1" id="Layer_1" xmlns="http://www.w3.org/2000/svg" x="0" y="0" viewBox="0 0 306.1 269.8" xml:space="preserve"><style>.st0{fill:#696d7d}</style><path class="st0" d="M161.04 145.55c21.19.1 40.53-17.28 40.53-38.42 0-23.12-19.34-39.1-40.53-39.1H142.8c-21.44-.01-39.09 15.98-39.09 39.1 0 21.15 17.65 38.53 39.09 38.42h18.24z"/><path d="M150.94 127.72V85.73c8.44 3.24 14.43 11.41 14.45 20.99-.02 9.59-6.01 17.75-14.45 21m-30.54-21c.02-9.58 6-17.74 14.44-20.99v41.98c-8.44-3.25-14.42-11.41-14.44-20.99m22.49-35.48c-19.59.01-35.47 15.89-35.48 35.49 0 19.6 15.88 35.47 35.48 35.48 19.6-.01 35.48-15.88 35.48-35.48 0-19.61-15.88-35.49-35.48-35.49" fill="#fff"/><path class="st0" d="M64.07 172c0 3.16 2.26 3.52 4.26 3.52 8.85 0 11.76-6.68 11.76-12.79 0-7.66-4.92-13.19-12.83-13.19-1.68 0-2.46.12-3.2.16V172zm-4.01-19.22c0-3.69-1.92-3.44-3.77-3.48v-1.07c1.6.08 3.24.08 4.84.08 1.72 0 4.06-.08 7.09-.08 10.61 0 16.39 7.09 16.39 14.34 0 4.06-2.38 14.26-16.88 14.26-2.09 0-4.02-.08-5.94-.08-1.84 0-3.65.04-5.49.08v-1.07c2.46-.25 3.65-.33 3.77-3.12v-19.86zM90.43 151.8c-1.07 0-2.01-.98-2.01-2.05 0-1.03.99-1.97 2.01-1.97 1.06 0 2.01.86 2.01 1.97 0 1.11-.91 2.05-2.01 2.05m-4.39 23.97h.78c1.14 0 1.97 0 1.97-1.36v-11.1c0-1.8-.61-2.05-2.13-2.87v-.66c1.93-.58 4.22-1.35 4.38-1.48.29-.16.53-.21.74-.21.2 0 .29.25.29.58v15.73c0 1.36.9 1.36 2.05 1.36h.69v1.07c-1.39 0-2.83-.08-4.3-.08-1.48 0-2.95.04-4.47.08v-1.06zM98.71 163.56c0-1.51-.45-1.92-2.38-2.7v-.78c1.76-.57 3.44-1.11 5.41-1.97.12 0 .24.08.24.41v2.66c2.34-1.68 4.35-3.07 7.1-3.07 3.48 0 4.71 2.54 4.71 5.74v10.57c0 1.36.9 1.36 2.05 1.36h.74v1.07c-1.44 0-2.87-.08-4.34-.08-1.48 0-2.95.04-4.43.08v-1.07h.74c1.15 0 1.96 0 1.96-1.36v-10.61c0-2.34-1.43-3.48-3.77-3.48-1.31 0-3.4 1.06-4.76 1.97v12.13c0 1.36.91 1.36 2.05 1.36h.74v1.07c-1.43 0-2.87-.08-4.35-.08-1.47 0-2.95.04-4.42.08v-1.07h.74c1.15 0 1.97 0 1.97-1.36v-10.87zM126.95 164.22c1.02 0 1.14-.53 1.14-1.02 0-2.09-1.27-3.77-3.56-3.77-2.5 0-4.22 1.84-4.71 4.79h7.13zm-7.26 1.31c-.09.37-.09.98 0 2.38.24 3.89 2.75 7.09 6.02 7.09 2.26 0 4.02-1.23 5.54-2.75l.57.57c-1.89 2.5-4.22 4.63-7.58 4.63-6.52 0-7.83-6.31-7.83-8.93 0-8.04 5.41-10.41 8.28-10.41 3.32 0 6.89 2.09 6.93 6.43 0 .25 0 .49-.04.74l-.37.25h-11.52zM132.56 175.77h1.11c1.14 0 1.96 0 1.96-1.36V162.9c0-1.27-1.52-1.52-2.13-1.84v-.61c2.99-1.27 4.63-2.34 5.01-2.34.24 0 .36.12.36.54v3.69h.09c1.02-1.6 2.74-4.22 5.24-4.22 1.03 0 2.34.7 2.34 2.17 0 1.11-.78 2.09-1.92 2.09-1.28 0-1.28-.99-2.71-.99-.7 0-2.99.94-2.99 3.4v9.63c0 1.36.82 1.36 1.97 1.36h2.29v1.07c-2.25-.04-3.97-.08-5.73-.08-1.68 0-3.4.04-4.88.08v-1.08zM148.34 171.14c.53 2.7 2.17 5 5.16 5 2.41 0 3.32-1.48 3.32-2.91 0-4.84-8.93-3.28-8.93-9.88 0-2.3 1.85-5.25 6.35-5.25 1.31 0 3.07.37 4.67 1.19l.29 4.18h-.94c-.41-2.58-1.84-4.05-4.47-4.05-1.64 0-3.2.94-3.2 2.7 0 4.8 9.51 3.32 9.51 9.75 0 2.7-2.17 5.58-7.05 5.58-1.64 0-3.57-.57-5-1.39l-.45-4.71.74-.21zM197.1 155.65h-1.02c-.78-4.79-4.18-6.72-8.77-6.72-4.72 0-11.56 3.15-11.56 12.99 0 8.28 5.91 14.22 12.21 14.22 4.06 0 7.42-2.79 8.24-7.09l.94.25-.94 5.98c-1.72 1.07-6.35 2.17-9.06 2.17-9.59 0-15.65-6.19-15.65-15.41 0-8.4 7.5-14.43 15.53-14.43 3.32 0 6.52 1.07 9.67 2.18l.41 5.86zM198.58 175.77h.78c1.15 0 1.97 0 1.97-1.36v-22.82c0-2.66-.62-2.75-2.17-3.2v-.66c1.64-.53 3.36-1.27 4.22-1.76.45-.24.78-.45.9-.45.25 0 .33.25.33.58v28.32c0 1.36.9 1.36 2.05 1.36h.69v1.07c-1.39 0-2.83-.08-4.3-.08s-2.95.04-4.47.08v-1.08zM224.89 174.58c0 .74.45.78 1.14.78.49 0 1.11-.04 1.64-.04v.86c-1.76.16-5.12 1.02-5.9 1.27l-.21-.12v-3.32c-2.46 2.01-4.34 3.44-7.26 3.44-2.21 0-4.51-1.43-4.51-4.88v-10.49c0-1.07-.16-2.09-2.46-2.29v-.78c1.48-.04 4.75-.29 5.28-.29.45 0 .45.29.45 1.19v10.57c0 1.23 0 4.75 3.56 4.75 1.39 0 3.24-1.07 4.96-2.5V161.7c0-.82-1.97-1.27-3.44-1.68v-.74c3.68-.25 5.98-.57 6.39-.57.33 0 .33.29.33.74v15.13zM233.05 172.21c0 1.56 1.47 4.18 4.22 4.18 4.39 0 6.23-4.3 6.23-7.95 0-4.42-3.36-8.11-6.55-8.11-1.52 0-2.79.99-3.89 1.93v9.95zm0-11.15c1.64-1.39 3.85-2.95 6.11-2.95 4.75 0 7.62 4.14 7.62 8.61 0 5.37-3.93 10.74-9.8 10.74-3.03 0-4.63-.98-5.7-1.43l-1.23.94-.86-.45c.36-2.42.57-4.8.57-7.3V151.6c0-2.66-.62-2.75-2.17-3.2v-.66c1.64-.53 3.36-1.27 4.22-1.76.45-.25.78-.45.9-.45.25 0 .33.25.33.58v14.95zM56.24 200.67h.31c.8 0 1.65-.11 1.65-1.27v-11.68c0-1.16-.85-1.27-1.65-1.27h-.31v-.67c.87 0 2.21.09 3.3.09 1.11 0 2.45-.09 3.5-.09v.67h-.31c-.8 0-1.65.11-1.65 1.27v11.68c0 1.16.85 1.27 1.65 1.27h.31v.67c-1.07 0-2.41-.09-3.52-.09-1.09 0-2.41.09-3.28.09v-.67z"/><path class="st0" d="M62.95 201.24v-.48h-.22c-.8 0-1.75-.14-1.75-1.37v-11.68c0-1.23.95-1.37 1.75-1.37h.22v-.47c-1.03 0-2.32.09-3.4.09-1.06 0-2.34-.08-3.2-.09v.47h.21c.8 0 1.75.14 1.75 1.37v11.68c0 1.23-.95 1.37-1.75 1.37h-.21v.48c.86-.01 2.12-.09 3.18-.09 1.08 0 2.37.09 3.42.09m.1.19c-1.08 0-2.41-.09-3.52-.09-1.09 0-2.4.09-3.28.09h-.1v-.87H56.56c.81-.02 1.55-.08 1.55-1.17v-11.68c-.01-1.09-.74-1.16-1.55-1.18h-.41v-.87h.1c.88 0 2.21.09 3.3.09 1.11 0 2.44-.09 3.5-.09h.1v.86H62.74c-.81.01-1.55.08-1.55 1.18v11.68c.01 1.09.74 1.16 1.55 1.17h.41v.86h-.1zM78.36 196.94l.05-.04v-8.36c0-1.83-1.27-2.1-1.94-2.1h-.49v-.67c1.05 0 2.08.09 3.12.09.91 0 1.83-.09 2.74-.09v.67h-.33c-.94 0-1.99.18-1.99 2.83v10.15c0 .78.02 1.56.13 2.25h-.85l-11.48-12.8v9.19c0 1.94.38 2.61 2.09 2.61h.38v.67c-.96 0-1.92-.09-2.88-.09-1 0-2.03.09-3.03.09v-.67h.31c1.54 0 2.01-1.05 2.01-2.83v-9.39c0-1.25-1.03-2-2.03-2h-.29v-.67c.85 0 1.72.09 2.56.09.67 0 1.32-.09 1.99-.09l9.93 11.16z"/><path class="st0" d="M78.31 196.9l-.02-.02.02.02zm.05.04l.07-.06-.07.06zm.45 4.63h.74c-.1-.67-.12-1.41-.12-2.15v-10.15c0-2.67 1.12-2.93 2.08-2.93h.24v-.47c-.88.01-1.76.09-2.65.09-1.02 0-2.01-.08-3.02-.09v.47h.39c.69 0 2.04.31 2.04 2.2l-.03 8.43-.05.05-.08.07-9.92-11.21c-.66 0-1.31.09-1.99.09-.82 0-1.65-.08-2.46-.09v.47h.2c1.05 0 2.12.8 2.12 2.1v9.39c0 1.78-.5 2.92-2.1 2.93l-.22-.01v.48c.97-.01 1.96-.09 2.94-.09.93 0 1.86.08 2.78.09v-.47h-.28c-1.75-.01-2.19-.77-2.19-2.71v-9.44l11.58 12.95zm.85.2l-.92-.03-11.32-12.61v8.94c.03 1.94.32 2.49 2 2.51h.48v.87h-.1c-.96 0-1.92-.09-2.88-.09-1 0-2.02.09-3.03.09h-.1v-.87H64.2c1.47-.01 1.89-.95 1.91-2.73v-9.39c0-1.19-.98-1.91-1.93-1.91h-.39v-.86h.1c.85 0 1.72.09 2.56.09.66 0 1.31-.09 2.06-.05l9.8 11.03v-8.2c-.01-1.77-1.19-1.99-1.84-2h-.59v-.86h.1c1.05 0 2.08.09 3.12.09.91 0 1.82-.09 2.74-.09h.1v.86H81.51c-.92.02-1.86.11-1.89 2.73v10.15c0 .78.02 1.55.13 2.23l.02.11h-.11zM85.18 186.89c-1.67 0-1.74.4-2.07 2.03h-.67c.09-.62.2-1.25.27-1.9.09-.62.13-1.25.13-1.89h.53c.18.67.74.64 1.34.64h11.5c.6 0 1.16-.02 1.21-.69l.53.09c-.09.6-.18 1.2-.24 1.81-.04.6-.04 1.21-.04 1.81l-.67.24c-.05-.83-.16-2.14-1.65-2.14H91.7v11.86c0 1.72.78 1.92 1.85 1.92h.43v.67c-.87 0-2.43-.09-3.63-.09-1.34 0-2.9.09-3.77.09v-.67h.43c1.23 0 1.85-.11 1.85-1.87v-11.91h-3.68z"/><path class="st0" d="M93.97 201.43c-.88 0-2.44-.09-3.64-.09-1.34 0-2.9.09-3.77.09h-.09v-.86h.51c1.23-.03 1.72-.04 1.75-1.77v-11.81h-3.56v-.2h3.75v12.01c0 1.79-.72 1.97-1.95 1.97h-.33v.47c.88 0 2.38-.09 3.67-.09 1.16 0 2.65.08 3.54.09v-.47h-.33c-1.08 0-1.94-.27-1.94-2.02v-11.96h3.75c1.5 0 1.69 1.28 1.74 2.11l.48-.18c0-.58 0-1.16.04-1.75.06-.57.15-1.14.23-1.71l-.34-.06c-.1.65-.73.68-1.29.68H84.6c-.52 0-1.1-.02-1.3-.65h-.37c0 .62-.05 1.21-.13 1.81-.06.61-.17 1.2-.25 1.79h.48c.29-1.55.49-2.06 2.15-2.03v.2c-1.65.03-1.61.31-1.98 1.96l-.02.08h-.86l.01-.12c.09-.62.2-1.25.27-1.9.09-.62.13-1.24.13-1.88v-.1h.71l.02.07c.15.56.56.57 1.13.58h11.62c.62-.01 1.07-.02 1.11-.6l.01-.1.1.02.63.1-.01.1c-.09.6-.18 1.2-.24 1.8-.04.6-.04 1.2-.04 1.8v.07l-.06.03-.79.29-.01-.13c-.06-.84-.15-2.05-1.56-2.05h-3.56v11.77c.02 1.68.69 1.8 1.75 1.82h.52v.87h-.09zM98.67 200.67h.31c.8 0 1.65-.11 1.65-1.27v-11.68c0-1.16-.85-1.27-1.65-1.27h-.31v-.67c1.36 0 3.68.09 5.55.09 1.88 0 4.19-.09 5.71-.09-.04.96-.02 2.43.05 3.41l-.67.18c-.11-1.45-.37-2.61-2.72-2.61h-3.1v5.84h2.65c1.34 0 1.63-.76 1.76-1.96h.67c-.04.87-.07 1.74-.07 2.61 0 .85.02 1.69.07 2.54l-.67.13c-.13-1.34-.2-2.21-1.74-2.21h-2.67v5.19c0 1.45 1.29 1.45 2.72 1.45 2.68 0 3.86-.18 4.53-2.72l.62.15c-.29 1.19-.56 2.36-.76 3.55-1.43 0-3.99-.09-6-.09s-4.66.09-5.93.09v-.66z"/><path class="st0" d="M110.52 201.24c.19-1.13.45-2.25.72-3.38l-.44-.11c-.67 2.5-1.96 2.72-4.59 2.7-1.4 0-2.81 0-2.82-1.55v-5.29h2.77c1.56-.02 1.71.92 1.83 2.19l.48-.1c-.04-.82-.06-1.64-.06-2.46 0-.84.02-1.67.06-2.52h-.48c-.12 1.16-.49 1.98-1.85 1.96h-2.75v-6.04h3.2c2.32-.02 2.71 1.18 2.8 2.58l.48-.13c-.04-.63-.06-1.44-.06-2.18 0-.38.01-.74.02-1.06-1.52 0-3.77.09-5.61.09-1.83 0-4.09-.08-5.45-.09v.47h.22c.79 0 1.74.14 1.75 1.37v11.68c0 1.23-.95 1.36-1.75 1.37h-.22v.47c1.3 0 3.88-.09 5.84-.09 1.96.03 4.47.12 5.91.12m.08.19c-1.43 0-4-.09-6-.09-2.01 0-4.66.09-5.93.09h-.09v-.86h.4c.81-.01 1.54-.08 1.55-1.17v-11.68c-.01-1.09-.74-1.16-1.55-1.18h-.41v-.86h.09c1.36 0 3.68.09 5.55.09 1.88 0 4.19-.09 5.71-.09h.1v.1c-.02.34-.02.73-.02 1.15 0 .77.02 1.61.07 2.25v.08l-.07.02-.78.2-.01-.11c-.13-1.45-.33-2.5-2.62-2.52h-3v5.64h2.56c1.28-.01 1.51-.67 1.66-1.87l.01-.09h.86v.1c-.04.87-.07 1.74-.07 2.61 0 .84.03 1.69.07 2.54v.08l-.08.02-.78.15-.01-.1c-.15-1.36-.16-2.11-1.64-2.13h-2.58v5.1c0 1.35 1.17 1.35 2.62 1.35 2.68-.02 3.76-.15 4.43-2.65l.02-.09.09.02.72.18-.02.09c-.29 1.18-.56 2.36-.76 3.54l-.02.08h-.07zM117.23 193.31h1.09c2.23 0 3.43-.85 3.43-3.48 0-1.98-1.27-3.25-3.26-3.25-.67 0-.95.07-1.27.09v6.64zm-2.86-5.18c0-1.63-.89-1.69-1.58-1.69h-.4v-.67c.71 0 2.1.09 3.46.09 1.34 0 2.41-.09 3.59-.09 2.81 0 5.31.76 5.31 3.93 0 2-1.34 3.23-3.1 3.92l3.81 5.7c.63.94 1.07 1.21 2.16 1.34v.67c-.74 0-1.45-.09-2.19-.09-.69 0-1.41.09-2.1.09-1.72-2.25-3.19-4.66-4.64-7.23h-1.47v4.77c0 1.72.8 1.78 1.82 1.78h.4v.67c-1.27 0-2.56-.09-3.84-.09-1.07 0-2.12.09-3.23.09v-.67h.4c.83 0 1.58-.37 1.58-1.2v-11.32z"/><path class="st0" d="M118.31 193.21c2.21-.02 3.32-.78 3.34-3.38-.01-1.95-1.22-3.16-3.16-3.16-.6 0-.89.05-1.17.08v6.46h.99zm-1.09.19h-.1v-6.83l.09-.01c.3-.02.61-.08 1.28-.08 2.03 0 3.35 1.32 3.36 3.35-.01 2.66-1.28 3.57-3.53 3.57h-1.1zm0 .62h1.52l.03.05c1.45 2.56 2.92 4.97 4.56 7.18.68 0 1.4-.09 2.09-.09.71 0 1.4.08 2.09.09v-.49c-1.05-.13-1.54-.44-2.15-1.37l-3.88-5.81.11-.04c1.74-.69 3.04-1.88 3.04-3.84 0-3.09-2.41-3.81-5.21-3.83-1.18 0-2.25.09-3.59.09-1.31 0-2.63-.08-3.36-.09v.47h.31c.69 0 1.68.12 1.68 1.79v11.33c0 .9-.84 1.3-1.68 1.3h-.31v.47c1.07 0 2.09-.09 3.14-.09 1.25 0 2.5.08 3.74.09v-.47h-.3c-1.02 0-1.92-.13-1.92-1.89V194h.09zm10.4 7.41c-.75 0-1.46-.09-2.19-.09-.68 0-1.39.09-2.17.05-1.71-2.24-3.18-4.64-4.62-7.19h-1.32v4.67c.02 1.68.7 1.66 1.73 1.69h.5v.87h-.1c-1.27 0-2.57-.09-3.83-.09-1.06 0-2.11.09-3.23.09h-.1v-.87h.5c.8-.01 1.48-.35 1.48-1.11v-11.33c-.02-1.58-.79-1.57-1.48-1.6h-.5v-.87h.1c.72 0 2.1.09 3.46.09 1.33 0 2.4-.09 3.59-.09 2.81.01 5.4.78 5.41 4.02 0 2.01-1.33 3.27-3.05 3.97l3.75 5.61c.62.93 1.01 1.16 2.1 1.3l.08.01v.85h-.11zM142.76 196.94l.04-.04v-8.36c0-1.83-1.27-2.1-1.94-2.1h-.49v-.67c1.05 0 2.07.09 3.12.09.92 0 1.83-.09 2.75-.09v.67h-.34c-.94 0-1.99.18-1.99 2.83v10.15c0 .78.02 1.56.13 2.25h-.85l-11.48-12.8v9.19c0 1.94.38 2.61 2.1 2.61h.38v.67c-.96 0-1.92-.09-2.87-.09-1.01 0-2.03.09-3.03.09v-.67h.31c1.54 0 2.01-1.05 2.01-2.83v-9.39c0-1.25-1.03-2-2.03-2h-.29v-.67c.84 0 1.72.09 2.56.09.67 0 1.31-.09 1.98-.09l9.93 11.16z"/><path class="st0" d="M142.7 196.9l-.02-.02.02.02zm.05.04l.07-.06-.07.06zm.45 4.63h.73c-.1-.67-.12-1.41-.12-2.15v-10.15c0-2.67 1.13-2.92 2.08-2.93h.23v-.47c-.88.01-1.76.09-2.64.09-1.02 0-2.02-.08-3.03-.09v.47h.4c.69.01 2.04.31 2.04 2.19l-.03 8.43-.04.05-.07.07-9.92-11.22c-.66 0-1.31.09-1.98.09-.83 0-1.66-.08-2.47-.09v.47h.2c1.05.01 2.12.8 2.12 2.1v9.39c0 1.79-.5 2.93-2.1 2.94h-.22v.47c.97 0 1.96-.09 2.94-.09.93 0 1.86.08 2.78.09v-.47h-.28c-1.76 0-2.19-.77-2.2-2.71v-9.43l11.58 12.95zm.85.2l-.92-.03-11.32-12.61v8.94c.03 1.94.32 2.49 2 2.51h.47v.87h-.1c-.97 0-1.92-.09-2.88-.09-1 0-2.03.09-3.03.09h-.1v-.86H128.58c1.47-.01 1.9-.95 1.91-2.74v-9.39c0-1.19-.97-1.91-1.93-1.91h-.39v-.87h.1c.85 0 1.72.09 2.56.09.65 0 1.3-.09 2.05-.06l9.8 11.04v-8.2c-.01-1.77-1.19-1.99-1.84-2h-.59v-.87h.1c1.05 0 2.08.09 3.12.09.91 0 1.82-.09 2.74-.09h.1v.86H145.88c-.92.02-1.87.11-1.89 2.73v10.15c0 .78.02 1.55.13 2.24l.01.11h-.08zM153.08 188.27h-.05l-2.07 6.31h4.17l-2.05-6.31zm-3.26 9.88c-.23.76-.5 1.34-.5 1.74 0 .67.94.78 1.67.78h.25v.67c-.89-.05-1.81-.09-2.7-.09-.8 0-1.6.04-2.41.09v-.67h.14c.87 0 1.61-.51 1.94-1.45l3.57-10.23c.29-.83.69-1.94.83-2.77.71-.24 1.6-.69 2.03-.96.07-.02.11-.05.18-.05.07 0 .11 0 .16.07.07.18.13.38.2.56l4.1 11.66c.27.78.53 1.61.82 2.28.27.62.74.89 1.48.89h.13v.67c-1-.05-2.01-.09-3.08-.09-1.09 0-2.21.04-3.35.09v-.67h.25c.51 0 1.38-.09 1.38-.64 0-.29-.2-.89-.45-1.61l-.87-2.58h-5.06l-.71 2.31z"/><path class="st0" d="M152.98 188.3l.05-.02-.05.02zm-1.89 6.18h3.9l-1.94-5.97-1.96 5.97zm-.27.2l2.14-6.51H153.08v.1l-.02.01.02-.01v-.1h.07l2.12 6.51h-4.45zm4.56 6.55c1.1-.04 2.19-.08 3.25-.08 1.04 0 2.01.04 2.98.08v-.47h-.03c-.76.01-1.29-.29-1.56-.95-.29-.68-.56-1.5-.82-2.28l-4.1-11.66c-.07-.18-.13-.38-.19-.54-.02-.02-.01-.02-.03-.02h-.04c-.05 0-.07.01-.13.03-.43.28-1.32.72-1.98.89-.14.84-.54 1.96-.83 2.78l-3.57 10.23c-.34.97-1.12 1.52-2.03 1.52h-.03v.47c.76-.04 1.54-.08 2.31-.08.86 0 1.74.04 2.59.08v-.47H151c-.73-.01-1.74-.09-1.77-.88 0-.45.27-1.02.49-1.77l.1.03-.1-.03.73-2.38h5.2l.9 2.65c.25.72.45 1.31.45 1.64-.03.68-.97.73-1.48.74h-.15v.47zm6.32.2c-1-.04-2.01-.09-3.07-.09-1.09 0-2.2.05-3.34.09h-.1v-.87H155.53c.52 0 1.28-.12 1.28-.54.01-.25-.2-.87-.44-1.58l-.85-2.52h-4.92l-.69 2.25c-.23.76-.49 1.35-.49 1.71.01.54.84.68 1.58.68h.34v.87h-.1c-.89-.04-1.8-.09-2.69-.09-.8 0-1.6.05-2.4.09h-.1v-.87h.23c.83 0 1.52-.47 1.85-1.38l3.57-10.24c.29-.83.69-1.94.89-2.83.7-.24 1.59-.69 2.02-.96.06-.02.12-.05.21-.05.05 0 .17.01.25.13.06.18.13.38.2.56l4.11 11.66c.26.78.53 1.61.82 2.27.26.6.67.83 1.38.83h.23v.87l-.11.01zM162.69 186.89c-1.67 0-1.74.4-2.07 2.03h-.67c.09-.62.2-1.25.27-1.9.09-.62.13-1.25.13-1.89h.54c.18.67.74.64 1.34.64h11.51c.6 0 1.16-.02 1.2-.69l.54.09c-.09.6-.18 1.2-.24 1.81-.05.6-.05 1.21-.05 1.81l-.67.25c-.04-.83-.15-2.14-1.65-2.14h-3.66v11.86c0 1.72.78 1.92 1.85 1.92h.42v.67c-.87 0-2.43-.09-3.64-.09-1.34 0-2.9.09-3.77.09v-.67h.42c1.23 0 1.85-.11 1.85-1.87V186.9h-3.65z"/><path class="st0" d="M171.47 201.43c-.88 0-2.44-.09-3.64-.09-1.33 0-2.89.09-3.77.09h-.1v-.86h.52c1.23-.03 1.72-.04 1.75-1.77v-11.81h-3.55v-.2h3.75v12.01c0 1.79-.72 1.96-1.95 1.97h-.33v.48c.88-.01 2.38-.09 3.67-.09 1.17 0 2.66.08 3.54.09v-.48h-.33c-1.07 0-1.94-.26-1.94-2.02v-11.96h3.75c1.5 0 1.69 1.28 1.74 2.11l.49-.18c0-.58 0-1.16.05-1.75.06-.57.14-1.14.23-1.71l-.34-.06c-.1.65-.73.68-1.29.68H162.1c-.52 0-1.09-.02-1.3-.65h-.36c-.01.62-.05 1.22-.14 1.81-.06.61-.17 1.2-.25 1.79h.48c.29-1.55.49-2.06 2.16-2.03v.2c-1.65.03-1.62.31-1.98 1.96l-.02.08h-.86l.01-.11c.09-.63.2-1.25.27-1.9.09-.62.13-1.24.13-1.88v-.1h.71l.02.07c.15.56.56.57 1.13.58h11.62c.61-.01 1.07-.02 1.1-.6l.01-.11.1.02.63.1-.02.1c-.09.6-.18 1.2-.24 1.8-.05.6-.05 1.2-.05 1.8v.07l-.06.03-.79.29v-.13c-.06-.84-.15-2.05-1.56-2.05h-3.56v11.77c.02 1.68.69 1.8 1.75 1.82h.52v.87h-.08zM176.28 200.67h.31c.81 0 1.65-.11 1.65-1.27v-11.68c0-1.16-.84-1.27-1.65-1.27h-.31v-.67c.87 0 2.21.09 3.3.09 1.12 0 2.46-.09 3.51-.09v.67h-.31c-.8 0-1.65.11-1.65 1.27v11.68c0 1.16.85 1.27 1.65 1.27h.31v.67c-1.07 0-2.41-.09-3.52-.09-1.09 0-2.41.09-3.28.09v-.67z"/><path class="st0" d="M182.99 201.24v-.47h-.21c-.8 0-1.75-.14-1.75-1.37v-11.68c0-1.23.95-1.37 1.75-1.37h.21v-.47c-1.03 0-2.32.09-3.4.09-1.06 0-2.34-.08-3.2-.09v.47h.21c.79 0 1.74.14 1.75 1.37v11.68c0 1.23-.95 1.37-1.75 1.37h-.21v.47c.86-.01 2.12-.09 3.18-.09 1.07 0 2.36.08 3.42.09m.1.19c-1.08 0-2.41-.09-3.52-.09-1.09 0-2.41.09-3.28.09h-.1v-.86H176.6c.81-.01 1.55-.08 1.55-1.17v-11.68c0-1.09-.74-1.16-1.55-1.18h-.41v-.86h.1c.87 0 2.21.09 3.3.09 1.11 0 2.45-.09 3.5-.09h.09v.86h-.4c-.82.01-1.55.09-1.56 1.18v11.68c.01 1.09.74 1.16 1.56 1.17h.41v.87h-.1zM192.32 200.69c4.33 0 5.08-3.82 5.08-7.07 0-3.26-1.76-7.21-5.46-7.21-3.9 0-5.06 3.48-5.06 6.47-.01 4 1.82 7.81 5.44 7.81m-.34-15.25c4.75 0 8.54 2.95 8.54 7.7 0 5.13-3.68 8.54-8.43 8.54-4.73 0-8.34-3.21-8.34-8.01 0-4.64 3.59-8.23 8.23-8.23"/><path class="st0" d="M186.78 192.88c.01-3 1.18-6.56 5.16-6.56 3.79.01 5.55 4.03 5.56 7.3-.01 3.25-.77 7.16-5.18 7.16v-.19c4.24 0 4.98-3.72 4.99-6.97 0-3.23-1.74-7.1-5.37-7.11-3.83 0-4.96 3.4-4.97 6.37 0 3.97 1.81 7.7 5.35 7.71v.19c-3.7 0-5.54-3.88-5.54-7.9m-3.13.79c.01-4.69 3.64-8.32 8.33-8.33v.2c-4.59 0-8.13 3.55-8.14 8.13.01 4.74 3.57 7.9 8.25 7.91 4.7 0 8.33-3.36 8.34-8.44 0-4.69-3.73-7.59-8.45-7.6v-.2c4.79 0 8.63 2.98 8.64 7.79 0 5.18-3.73 8.63-8.52 8.64-4.78-.01-8.44-3.25-8.45-8.1M215.55 196.94l.05-.04v-8.36c0-1.83-1.28-2.1-1.94-2.1h-.48v-.67c1.04 0 2.07.09 3.12.09.92 0 1.83-.09 2.75-.09v.67h-.34c-.93 0-1.99.18-1.99 2.83v10.15c0 .78.02 1.56.14 2.25H216l-11.49-12.8v9.19c0 1.94.38 2.61 2.1 2.61h.38v.67c-.96 0-1.92-.09-2.87-.09-1 0-2.03.09-3.04.09v-.67h.32c1.54 0 2-1.05 2-2.83v-9.39c0-1.25-1.02-2-2.03-2h-.29v-.67c.85 0 1.72.09 2.57.09.67 0 1.31-.09 1.98-.09l9.92 11.16z"/><path class="st0" d="M215.5 196.9l-.02-.02.02.02zm.05.04l.07-.06-.07.06zm.45 4.63h.73c-.1-.67-.11-1.41-.11-2.15v-10.15c0-2.68 1.13-2.92 2.08-2.93h.24v-.47c-.88.01-1.76.09-2.65.09-1.02 0-2.01-.08-3.02-.09v.47h.39c.69.01 2.04.31 2.04 2.2l-.02 8.43-.04.05-.07.07-9.92-11.22c-.66 0-1.31.09-1.98.09-.82 0-1.66-.08-2.47-.09v.47h.2c1.05.01 2.12.8 2.12 2.1v9.39c0 1.78-.5 2.92-2.1 2.93h-.22v.47c.97 0 1.96-.09 2.94-.09.93 0 1.85.08 2.78.09v-.47h-.29c-1.75 0-2.19-.77-2.19-2.71v-9.44L216 201.57zm.84.2l-.92-.03-11.32-12.61v8.94c.03 1.94.32 2.49 2 2.51h.48v.86h-.1c-.96 0-1.92-.09-2.88-.09-1 0-2.02.09-3.04.09h-.09v-.87H201.38c1.47 0 1.89-.95 1.91-2.73v-9.39c0-1.19-.97-1.91-1.93-1.91h-.38v-.86h.09c.85 0 1.72.09 2.57.09.66 0 1.3-.09 2.06-.05l9.8 11.03v-8.2c-.01-1.77-1.19-1.99-1.85-2h-.59v-.86h.1c1.05 0 2.08.09 3.12.09.91 0 1.82-.09 2.75-.09h.1v.86H218.69c-.92.02-1.87.11-1.89 2.73v10.15c0 .78.02 1.55.13 2.24l.02.11h-.11zM225.87 188.27h-.05l-2.08 6.31h4.17l-2.04-6.31zm-3.26 9.88c-.22.76-.49 1.34-.49 1.74 0 .67.94.78 1.67.78h.25v.67c-.89-.05-1.81-.09-2.7-.09-.8 0-1.6.04-2.4.09v-.67h.13c.87 0 1.61-.51 1.94-1.45l3.57-10.23c.29-.83.69-1.94.82-2.77.71-.24 1.61-.69 2.03-.96.06-.02.11-.05.18-.05.07 0 .11 0 .15.07.07.18.14.38.2.56l4.1 11.66c.27.78.53 1.61.83 2.28.27.62.74.89 1.47.89h.14v.67c-1-.05-2.01-.09-3.08-.09-1.09 0-2.21.04-3.34.09v-.67h.25c.51 0 1.38-.09 1.38-.64 0-.29-.2-.89-.45-1.61l-.87-2.58h-5.06l-.72 2.31z"/><path class="st0" d="M225.78 188.3l.04-.02-.04.02zm-1.89 6.18h3.9l-1.94-5.97-1.96 5.97zm-.27.2l2.14-6.5H225.88v.1l-.02.01.02-.01v-.1h.07l2.11 6.5h-4.44zm4.55 6.56c1.1-.04 2.19-.08 3.25-.08 1.04 0 2.01.04 2.98.08v-.47h-.04c-.76 0-1.28-.29-1.56-.95-.29-.68-.56-1.5-.83-2.28l-4.1-11.66c-.07-.18-.13-.38-.19-.53-.02-.03-.02-.03-.03-.03h-.04c-.05 0-.07.02-.13.03-.43.27-1.33.72-1.99.89-.14.84-.54 1.96-.83 2.78l-3.57 10.23c-.34.97-1.12 1.52-2.03 1.52h-.03v.47c.77-.04 1.53-.08 2.31-.08.86 0 1.74.04 2.6.08v-.47h-.15c-.73-.01-1.74-.09-1.77-.88 0-.44.28-1.01.5-1.77l.09.03-.09-.03.74-2.38h5.2l.89 2.65c.25.72.45 1.31.45 1.64-.03.68-.97.73-1.48.74h-.15v.47zm6.32.19c-1-.04-2.01-.09-3.07-.09-1.09 0-2.2.05-3.34.09h-.1v-.87H228.32c.52 0 1.29-.12 1.29-.55 0-.25-.2-.86-.44-1.58l-.85-2.52h-4.92l-.69 2.25c-.22.76-.49 1.35-.49 1.71 0 .55.84.68 1.57.68h.34v.87h-.1c-.89-.04-1.8-.09-2.69-.09-.8 0-1.6.05-2.4.09h-.1v-.87h.23c.83 0 1.53-.48 1.85-1.38l3.57-10.24c.29-.83.69-1.94.89-2.83.7-.24 1.6-.69 2.03-.96.06-.02.12-.05.21-.05.06-.01.18.01.24.13.07.17.13.38.21.56l4.1 11.66c.27.78.53 1.61.82 2.27.26.59.67.83 1.38.83h.23v.87l-.11.02zM240.12 199.15c0 .89.62 1.16 1.33 1.25.91.07 1.92.07 2.95-.05.93-.11 1.74-.64 2.14-1.2.36-.49.56-1.12.69-1.61h.65c-.25 1.27-.56 2.52-.83 3.79-1.96 0-3.93-.09-5.88-.09-1.97 0-3.93.09-5.89.09v-.67h.31c.81 0 1.68-.11 1.68-1.49v-11.46c0-1.16-.87-1.27-1.68-1.27h-.31v-.67c1.18 0 2.34.09 3.52.09 1.14 0 2.25-.09 3.39-.09v.67h-.56c-.85 0-1.51.02-1.51 1.2v11.51z"/><path class="st0" d="M246.97 201.24c.26-1.21.55-2.39.79-3.6h-.46c-.14.48-.34 1.08-.69 1.57-.42.58-1.24 1.12-2.21 1.24-.58.06-1.16.09-1.71.09-.43 0-.85-.02-1.25-.05-.73-.08-1.43-.39-1.43-1.34v-11.51c0-1.24.79-1.3 1.61-1.3h.46v-.47c-1.1 0-2.18.09-3.29.09-1.16 0-2.28-.08-3.43-.09v.47h.21c.8 0 1.77.14 1.77 1.37v11.46c0 1.44-.97 1.59-1.77 1.59h-.21v.47c1.93 0 3.86-.09 5.79-.09 1.96.01 3.89.1 5.82.1m.08.19c-1.97 0-3.93-.09-5.89-.09-1.96 0-3.93.09-5.89.09h-.09v-.87h.4c.81-.02 1.57-.07 1.58-1.4V187.7c-.01-1.09-.77-1.16-1.58-1.17h-.41v-.86h.09c1.19 0 2.35.09 3.53.09 1.13 0 2.25-.09 3.39-.09h.09v.86h-.65c-.86.02-1.4-.02-1.42 1.11v11.51c.01.83.55 1.05 1.25 1.15.39.03.81.04 1.24.04.55 0 1.11-.03 1.69-.09.91-.11 1.69-.63 2.08-1.16.34-.47.54-1.09.67-1.57l.02-.07H247.99l-.02.12c-.25 1.28-.56 2.52-.83 3.79l-.02.08h-.07zM247.23 187.49h.28c.3 0 .44-.23.44-.6s-.22-.51-.46-.51h-.26v1.11zm-.79 1.24v-.12c.29-.04.34-.03.34-.21v-1.74c0-.24-.03-.33-.33-.31v-.12h1.2c.41 0 .79.2.79.62 0 .35-.23.61-.55.71l.39.54c.18.24.38.47.52.55v.08h-.46c-.22 0-.41-.46-.84-1.08h-.26v.78c0 .15.05.14.34.19v.12h-1.14zm1.17.67c1.05 0 1.86-.89 1.86-1.9 0-1.01-.79-1.92-1.86-1.92-1.05 0-1.86.9-1.86 1.92-.01 1 .8 1.9 1.86 1.9m0-4.26c1.34 0 2.35 1.03 2.35 2.36 0 1.32-1 2.34-2.35 2.34-1.34 0-2.35-1.02-2.35-2.34 0-1.33 1-2.36 2.35-2.36"/></svg>