<svg id="Layer_1" data-name="Layer 1" xmlns="http://www.w3.org/2000/svg" viewBox="0 0 306.1 269.8"><defs><style>.cls-4,.cls-5{fill:#fff}.cls-4{fill-rule:evenodd}</style></defs><path d="M112 86.69h41c5.72 0 9.29 4.67 7.95 10.42l-19.1 82c-1.35 5.73-7.08 10.4-12.81 10.4H88c-5.72 0-9.29-4.67-8-10.4l19.11-82c1.41-5.75 7.15-10.42 12.89-10.42z" fill="#696d7d"/><path d="M149.6 86.69h47.18c5.73 0 3.15 4.67 1.8 10.42l-19.1 82c-1.34 5.73-.92 10.4-6.66 10.4h-47.18c-5.74 0-9.29-4.67-7.94-10.4l19.1-82c1.35-5.75 7.07-10.42 12.8-10.42z" fill="#878a97"/><path d="M194.91 86.69h41c5.73 0 9.3 4.67 7.95 10.42l-19.1 82c-1.35 5.73-7.09 10.4-12.82 10.4H171c-5.74 0-9.29-4.67-8-10.4l19.1-82c1.35-5.75 7.07-10.42 12.81-10.42z" fill="#a5a7b1"/><path class="cls-4" d="M188.06 163.83h3.87l1.11-3.72h-3.86zm3.09-10.27l-1.32 4.44a20 20 0 012.25-1c.8-.18 2-.33 2-.33l.94-3.09h-3.88m1.93-6.32l-1.29 4.23a22.78 22.78 0 012.23-.87 12.51 12.51 0 012-.28l.92-3.08h-3.85m8.55 0l-5 16.55H198l-1 3.42h-1.4l-.32 1h-4.76l.32-1h-9.66l1-3.17h1l5.07-16.8 1-3.39h4.85l-.5 1.71a9.09 9.09 0 012.52-1.25c1.22-.32 8.25-.44 8.25-.44l-1 3.37h-1.66"/><path class="cls-5" d="M203.77 143.87H209v1.93c0 .33.25.48.85.48h1.06l-1 3.19h-2.8c-2.42.17-3.34-.87-3.28-2zM204.46 159h-4.94l.85-2.83H206l.8-2.6h-5.58l.95-3.2h15.53l-1 3.2h-5.2l-.82 2.6h5.22l-.86 2.83h-5.64l-1 1.2h2.29l.56 3.57a1.75 1.75 0 00.18.74 2.85 2.85 0 001.21.2h.69l-1.06 3.47h-3a3.41 3.41 0 01-1.25-.54 1.64 1.64 0 01-.92-1.21l-.55-3.56-2.55 3.46a4.37 4.37 0 01-3.78 2h-3.58l.94-3.11H199a2.23 2.23 0 001-.28 1.55 1.55 0 00.76-.64zM150.37 151.22h13.08l-1 3.12h-5.23l-.82 2.66h5.35l-1 3.22h-5.34l-1.3 4.33c-.16.48 1.27.54 1.78.54l2.68-.37-1.08 3.57h-6a5.71 5.71 0 01-1.37-.19 1.41 1.41 0 01-1-.7 1.35 1.35 0 01-.33-1.4l1.73-5.72h-3l1-3.28h3l.79-2.66h-3zM159.17 145.61h5.37l-1 3.27h-7.33l-.79.68c-.35.34-.46.2-.91.44a5.4 5.4 0 01-2.41.62h-2.35l.95-3.13h.71a2.58 2.58 0 001.21-.19 2.82 2.82 0 00.78-1l1.36-2.45h5.33z"/><path class="cls-4" d="M169.46 151a8.43 8.43 0 014-1.77c.58-.11 4.13-.07 4.13-.07l.55-1.8h-7.55zm7.08 1.36h-7.48l-.47 1.51h6.49a4.49 4.49 0 011 0l.47-1.5m-9.7-8.47h4.57l-.67 2.3a13.89 13.89 0 012.46-1.57 23.15 23.15 0 013.28-.7l7.4-.05-2.52 8.4a10 10 0 01-1.23 2.79 3.27 3.27 0 01-1.25 1.14 4.5 4.5 0 01-1.71.58c-.49 0-1.24.05-2.28.07h-7.13l-2 6.63c-.19.66-.28 1-.16 1.15a.82.82 0 00.68.34l3.15-.3-1.08 3.64h-3.51c-1.12 0-1.94 0-2.51-.07a2.93 2.93 0 01-1.49-.29c-.32-.29-.82-.67-.81-1.06a13 13 0 01.41-1.78l6.4-21.22"/><path class="cls-5" d="M180.17 157.41l-.43 2a2.66 2.66 0 01-.81 1.5 3.28 3.28 0 01-2.46.88l-2.54.1v2.28c0 .64.14.58.24.68a1 1 0 00.33.21l.81-.05 2.42-.13-1 3.32h-2.79c-1.94 0-3.39-.05-3.85-.42s-.54-.67-.53-1.31l.18-8.88h4.44l-.06 1.82h1.06a1.46 1.46 0 00.77-.14.79.79 0 00.3-.46l.44-1.42zM116.84 112.88c-.15.73-3 13.86-3 13.87-.61 2.66-1.06 4.55-2.57 5.77a4.54 4.54 0 01-3 1.06 2.79 2.79 0 01-3.14-2.69v-.61s.57-3.56.57-3.58 3-12 3.53-13.55v-.18c-5.82 0-6.85 0-6.92-.09 0 .13-.18.87-.18.87l-3 13.49-.27 1.14-.5 3.75a5.55 5.55 0 00.65 2.78c1.39 2.43 5.35 2.79 7.6 2.79A14.74 14.74 0 00114 136c3.18-1.88 4-4.82 4.75-7.43l.35-1.34s3.08-12.43 3.6-14a1.06 1.06 0 010-.18 44 44 0 01-5.86-.17zM133.87 137.57c-2.06 0-2.79 0-5.2.09l-.09-.18c.21-.92.43-1.82.64-2.75l.3-1.26c.44-1.95.88-4.22.93-4.91 0-.42.19-1.46-1-1.46a3.92 3.92 0 00-1.56.49c-.29 1-.87 4-1.15 5.29-.6 2.8-.64 3.12-.91 4.5l-.17.19c-2.12 0-2.87 0-5.31.09l-.11-.21c.41-1.66.81-3.34 1.2-5a68.67 68.67 0 001.55-8.54l.2-.13c2.39-.34 3-.41 5.55-.93l.22.24-.4 1.44c.44-.26.86-.53 1.3-.75a8.09 8.09 0 013.32-.78 2.82 2.82 0 012.89 1.63c.49 1.16.16 2.6-.48 5.43l-.33 1.44c-.67 3.15-.77 3.72-1.15 5.88zM142.26 137.57h-2.83c-.77 0-1.54.05-2.69.1l-.07-.1-.07-.11a21.06 21.06 0 01.64-2 13.46 13.46 0 00.59-2.06c.36-1.58.59-2.68.73-3.65s.26-1.73.39-2.65l.05-.1.1-.09 2.83-.42c.81-.11 1.62-.27 2.91-.52V126.2q-.36 1.45-.72 2.94c-.22 1-.47 2-.68 3-.47 2.08-.65 2.85-.76 3.42s-.14.81-.32 1.88l-.12.1zM155.38 130.24a10.85 10.85 0 01-1.2 3.37 2 2 0 01-1.54 1c-.17 0-1.2 0-1.21-1.52a10.14 10.14 0 01.33-2.35c.54-2.4 1.18-4.41 2.82-4.41 1.28 0 1.42 1.5.8 3.91zm5.41.22c.72-3.17.16-4.65-.55-5.55-1.07-1.38-3-1.82-4.94-1.82a9.1 9.1 0 00-6.21 2.15 10.14 10.14 0 00-2.75 5.36c-.44 1.94-1 5.44 2.26 6.74a9.53 9.53 0 003.34.54 8.77 8.77 0 006.59-2.57 11.66 11.66 0 002.26-4.85M211.24 137.78c-2.5 0-3.21 0-5.51.08l-.15-.19c.62-2.36 1.25-4.72 1.81-7.12a53.06 53.06 0 001.12-6.24l.19-.15c2.47-.35 3.16-.46 5.73-.93l.08.21-1.4 5.86c-.94 4.09-1.28 6.17-1.65 8.31z"/><path class="cls-5" d="M207.5 130.51a11.93 11.93 0 01-1.23 3.36 2.85 2.85 0 01-2 1c-.16 0-1.17 0-1.21-1.5a10.17 10.17 0 01.34-2.34c.55-2.36 1.18-4.36 2.82-4.36 1.28-.03 1.83 1.42 1.28 3.84zm4.92.23c.72-3.15-2.2-.28-2.66-1.32-.71-1.62-.27-4.91-3.13-6-1.1-.44-3.69.12-5.91 2.15a10 10 0 00-2.74 5.32c-.45 1.91-1 5.41 2.24 6.66a6.23 6.23 0 002.86.51c3.21-.17 5.66-5 7.48-7 1.4-1.52 1.64.57 1.86-.36M174.88 137.57c-2.07 0-2.77 0-5.19.09l-.09-.18c.21-.92.44-1.82.66-2.75l.28-1.26c.45-1.95.88-4.22.93-4.91 0-.42.19-1.46-1-1.46a3.87 3.87 0 00-1.56.49c-.28 1-.88 4-1.17 5.29-.57 2.8-.62 3.12-.88 4.5l-.18.19c-2.12 0-2.85 0-5.3.09l-.11-.21c.4-1.66.81-3.34 1.2-5a72.75 72.75 0 001.55-8.54l.18-.13c2.39-.34 3-.41 5.56-.93l.2.24-.37 1.44c.42-.26.86-.53 1.29-.75a8.05 8.05 0 013.32-.78 2.83 2.83 0 012.89 1.63c.49 1.16.16 2.6-.49 5.43l-.33 1.44c-.68 3.15-.77 3.72-1.14 5.88zM192.76 112.86h-1.72c-4.46.05-6.25 0-7 0-.06.32-.18.9-.18.9s-1.6 7.41-1.6 7.42l-4 16.49h6.16c.15-.74 1.06-5.14 1.07-5.14s.76-3.22.81-3.34a1.78 1.78 0 01.49-.47h.35c3.36 0 7.15 0 10.13-2.19a10.8 10.8 0 004-6.4 9.72 9.72 0 00.28-2.23 4.69 4.69 0 00-.81-2.85c-1.47-2.13-4.49-2.17-7.98-2.19zm2.23 7.71a5.4 5.4 0 01-2.8 3.7 8.92 8.92 0 01-3.93.61h-.93l.07-.37s1.7-7.39 1.69-7.36l.06-.38v-.29l.68.07 3.59.31c1.38.53 1.95 1.91 1.55 3.71M231.62 123.21l-.2-.23c-2.55.52-3 .6-5.35.92l-.17.17a.81.81 0 000 .11c-1.74 4-1.69 3.15-3.1 6.31v-.38l-.36-6.86-.22-.23c-2.67.52-2.73.6-5.19.92l-.2.17v.27a34.61 34.61 0 01.54 3.71c.14 1.22.34 2.44.48 3.65.24 2 .38 3 .68 6.08-1.67 2.75-2.06 3.78-3.66 6.19l.1.23c2.4-.09 3-.09 4.74-.09l.39-.44c1.26-2.91 11.52-20.5 11.52-20.5zM144.51 124.91c1.37-1 1.54-2.26.39-2.94a4.68 4.68 0 00-4.58.48c-1.37.93-1.53 2.25-.37 3a4.72 4.72 0 004.56-.54z"/><path class="cls-5" d="M219.84 143.94l-2 3.44a3.92 3.92 0 01-3.68 2.05l-3.18-.05.93-3.09h.62a1.7 1.7 0 00.74-.11.84.84 0 00.41-.37l1.18-1.87z"/></svg>