<svg version="1.1" id="Layer_1" xmlns="http://www.w3.org/2000/svg" x="0" y="0" viewBox="0 0 306.1 269.8" xml:space="preserve"><style>.st0{fill:#696d7d}</style><path class="st0" d="M287.22 176.86h-20.2c-.74-3.55-1.53-7.03-2.16-10.53-.26-1.45-.72-2.02-2.35-2-8.1.1-16.2.08-24.3.01-1.23-.01-1.71.4-2.09 1.51-1.12 3.34-2.34 6.64-3.58 9.94-.17.45-.73 1.06-1.12 1.06-7.3.06-14.6.05-22.12.05 1.37-3.3 2.67-6.45 3.98-9.58 9.41-22.46 18.83-44.92 28.25-67.38 2.04-4.86 5.1-6.9 10.36-6.9h17.74c.59 2.74 1.18 5.44 1.74 8.14 4.63 22.2 9.26 44.4 13.9 66.59.59 2.84 1.3 5.66 1.95 8.5v.59zm-26.44-29.79c-2.15-10.32-4.28-20.51-6.4-30.69-.09-.02-.17-.03-.26-.05l-11.14 30.74h17.8zM199.22 91.54c2.67.5 5.35.9 7.99 1.51 2.41.56 4.77 1.33 7.33 2.06-1.29 6.03-2.55 11.92-3.78 17.69-3.38-.99-6.61-2.13-9.92-2.86-4.54-1-9.19-1.38-13.73-.12-1.85.51-3.71 1.5-5.17 2.75-2.49 2.14-2.53 5.21-.14 7.45 1.64 1.55 3.59 2.82 5.53 3.98 4.42 2.66 9.06 4.97 13.36 7.81 5.06 3.34 8.75 7.94 9.52 14.16 1.37 10.99-2.7 19.65-11.93 25.78-5.81 3.85-12.38 5.57-19.23 6.21-9.56.89-18.93-.18-28.07-3.18-.61-.2-1.21-.45-1.81-.7-.18-.07-.33-.2-.61-.37 1.29-6.04 2.58-12.1 3.91-18.32 1.56.68 3.02 1.36 4.51 1.96 7.14 2.88 14.51 4.19 22.15 2.76 1.99-.37 4.01-1.25 5.7-2.38 3.66-2.45 4.01-7.06.68-9.93-2.19-1.89-4.82-3.29-7.31-4.81-3.89-2.37-8.03-4.39-11.71-7.05-4.72-3.4-8.14-7.94-8.79-13.97-.97-9.03 2.38-16.36 9.31-22.05 6.03-4.96 13.19-7.16 20.81-8.08.42-.05.84-.2 1.25-.3h10.15zM120.66 93.1c-1.14 2.73-2.21 5.33-3.3 7.93-10.4 24.8-20.81 49.6-31.16 74.42-.49 1.18-1.1 1.49-2.3 1.48-6.56-.05-13.12-.08-19.69.01-1.39.02-1.84-.47-2.16-1.72-5.56-21.68-11.22-43.33-16.72-65.03-1.01-3.98-3.03-6.7-6.82-8.37-6.07-2.67-12.38-4.55-18.81-6.08-.28-.07-.57-.14-.83-.21.03-2.52.03-2.52 2.43-2.52h34.45c5.45 0 9.38 3.17 10.41 8.56 2.92 15.26 5.77 30.54 8.65 45.81.13.67.27 1.33.46 2.27.3-.56.51-.87.64-1.22 7.13-18.04 14.27-36.08 21.36-54.13.39-.99.86-1.32 1.93-1.31 6.66.05 13.32.03 19.98.03.44.02.87.06 1.48.08zM111.96 176.91l17.93-83.78h21.76c-.91 4.25-1.79 8.42-2.68 12.59-4.93 23.05-9.88 46.1-14.75 69.16-.34 1.6-.91 2.11-2.57 2.08-5.96-.12-11.93-.05-17.89-.05h-1.8z"/></svg>