<svg version="1.1" id="Layer_1" xmlns="http://www.w3.org/2000/svg" x="0" y="0" viewBox="0 0 306.1 269.8" xml:space="preserve"><style>.st0{fill:#696d7d}</style><path class="st0" d="M251.9 131.47c-1.39.97-3.4 1.45-6.16 1.45H243l2.1-11.32h2.01c2.29 0 3.96.37 5.11 1.12.9.59 1.97 1.75 1.97 3.95 0 2.65-1.24 4.07-2.29 4.8M88.82 145.68H67.66l1.37-7.4H82.3l1.51-8.34H70.66l1.27-7.32h21.12l-4.23 23.06zm174.47-29.41c-3.11-2.13-7.82-3.21-13.99-3.21h-16.16l-6.01 32.62h-21.17l1.36-7.4h12.76l1.52-8.31-12.75.02 1.37-7.37h13.14l1.75-9.56h-26.68l-5.7 30.94h-9.78l5.74-30.94h-13.95l-5.7 30.94h-9.54l5.75-30.94h-13.94l-6.02 32.62h-21.32l1.34-7.4h12.81l1.51-8.26-12.79-.01 1.36-7.38h13.28l1.74-9.56H60.06l-4.73 25.85-9.43-25.85H31.43l-7.79 42.18h13.82l4.71-26.56 9.15 26.56h49.52l6.02-32.63h7.75l-6.02 32.63H238.9l3.77-20.6 6.12 20.6h13.82l-6.33-16.83 1.45-.31c3.19-.68 5.68-2.15 7.41-4.35 1.73-2.22 2.61-5.08 2.61-8.5.01-4-1.45-6.94-4.46-8.99M274.68 150.26l1.88-.1c.4-.02.71-.08.93-.17a.93.93 0 00.49-.42.99.99 0 00.14-.6c-.02-.32-.14-.57-.38-.76-.24-.19-.6-.27-1.1-.25l-2.1.11.14 2.19zm-.69 3.75l-.34-6.64 2.94-.15c.59-.03 1.04.01 1.35.11.32.1.57.3.77.59.2.29.31.62.32.98.03.47-.11.87-.39 1.21-.29.34-.75.57-1.38.69.24.1.42.2.54.3.27.22.53.51.77.85l1.24 1.75-1.09.06-.95-1.34c-.28-.39-.5-.68-.68-.88-.18-.2-.33-.34-.47-.42-.13-.08-.27-.13-.41-.16-.1-.02-.26-.02-.49-.01l-1.01.05.15 2.95-.87.06z"/><path class="st0" d="M271.11 150.8a5.12 5.12 0 011.32-3.71 5.122 5.122 0 013.56-1.69c2.83-.15 5.25 2.04 5.4 4.87 0 .09.01.18.01.26 0 2.72-2.14 5-4.89 5.14-2.83.15-5.25-2.04-5.4-4.87m4.83-6.46c-1.65.09-3.18.81-4.28 2.04a6.14 6.14 0 00-1.59 4.47c.18 3.41 3.1 6.05 6.51 5.87 3.41-.18 6.05-3.1 5.87-6.51a6.21 6.21 0 00-6.51-5.87"/></svg>