<svg version="1.1" id="Layer_1" xmlns="http://www.w3.org/2000/svg" x="0" y="0" viewBox="0 0 306.1 269.8" xml:space="preserve"><style>.st0{fill:#696d7d}.st1,.st2{fill-rule:evenodd;clip-rule:evenodd;fill:#878a97}.st2{fill:#696d7d}</style><path class="st1" d="M229.63 119.74c-6.74 0-12.07 1.79-16.14 2.6l-1.26 10.24c2.04-.98 8.46-2.76 13.79-2.93 5.33-.16 8.46.97 7.37 5.53-15.83 0-26.49 3.25-28.69 13.5-3.14 17.56 16.15 17.07 23.83 9.43l-.94 4.23h14.11l6.12-27.97c2.5-11.87-8.32-14.79-18.19-14.63zm.94 28.61c-.78 3.74-3.76 5.37-7.36 5.53-3.13.16-5.96-2.6-3.92-5.86 1.57-2.76 5.96-3.41 8.62-3.41h3.45c-.32 1.3-.48 2.44-.79 3.74zM259.88 108.68l-11.67 53.66h14.33l11.81-53.66h-14.47zM194.04 108.84h-26.23l-11.63 53.49h15.24l3.93-17.72h10.84c10.68 0 19.48-6.5 21.84-17.56 2.66-12.52-6.45-18.21-13.99-18.21zm-.47 18.21c-.94 4.07-5.03 7.32-8.96 7.32h-7.07l3.14-14.63h7.54c3.94 0 6.3 3.25 5.35 7.31z"/><path class="st2" d="M92.24 119.74c-6.66 0-11.92 1.79-15.79 2.6l-1.24 10.24c1.86-.98 8.21-2.76 13.47-2.93 5.27-.16 8.36.97 7.43 5.53-15.64 0-26.17 3.25-28.33 13.5-3.1 17.56 15.95 17.07 23.38 9.43l-.93 4.23h14.09l6.04-27.97c2.47-11.87-8.37-14.79-18.12-14.63zm1.08 28.61c-.77 3.74-3.87 5.37-7.43 5.53-3.1.16-5.73-2.6-3.72-5.86 1.55-2.76 5.88-3.41 8.36-3.41h3.56c-.31 1.3-.62 2.44-.77 3.74zM116.49 120.51h14.09l2.27 24.91 13.79-24.91h14.54l-33.48 59.62h-15.75l10.3-17.53-5.76-42.09zM57.19 108.84h-26.3l-11.65 53.49h15.44l3.78-17.72h11.02c10.55 0 19.37-6.5 21.74-17.56 2.67-12.52-6.31-18.21-14.03-18.21zm-.47 18.21c-.94 4.07-4.88 7.32-8.82 7.32h-7.25l3.31-14.63h7.56c3.78 0 6.3 3.25 5.2 7.31z"/><path class="st0" d="M277.45 115.61v-6.33h-2.36v-.85h5.69v.85h-2.37v6.33h-.96zM281.71 115.61v-7.17h1.42l1.7 5.08c.16.47.27.83.34 1.06.08-.26.21-.64.38-1.15l1.72-4.99h1.28v7.17h-.91v-6.01l-2.09 6.01h-.85l-2.07-6.1v6.1h-.92z"/></svg>