<svg version="1.1" id="Layer_1" xmlns="http://www.w3.org/2000/svg" x="0" y="0" viewBox="0 0 306.1 269.8" xml:space="preserve"><style>.st0{fill:#696d7d}</style><path class="st0" d="M222.76 80.49l19.79-3.54v76.01h-19.79V80.49zm28.91 0v72.46h19.81v-76l-19.81 3.54zm-57.11 72.46h19.81V97.36h-19.81v55.59zM63.67 105.22c-2.5-.16-8.3-.54-8.3-5.76 0-6.3 8.34-6.3 11.47-6.3 5.5 0 12.63 1.62 17.72 3.15 0 0 2.84 1 5.26 2.03l.22.06V81.16l-.31-.09c-6.01-2.1-12.99-4.12-25.94-4.12-22.33 0-30.24 13.01-30.24 24.15 0 6.42 2.75 21.54 28.32 23.29 2.17.13 7.92.46 7.92 5.86 0 4.45-4.71 7.08-12.63 7.08-8.68 0-17.1-2.21-22.22-4.31v17.76c7.66 2.01 16.29 3.01 26.41 3.01 21.83 0 31.61-12.31 31.61-24.5.01-13.85-10.94-22.84-29.29-24.07zm119.73-8.67c-18.31.59-27.6 8.8-27.6 25.13v31.28h19.97v-25.51c0-9.78 1.28-13.97 12.88-14.37V96.84c-1.95-.42-5.25-.29-5.25-.29zm-53.73.75c-.44 1.11-3.61 10.07-11.28 19.35v-39.7l-20.44 4.04v71.97h20.44v-22.25c5.92 8.88 8.84 22.25 8.84 22.25h24.48c-2.42-10.07-13.02-28.63-13.02-28.63 9.51-12.05 13.68-24.9 14.35-27.03h-23.37zm74.79-5.27c5.4 0 9.77-4.37 9.77-9.76s-4.37-9.77-9.77-9.77c-5.39 0-9.76 4.37-9.76 9.77 0 5.39 4.38 9.76 9.76 9.76zM56.22 190.34V178.6c0-1.34-.5-2.25-1.83-2.25-1.03 0-2.03.65-3.06 1.64v12.35h-5.77V178.6c0-1.34-.5-2.25-1.84-2.25-1.07 0-2.02.65-3.06 1.64v12.35h-5.77v-18.73h5.09l.42 2.56c1.68-1.72 3.4-2.94 5.81-2.94 2.56 0 3.97 1.26 4.66 2.94 1.68-1.68 3.52-2.94 5.85-2.94 3.48 0 5.31 2.18 5.31 5.81v13.31h-5.81zM73.92 190.72c-5.16 0-8.95-3.71-8.95-9.71 0-6 3.82-9.79 8.98-9.79 5.2 0 9.02 3.75 9.02 9.75s-3.86 9.75-9.05 9.75zm.03-14.76c-2.22 0-3.4 1.95-3.4 5.01 0 3.02 1.22 5.09 3.4 5.09 2.22 0 3.44-2.03 3.44-5.05.01-3.02-1.22-5.05-3.44-5.05zM96.89 190.34V178.6c0-1.34-.54-2.25-1.91-2.25-1.11 0-2.14.65-3.17 1.68v12.31h-5.77v-18.73h5.09l.42 2.56c1.68-1.64 3.48-2.94 5.85-2.94 3.48 0 5.31 2.18 5.31 5.81v13.31h-5.82zM122.65 182.42h-11.24c.31 2.94 2.06 4.09 4.59 4.09 2.06 0 4.09-.76 6.15-1.95l.57 4.05c-2.02 1.3-4.51 2.1-7.45 2.1-5.62 0-9.63-2.98-9.63-9.67 0-6.12 3.75-9.83 8.83-9.83 5.74 0 8.3 4.28 8.3 9.71-.01.59-.04 1.2-.12 1.5zm-8.33-7.45c-1.61 0-2.75 1.41-2.94 4.28h5.89c-.2-2.83-1.2-4.28-2.95-4.28zM135.94 190.72c-1.68 4.89-3.98 6.58-8.07 6.58-1.15 0-1.64-.11-2.18-.23l-.73-4.63c.61.19 1.19.31 2.29.31 1.3 0 2.45-.5 3.06-1.8l.23-.57-6.81-18.31 6.19-.73 3.63 11.82 3.44-11.55h5.58l-6.63 19.11zM152.91 190.56c-3.02 0-5.85-.49-8.03-1.34v-25.58l5.77-.92v10.93c1.19-1.22 2.79-2.45 5.01-2.45 3.82 0 6.73 2.91 6.73 9.25 0 6.98-3.7 10.11-9.48 10.11zm.92-14.18c-1.22 0-2.22.72-3.17 1.8v7.41c.77.23 1.22.35 2.1.35 2.26 0 3.86-1.38 3.86-5.09 0-3.13-1.14-4.47-2.79-4.47zM173.59 190.72c-5.16 0-8.94-3.71-8.94-9.71 0-6 3.82-9.79 8.98-9.79 5.2 0 9.02 3.75 9.02 9.75s-3.86 9.75-9.06 9.75zm.04-14.76c-2.22 0-3.4 1.95-3.4 5.01 0 3.02 1.22 5.09 3.4 5.09 2.22 0 3.44-2.03 3.44-5.05s-1.22-5.05-3.44-5.05zM193.73 190.72c-5.16 0-8.95-3.71-8.95-9.71 0-6 3.82-9.79 8.99-9.79 5.2 0 9.02 3.75 9.02 9.75s-3.86 9.75-9.06 9.75zm.04-14.76c-2.22 0-3.4 1.95-3.4 5.01 0 3.02 1.22 5.09 3.4 5.09 2.22 0 3.44-2.03 3.44-5.05s-1.22-5.05-3.44-5.05zM217.05 190.61l-5.43-8.98v8.72h-5.77v-26.69l5.77-.92v16.55l5.01-7.68h6.19l-5.89 8.53 6.12 9.63-6 .84zM240.48 182.42h-11.24c.31 2.94 2.07 4.09 4.59 4.09 2.07 0 4.09-.76 6.16-1.95l.57 4.05c-2.02 1.3-4.51 2.1-7.45 2.1-5.62 0-9.64-2.98-9.64-9.67 0-6.12 3.75-9.83 8.83-9.83 5.74 0 8.3 4.28 8.3 9.71 0 .59-.05 1.2-.12 1.5zm-8.33-7.45c-1.61 0-2.75 1.41-2.94 4.28h5.89c-.2-2.83-1.2-4.28-2.95-4.28zM249.46 179.94v10.4h-5.77v-18.73h5.05l.61 3.71c1.15-2.14 2.71-3.9 5.47-4.09l.96 5.88c-2.8.19-4.9 1.3-6.32 2.83zM264.86 190.64c-2.98 0-5.77-.84-7.72-1.87l.69-4.4c2.22 1.38 4.93 2.22 7.08 2.22 1.61 0 2.37-.54 2.37-1.42 0-.95-.53-1.37-3.17-2.02-4.7-1.22-6.69-2.48-6.69-6 0-3.48 2.6-5.81 7.19-5.81 2.53 0 4.97.5 6.92 1.38l-.72 4.39c-2.03-1.11-4.36-1.75-6.16-1.75-1.38 0-1.99.5-1.99 1.22 0 .77.53 1.18 3.18 1.91 4.97 1.34 6.73 2.6 6.73 6.08-.03 3.93-2.74 6.07-7.71 6.07z"/></svg>