<svg version="1.1" id="Layer_1" xmlns="http://www.w3.org/2000/svg" x="0" y="0" viewBox="0 0 306.1 269.8" xml:space="preserve"><style>.st2{fill-rule:evenodd;clip-rule:evenodd;fill:#696d7d}</style><path class="st2" d="M94.33 99.57h6.1c.2.02.43.05.55.23.16.24.08.55 0 .8-5.46 14.9-10.93 29.79-16.33 44.71-.06.17-.12.34-.12.52v22.22c-.01.31.02.63-.02.94-.04.28-.29.51-.58.49-1.77.01-3.54 0-5.31 0-.19-.01-.41.01-.56-.14-.18-.17-.17-.43-.18-.66v-23.04c-.01-.33-.2-.63-.3-.94-4.88-12.44-9.55-24.95-14.3-37.44-.08-.21-.16-.42-.23-.64v-.15c.06-.39.4-.7.8-.68h5.67c.35-.01.71.12.9.43.24.43.33.94.51 1.4 2.6 7.48 5.3 14.94 7.88 22.42.99 2.7 1.97 5.4 2.96 8.09.76-2.85 1.5-5.7 2.29-8.53.93-3.04 1.93-6.06 2.9-9.08 2.21-6.83 4.44-13.65 6.64-20.48.12-.28.44-.42.73-.47zM177.42 105.94c.23-.2.55-.16.83-.17 1.68.02 3.37-.02 5.05.02.33-.01.49.33.46.62v62.28c-.01.22-.02.47-.19.64-.16.18-.41.16-.63.17-.93-.01-1.87 0-2.8-.01-.25.01-.51-.09-.64-.31-.43-.69-.82-1.4-1.24-2.09-1.54 1.35-3.26 2.58-5.26 3.14h-5.09c-2.21-.56-4.16-1.91-5.63-3.63-1.89-2.21-3.04-4.95-3.76-7.75-1.1-4.36-1.17-8.9-.85-13.36.34-4.1 1.12-8.25 2.99-11.95 1.29-2.55 3.2-4.87 5.76-6.21 1.89-1 4.05-1.41 6.18-1.28 1.6.13 3.15.59 4.64 1.15v-20.68c-.02-.21 0-.45.18-.58zm-8.34 26.5c-1.09.94-1.85 2.19-2.44 3.49-.79 1.77-1.28 3.67-1.63 5.58-.67 3.83-.72 7.75-.38 11.61.22 2.22.6 4.44 1.4 6.53.52 1.35 1.24 2.66 2.28 3.68.96.96 2.27 1.57 3.62 1.67 1.85.16 3.67-.46 5.28-1.33v-30.5c-1.45-1.19-3.3-1.95-5.19-1.89-1.07.01-2.12.46-2.94 1.16zM103.74 126.5c1.74-.38 3.52-.67 5.3-.51 2.03.16 4.06.84 5.65 2.14 1 .78 1.8 1.8 2.42 2.9.69 1.24 1.12 2.61 1.4 4 .35 1.72.5 3.48.58 5.23.12 2.61.09 5.22.09 7.83v20.62c0 .23-.03.49-.22.65-.18.17-.44.12-.66.13-.99-.02-1.98.02-2.97-.02-.26 0-.43-.22-.52-.44-.38-.9-.76-1.81-1.15-2.71-1.48 1.78-3.41 3.24-5.65 3.9h-4.75c-2.08-.63-3.84-2.06-5.11-3.8-1.81-2.47-2.75-5.49-3-8.52-.27-3.39.21-6.88 1.66-9.97 1.05-2.22 2.66-4.23 4.83-5.44 1.97-1.12 4.34-1.53 6.57-1.17 1.54.24 3.08.66 4.43 1.45 0-2.49-.05-5.03-.79-7.43-.45-1.38-1.18-2.78-2.46-3.56-1.04-.64-2.34-.66-3.48-.29-1.47.47-2.81 1.27-4.11 2.07-.38.22-.76.58-1.24.52-.29-.03-.48-.27-.59-.52-.58-1.22-1.14-2.45-1.72-3.68-.15-.33-.37-.67-.31-1.05.08-.38.47-.54.78-.69 1.61-.73 3.31-1.23 5.02-1.64zm1.24 20.76c-.98.76-1.6 1.87-2.03 3.01-.72 1.94-.95 4.03-.89 6.09.06 1.76.32 3.53 1.02 5.16.49 1.12 1.24 2.17 2.28 2.84.97.63 2.19.79 3.31.58 1.48-.26 2.83-1.05 3.91-2.07.12-.09.06-.27.08-.39-.01-4.71 0-9.42 0-14.13-1.5-1.19-3.4-1.89-5.33-1.89-.84-.02-1.69.27-2.35.8zM199.34 126.97a9.231 9.231 0 015.65-.72c1.49.27 2.89.97 4.03 1.96 1.32 1.13 2.31 2.59 3.06 4.15 1.42 2.97 2.05 6.26 2.35 9.52.24 2.6.17 5.21.18 7.82h-11.78c-1.88.02-3.75-.22-5.61-.44-.01 1.8-.03 3.62.24 5.41.26 1.85.75 3.68 1.64 5.33.72 1.34 1.75 2.54 3.05 3.34 1.3.82 2.84 1.19 4.37 1.21 1.98.02 3.94-.36 5.86-.81.31-.08.72.03.79.38.25.93.46 1.87.69 2.81.09.3.04.67-.26.82-2.14 1.19-4.47 2.06-6.88 2.48h-4.6c-1.72-.32-3.37-1.02-4.78-2.05-2.3-1.65-3.96-4.07-5.05-6.65-1.41-3.36-1.96-7.02-2.04-10.64-.05-2.68.11-5.36.49-8.01.54-3.62 1.49-7.24 3.27-10.47 1.23-2.24 2.98-4.31 5.33-5.44zm1.98 4.85c-.73.47-1.26 1.19-1.66 1.94-.78 1.49-1.19 3.15-1.51 4.8-.37 2.09-.63 4.2-.73 6.32.9-.11 1.8-.23 2.71-.31 2.57-.28 5.16-.13 7.74-.17-.01-2.69-.19-5.4-.83-8.01-.32-1.24-.74-2.48-1.48-3.54-.4-.56-.91-1.08-1.56-1.33-.87-.36-1.9-.2-2.68.3zM141.13 126.55c1.69-.18 3.42-.02 5.03.5 1.41.47 2.72 1.34 3.55 2.59.97 1.41 1.3 3.16 1.29 4.84v34.3c.03.32-.19.71-.55.7-1.74.01-3.48 0-5.23 0-.41.06-.8-.28-.75-.71v-32.58c.01-1.18-.47-2.39-1.41-3.14-1.18-.95-2.75-1.2-4.22-1.12-1.75.11-3.47.67-4.99 1.56v34.84c-.02.34.07.76-.21 1.01-.12.13-.31.14-.48.14h-5.14c-.17-.01-.37.01-.5-.12-.2-.16-.2-.44-.2-.67v-41.14c-.03-.37.35-.63.7-.6h5.23c.27-.03.58.13.59.43.03.7 0 1.39.01 2.09 2.2-1.42 4.66-2.56 7.28-2.92zM219.55 127.09c.18-.14.42-.14.64-.14 1.59.01 3.18 0 4.77 0 .28 0 .6.03.81.25.27.28.37.67.51 1.02 1.68 4.45 3.43 8.88 5.02 13.36 0 .18.26.18.27 0 .5-1.42 1-2.84 1.52-4.26 1.18-3.24 2.43-6.46 3.65-9.69.11-.4.48-.7.91-.68 1.58-.01 3.17-.01 4.75 0 .3-.02.6.14.66.45v.2c-.13.58-.44 1.1-.66 1.64-2.75 6.16-5.55 12.3-8.31 18.45 2.86 6.59 5.59 13.24 8.4 19.86.15.38.37.75.46 1.16.07.36-.19.8-.59.77-1.71 0-3.43.01-5.14 0-.48 0-.79-.44-.94-.84-.36-.93-.71-1.87-1.06-2.8-1.36-3.61-2.79-7.18-4.01-10.84-.25-.66-.4-1.36-.73-1.98-.16.26-.24.56-.32.85-.32 1.01-.64 2.02-.97 3.03-1.2 3.71-2.55 7.35-3.89 11.01-.17.44-.28.93-.62 1.28-.29.3-.74.32-1.13.31-1.41-.01-2.82 0-4.23 0-.51.03-.91-.55-.75-1.02 3.06-7.15 6.06-14.32 9.08-21.48-2.77-6.33-5.55-12.65-8.33-18.97a.718.718 0 01.23-.94z"/></svg>