<svg version="1.1" id="Layer_1" xmlns="http://www.w3.org/2000/svg" x="0" y="0" viewBox="0 0 306.1 269.8" xml:space="preserve"><style>.st2{fill-rule:evenodd;clip-rule:evenodd;fill:#696d7d}</style><path class="st2" d="M61.57 102.57c5.08 0 9.88 1.18 14.17 3.28.67.32 1.34.67 2.02 1.06l-2.97 2.67-4.47-4.62-7.55 6.73-4.48-4.89-14.06 12.67 9.01 9.93-3.54 3.12 8.88 9.95-3.52 3.11 12.69 14.12 7.53-6.93 6.51 7.43a34.61 34.61 0 01-4.26 2.83 32.14 32.14 0 01-15.94 4.22c-17.81 0-32.33-14.52-32.33-32.33s14.5-32.35 32.31-32.35z"/><path class="st2" d="M55.68 132.86l7.69-6.93 6.92 7.69-7.69 6.92-6.92-7.68zM61.15 146.14l7.68-6.92 6.93 7.69-7.69 6.92-6.92-7.69zM50.18 119.73l7.68-6.92 6.93 7.68-7.69 6.93-6.92-7.69zM64.29 116l5.76-5.19 5.19 5.77-5.76 5.19-5.19-5.77zM74.53 139.78l5.77-5.19 5.19 5.77-5.77 5.19-5.19-5.77zM79.6 151.43l5.77-5.19 5.19 5.76-5.77 5.19-5.19-5.76zM81.93 124.73l3.84-3.46 3.46 3.85-3.84 3.46-3.46-3.85zM77.01 113.31l3.85-3.46 3.46 3.85-3.84 3.46-3.47-3.85zM86.84 136.16l3.84-3.47 3.47 3.85L90.3 140l-3.46-3.84zM69.6 127.6l5.77-5.2 5.19 5.77-5.77 5.19-5.19-5.76zM182.96 122.48l-.18.12-.18-.12c-1.33-1.21-2.77-1.69-4.58-1.69-4.16 0-6.87 2.89-6.87 7.41v21.15h4.16V128.2c0-3.01 2.05-3.25 2.71-3.25.48 0 1.21.12 1.81.6.6.6.9 1.45.9 2.65v21.15h4.16V128.2c0-3.01 2.05-3.25 2.71-3.25.48 0 1.21.12 1.81.6.6.6.9 1.45.9 2.65v21.15h4.16V128.2c0-2.35-.72-4.28-2.05-5.61-1.21-1.14-2.89-1.81-4.82-1.81-1.87.01-3.37.56-4.64 1.7zM213.28 130.56c-1.39-1.45-3.68-2.71-6.81-2.71-3.01 0-5.3 1.27-6.69 2.71-2.17 2.35-2.59 5.67-2.59 8.26 0 2.53.42 5.85 2.59 8.2 1.39 1.45 3.68 2.71 6.69 2.71 3.13 0 5.43-1.27 6.81-2.71 2.17-2.35 2.59-5.67 2.59-8.2 0-2.6-.42-5.91-2.59-8.26zm-1.63 9.16c0 1.99 0 4.22-1.51 5.85-.6.6-1.75 1.39-3.68 1.39-1.81 0-2.95-.78-3.56-1.39-1.51-1.63-1.51-3.86-1.51-5.85v-1.87c0-1.99 0-4.22 1.51-5.79.6-.66 1.75-1.45 3.56-1.45 1.93 0 3.07.78 3.68 1.45 1.51 1.57 1.51 3.8 1.51 5.79v1.87zM219.3 128.21l3.5.06v1.87c1.02-.72 1.93-1.27 2.95-1.63 1.27-.54 2.17-.66 3.43-.66 1.81 0 3.68.36 5.18 2.05 1.45 1.69 1.75 3.68 1.75 5.36v14.04h-3.86v-14.34c0-3.43-2.17-4.34-3.98-4.34s-3.68.78-5.18 2.17v16.51h-3.8v-21.09zM254.98 145.2c-.72.36-1.51.66-2.47.96-1.15.36-2.05.54-3.26.54-1.99 0-3.8-.66-4.76-1.75-.72-.72-1.51-2.17-1.51-4.7v-.54H256v-.96c0-3.38-.12-6.15-2.23-8.38-1.39-1.51-3.5-2.53-6.15-2.53-2.95 0-5.12 1.27-6.45 2.77-2.17 2.47-2.41 5.73-2.41 7.83 0 2.35.36 5.85 2.53 8.26 1.39 1.63 3.86 3.01 7.35 3.01 1.57 0 3.25-.18 4.94-.84.9-.36 1.93-.84 2.59-1.21l-1.19-2.46zm-11.99-8.74c0-2.41.78-3.8 1.39-4.46.6-.66 1.57-1.39 3.19-1.39 1.09 0 2.17.24 2.95 1.03 1.39 1.33 1.39 2.95 1.39 4.4v.9h-8.92v-.48zM276.86 128.27l-8.26 24.83c-.3 1.09-1.08 2.89-1.99 3.92-1.08 1.21-2.53 1.75-4.16 1.75-1.15 0-2.23-.24-3.31-.84-.66-.42-1.33-.84-1.75-1.33l1.81-2.29c.3.3.72.6 1.09.84.6.36 1.33.54 1.99.54 1.15 0 1.87-.6 2.23-1.08.42-.54.84-1.81 1.15-2.59l.48-1.69-8.86-22.06h4.16l5.3 13.2c.54 1.26 1.09 3.19 1.21 3.74h.18c.66-2.53.97-3.38 1.51-4.94l3.8-11.99h3.42zM114.68 148.09l.12-.18.18.18c1.39 1.15 2.77 1.69 4.64 1.69 4.16 0 6.87-2.95 6.87-7.41v-21.15h-4.22v21.15c0 3.01-2.05 3.19-2.65 3.19-.54 0-1.27-.06-1.81-.6-.6-.54-.9-1.45-.9-2.59v-21.15h-4.22v21.15c0 3.01-2.05 3.19-2.71 3.19-.48 0-1.21-.06-1.75-.6-.6-.54-.9-1.45-.9-2.59v-21.15h-4.22v21.15c0 2.29.72 4.22 2.05 5.54 1.2 1.21 2.95 1.87 4.82 1.87s3.37-.6 4.7-1.69zM145.84 145.2c-.66.3-1.45.66-2.41.96-1.14.36-2.05.54-3.25.54-1.99 0-3.8-.66-4.76-1.75-.66-.72-1.45-2.17-1.45-4.7v-.54h12.9v-.96c0-3.38-.12-6.15-2.17-8.38-1.39-1.45-3.5-2.47-6.21-2.47-2.83 0-5 1.27-6.33 2.71-2.23 2.53-2.41 5.79-2.41 7.83 0 2.35.3 5.85 2.47 8.26 1.45 1.57 3.86 3.01 7.35 3.01 1.57 0 3.19-.24 4.94-.9.9-.3 1.87-.84 2.53-1.21l-1.2-2.4zm-11.88-8.74c0-2.41.72-3.74 1.39-4.46.54-.6 1.51-1.39 3.13-1.39 1.09 0 2.17.3 2.95 1.09 1.39 1.27 1.39 2.89 1.39 4.4v.84h-8.86v-.48zM164.76 130.01c-1.51-1.33-3.62-2.11-5.79-2.11-.96 0-1.99.18-2.71.3-.6.18-1.39.48-2.05.72v-8.26h-3.8v26.82c2.23 1.33 4.88 2.23 7.9 2.23 2.23 0 5.24-.48 7.41-3.31 1.75-2.35 2.11-5.3 2.11-7.71.01-2.29-.18-6.2-3.07-8.68zm-6.51.61c1.51 0 3.08.48 4.04 1.51 1.33 1.45 1.33 3.62 1.33 5.48v1.81c0 3.56-.6 5-1.15 5.79-.6.78-1.87 1.75-4.04 1.75-.78 0-1.75-.24-2.47-.42-.54-.18-1.2-.54-1.75-.85v-13.8"/></svg>