<?xml version="1.0" encoding="UTF-8"?>
<svg width="728px" height="392px" viewBox="0 0 728 392" version="1.1" xmlns="http://www.w3.org/2000/svg" xmlns:xlink="http://www.w3.org/1999/xlink">
    <title>news.com.au-big_FFFFFF</title>
    <g id="news.com.au-big_FFFFFF" stroke="none" stroke-width="1" fill="none" fill-rule="evenodd">
        <g id="News-com-au_logo" transform="translate(144.000000, 124.000000)" fill-rule="nonzero">
            <path d="M86.0952749,21.0576447 C86.0952749,23.6208888 84.0034786,25.7088294 81.4440043,25.7088294 L65.1518021,25.7088294 C62.5838245,25.7088294 60.4920282,23.6293764 60.4920282,21.0576447 L60.4920282,4.65118472 C60.4920282,2.08794059 62.5838245,0 65.1518021,0 L81.4440043,0 C84.0119818,0 86.0952749,2.08794059 86.0952749,4.65118472 L86.0952749,21.0576447 Z" id="Path" fill="#D20F3B"></path>
            <path d="M86.0952749,139.357303 C86.0952749,141.920547 84.0034786,144 81.4440043,144 L65.1518021,144 C62.5838245,144 60.4920282,141.920547 60.4920282,139.357303 L60.4920282,122.950843 C60.4920282,120.387599 62.5838245,118.308146 65.1518021,118.308146 L81.4440043,118.308146 C84.0119818,118.308146 86.0952749,120.387599 86.0952749,122.950843 L86.0952749,139.357303 Z" id="Path" fill="#0795A0"></path>
            <path d="M46.2746159,111.509607 C48.0943086,113.317458 48.0943086,116.27113 46.2746159,118.087469 L34.761233,129.57963 C32.9415402,131.395968 29.9994202,131.395968 28.1797275,129.57963 L16.5643057,117.977131 C14.7531162,116.16928 14.7531162,113.224095 16.5643057,111.416244 L28.0776887,99.9240835 C29.8973814,98.1077449 32.8480046,98.1077449 34.6591941,99.9240835 L46.2746159,111.509607 Z" id="Path" fill="#23B0E7"></path>
            <path d="M129.963475,27.9750088 C131.774664,29.7913474 131.774664,32.7365319 129.963475,34.5443829 L118.450092,46.0450312 C116.630399,47.8613698 113.679776,47.8613698 111.860083,46.0450312 L100.236158,34.4425321 C98.4249686,32.6346811 98.4249686,29.6979842 100.236158,27.8816456 L111.766547,16.3809973 C113.577737,14.5731463 116.52836,14.5731463 118.348053,16.3809973 L129.963475,27.9750088 Z" id="Path" fill="#F28A14"></path>
            <path d="M46.4871968,27.9750088 C48.2983863,29.7913474 48.2983863,32.7365319 46.4871968,34.5443829 L34.9738139,46.0450312 C33.1541212,47.8613698 30.2120012,47.8613698 28.3838052,46.0450312 L16.7683834,34.4425321 C14.9571939,32.6346811 14.9571939,29.6979842 16.7683834,27.8816456 L28.2902696,16.3809973 C30.1099623,14.5731463 33.0605856,14.5731463 34.8717751,16.3809973 L46.4871968,27.9750088 Z" id="Path" fill="#C33C8E"></path>
            <path d="M130.329114,111.662384 C132.140303,113.470235 132.140303,116.415419 130.329114,118.240245 L118.815731,129.732406 C116.996038,131.548745 114.045415,131.548745 112.234226,129.732406 L100.618804,118.129907 C98.799111,116.322056 98.799111,113.385359 100.618804,111.560533 L112.132187,100.068372 C113.951879,98.260521 116.893999,98.260521 118.713692,100.068372 L130.329114,111.662384 Z" id="Path" fill="#CAD526"></path>
            <path d="M146.587303,83.6194742 C146.587303,86.1912059 144.512513,88.270659 141.936032,88.270659 L125.652334,88.270659 C123.075853,88.270659 121.001063,86.1912059 121.001063,83.6194742 L121.001063,67.2130143 C121.001063,64.6497701 123.075853,62.5618295 125.660837,62.5618295 L141.944536,62.5618295 C144.512513,62.5618295 146.595806,64.6412826 146.595806,67.2130143 L146.595806,83.6194742 L146.587303,83.6194742 Z" id="Path" fill="#889AA4"></path>
            <path d="M25.5947435,83.6194742 C25.5947435,86.1912059 23.5114504,88.270659 20.951976,88.270659 L4.65127065,88.270659 C2.08329307,88.270659 0,86.1912059 0,83.6194742 L0,67.2130143 C0,64.6497701 2.08329307,62.5618295 4.65127065,62.5618295 L20.951976,62.5618295 C23.5114504,62.5618295 25.5947435,64.6412826 25.5947435,67.2130143 L25.5947435,83.6194742 Z" id="Path" fill="#5A3B8F"></path>
            <polygon id="Path" fill="#C2C2C2" points="177.045898 142.70989 163.882887 142.70989 163.882887 129.571142 177.045898 129.571142"></polygon>
            <path d="M221.636873,125.726276 C219.255967,138.338795 211.211905,143.983025 199.996135,143.983025 C185.421587,143.983025 177.377524,134.018625 177.377524,119.997171 C177.377524,105.712602 186.03382,95.6548391 200.786936,95.6548391 C210.4126,95.6548391 220.573968,101.477308 221.194705,112.850642 L208.65243,113.376871 C207.861629,108.878463 205.123587,106.323706 200.523336,106.323706 C193.10001,106.323706 190.897671,113.028881 190.897671,119.377579 C190.897671,125.6414 192.666345,132.95768 200.259735,132.95768 C205.030051,132.95768 208.473862,129.868207 209.009566,125.106684 L221.636873,125.726276 Z" id="Path" fill="#C2C2C2"></path>
            <path d="M246.287757,143.983025 C231.976809,143.983025 223.04841,134.103501 223.04841,120.082046 C223.04841,105.271248 232.674075,95.6548391 247.520727,95.6548391 C261.568074,95.6548391 270.402937,105.975716 270.402937,119.640693 C270.402937,133.755511 260.50517,143.983025 246.287757,143.983025 Z M246.89999,106.060592 C239.034496,106.060592 236.389989,112.765767 236.389989,119.555818 C236.389989,126.167629 238.864431,133.399033 246.729926,133.399033 C254.773988,133.399033 257.069862,125.904515 257.069862,119.114464 C257.061359,112.587528 254.586917,106.060592 246.89999,106.060592 Z" id="Shape" fill="#C2C2C2"></path>
            <path d="M325.622959,142.658965 L325.622959,118.673111 C325.622959,113.733349 325.18079,107.741129 318.998937,107.741129 C312.196347,107.741129 311.932747,113.563598 311.932747,118.673111 L311.932747,142.658965 L298.854769,142.658965 L298.854769,116.822822 C298.854769,112.944006 297.8854,107.741129 292.137211,107.741129 C285.51319,107.741129 284.892453,114.004951 284.892453,118.325121 L284.892453,142.667453 L271.993043,142.667453 L271.993043,96.978899 L284.892453,96.978899 L284.892453,103.064482 C287.630496,97.9464812 291.788579,95.9179536 297.528264,95.9179536 C303.004348,95.9179536 307.596096,98.4727101 309.721905,103.76895 C312.54498,98.8291878 317.757464,96.0113168 323.412117,96.0113168 C326.855928,96.0113168 330.920475,97.0722622 333.658518,99.2790286 C338.513866,103.251208 338.607402,108.097607 338.607402,113.826712 L338.607402,142.667453 L325.622959,142.667453 L325.622959,142.658965 Z" id="Path" fill="#C2C2C2"></path>
            <polygon id="Path" fill="#C2C2C2" points="353.335008 142.658965 340.171997 142.658965 340.171997 129.520217 353.335008 129.520217 353.335008 142.658965"></polygon>
            <path d="M385.264663,138.508547 C380.936516,141.334905 378.283506,143.974537 370.953715,143.974537 C362.56102,143.974537 354.959126,138.9499 354.959126,129.248615 C354.959126,119.284215 362.731085,115.846752 371.302348,114.607568 L377.484201,113.724861 C381.370181,113.198633 384.550391,112.842155 384.550391,109.930921 C384.550391,106.13698 379.68654,105.695627 377.569234,105.695627 C372.798918,105.695627 369.533675,107.46104 369.533675,111.424732 L357.518601,111.424732 C358.309402,96.2574561 372.798918,95.637864 377.042033,95.637864 C389.499275,95.637864 397.806938,99.253566 397.806938,112.833667 L397.806938,132.584227 C397.806938,137.260875 398.164074,140.256985 399.312011,142.285512 L399.575611,142.633502 L385.8854,142.633502 L385.264663,138.508547 Z M384.907527,120.786514 C383.674558,121.227867 382.875254,121.584345 381.727317,121.84746 C378.104938,122.815042 368.122137,122.908405 368.122137,128.815749 C368.122137,132.60969 371.565948,133.755511 374.218958,133.755511 C375.196831,133.755511 381.557252,133.670635 384.907527,127.848167 L384.907527,120.786514 Z" id="Shape" fill="#C2C2C2"></path>
            <path d="M427.440719,142.692915 L427.440719,137.668278 C424.898251,141.810209 419.209585,143.838736 414.566818,143.838736 C400.374915,143.838736 399.41405,132.287163 399.41405,123.646823 L399.41405,97.0128492 L412.287951,97.0128492 L412.287951,123.20547 C412.287951,128.230107 413.248816,133.084994 419.388153,133.084994 C425.86762,133.084994 427.185622,127.703878 427.185622,120.828952 L427.185622,97.0213368 L439.71089,97.0213368 L439.71089,142.701403 L427.440719,142.701403 L427.440719,142.692915 Z" id="Path" fill="#C2C2C2"></path>
            <path d="M215.650594,79.8679712 L215.650594,42.7348815 C215.650594,36.6492986 213.337714,30.6825416 206.263021,30.6825416 C197.725771,30.6825416 195.41289,38.2279854 195.41289,44.9246729 L195.41289,79.8679712 L177.360518,79.8679712 L177.360518,16.8053755 L194.919702,16.8053755 L194.919702,24.1131675 C199.315876,18.5113757 205.047058,15.3455146 212.359842,15.3455146 C217.113151,15.3455146 221.874964,16.5677237 225.650401,19.4874455 C232.84414,24.9704114 234.068606,32.6346811 234.068606,41.1561947 L234.068606,79.8679712 L215.650594,79.8679712 Z" id="Path" fill="#000000"></path>
            <path d="M254.995072,53.5734999 C256.09199,61.3650831 260.360615,67.0857008 268.651271,67.0857008 C274.263407,67.0857008 277.800754,65.1420488 280.479273,60.3890133 L298.531646,61.6112224 C294.02493,75.1234233 282.069379,81.7012849 268.158083,81.7012849 C248.158469,81.7012849 236.202918,67.6968054 236.202918,48.3451609 C236.202918,29.4773076 248.762199,14.9890369 268.158083,14.9890369 C289.263117,14.9890369 299.262924,31.0559943 299.262924,50.5349523 L299.262924,53.5819875 L254.995072,53.5819875 L254.995072,53.5734999 Z M280.368731,39.9339856 C279.756498,33.6022634 275.122234,29.1038548 268.659774,29.1038548 C260.972848,29.1038548 257.069862,32.753507 255.122621,39.9424732 L280.368731,39.9424732 L280.368731,39.9339856 Z" id="Shape" fill="#000000"></path>
            <polygon id="Path" fill="#000000" points="385.621799 16.8053755 367.322833 79.8679712 350.613972 79.8679712 340.001933 37.2604032 329.508938 79.8679712 312.553483 79.8679712 294.135472 16.8053755 312.553483 16.8053755 322.187651 56.2470824 332.068412 16.8053755 347.926949 16.8053755 357.688666 56.2470824 367.322833 16.8053755"></polygon>
            <path d="M399.277998,57.7069433 C400.374915,65.8634917 404.64354,68.1721089 412.696106,68.1721089 C416.599092,68.1721089 421.71804,67.3233526 421.71804,62.3326653 C421.71804,51.0102558 384.150739,60.142874 384.150739,34.9432984 C384.150739,20.0900625 397.687893,14.9805493 410.493768,14.9805493 C424.39656,14.9805493 437.449029,20.9473064 438.180307,36.4031593 L421.343898,37.2519156 C420.978259,30.5552281 415.493671,28.1192974 410.247174,28.1192974 C406.828872,28.1192974 401.46333,28.730402 401.46333,33.4749499 C401.46333,43.0913592 440,35.5459154 440,60.4993516 C440,76.8124484 425.246884,81.6843098 411.463137,81.6843098 C398.045029,81.6843098 382.194995,75.7175528 382.194995,59.0394907 L382.194995,58.3095603 L399.277998,57.7069433 Z" id="Path" fill="#000000"></path>
        </g>
    </g>
</svg>