<?xml version="1.0" encoding="UTF-8"?>
<svg width="180px" height="70px" viewBox="0 0 180 70" version="1.1" xmlns="http://www.w3.org/2000/svg" xmlns:xlink="http://www.w3.org/1999/xlink">
    <title>news.com.au-small</title>
    <g id="news.com.au-small" stroke="none" stroke-width="1" fill="none" fill-rule="evenodd">
        <g id="Group-7" transform="translate(34.000000, 17.000000)" fill-rule="nonzero">
            <g id="News-com-au_logo">
                <path d="M22.110832,5.41064482 C22.110832,6.06925616 21.5736206,6.60574089 20.9163011,6.60574089 L16.7321674,6.60574089 C16.072664,6.60574089 15.5354527,6.07143699 15.5354527,5.41064482 L15.5354527,1.19509607 C15.5354527,0.536484734 16.072664,0 16.7321674,0 L20.9163011,0 C21.5758044,0 22.110832,0.536484734 22.110832,1.19509607 L22.110832,5.41064482 Z" id="Path" fill="#D20F3B"></path>
                <path d="M22.110832,35.8070848 C22.110832,36.4656961 21.5736206,37 20.9163011,37 L16.7321674,37 C16.072664,37 15.5354527,36.4656961 15.5354527,35.8070848 L15.5354527,31.591536 C15.5354527,30.9329247 16.072664,30.3986208 16.7321674,30.3986208 L20.9163011,30.3986208 C21.5758044,30.3986208 22.110832,30.9329247 22.110832,31.591536 L22.110832,35.8070848 Z" id="Path" fill="#0795A0"></path>
                <path d="M11.8841627,28.6517741 C12.3514929,29.1162914 12.3514929,29.875221 11.8841627,30.3419191 L8.92731665,33.294766 C8.45998647,33.7614641 7.70439656,33.7614641 7.23706638,33.294766 L4.25401488,30.3135683 C3.78886849,29.849051 3.78886849,29.0923023 4.25401488,28.627785 L7.21086095,25.6749381 C7.67819113,25.20824 8.43596483,25.20824 8.90111122,25.6749381 L11.8841627,28.6517741 Z" id="Path" fill="#23B0E7"></path>
                <path d="M33.3769833,7.18802311 C33.8421297,7.65472121 33.8421297,8.41147 33.3769833,8.87598727 L30.4201372,11.831015 C29.952807,12.2977131 29.1950333,12.2977131 28.7277032,11.831015 L25.7424679,8.84981728 C25.2773215,8.38530001 25.2773215,7.63073205 25.7424679,7.16403395 L28.7036815,4.20900625 C29.1688279,3.74448898 29.9266016,3.74448898 30.3939318,4.20900625 L33.3769833,7.18802311 Z" id="Path" fill="#F28A14"></path>
                <path d="M11.9387574,7.18802311 C12.4039038,7.65472121 12.4039038,8.41147 11.9387574,8.87598727 L8.9819113,11.831015 C8.51458112,12.2977131 7.75899121,12.2977131 7.28947724,11.831015 L4.30642574,8.84981728 C3.84127935,8.38530001 3.84127935,7.63073205 4.30642574,7.16403395 L7.2654556,4.20900625 C7.73278578,3.74448898 8.49055947,3.74448898 8.95570587,4.20900625 L11.9387574,7.18802311 Z" id="Path" fill="#C33C8E"></path>
                <path d="M33.4708861,28.6910291 C33.9360325,29.1555464 33.9360325,29.9122952 33.4708861,30.3811741 L30.51404,33.334021 C30.0467098,33.8007191 29.2889361,33.8007191 28.8237897,33.334021 L25.8407382,30.3528233 C25.3734081,29.888306 25.3734081,29.1337381 25.8407382,28.6648591 L28.7975843,25.7120123 C29.2649145,25.247495 30.0205044,25.247495 30.4878346,25.7120123 L33.4708861,28.6910291 Z" id="Path" fill="#CAD526"></path>
                <path d="M37.6462847,21.4855594 C37.6462847,22.1463515 37.1134409,22.6806554 36.4517538,22.6806554 L32.2698038,22.6806554 C31.6081167,22.6806554 31.075273,22.1463515 31.075273,21.4855594 L31.075273,17.2700106 C31.075273,16.6113993 31.6081167,16.0749145 32.2719876,16.0749145 L36.4539376,16.0749145 C37.1134409,16.0749145 37.6484685,16.6092184 37.6484685,17.2700106 L37.6484685,21.4855594 L37.6462847,21.4855594 Z" id="Path" fill="#889AA4"></path>
                <path d="M6.57319548,21.4855594 C6.57319548,22.1463515 6.03816794,22.6806554 5.38084839,22.6806554 L1.19453087,22.6806554 C0.535027539,22.6806554 0,22.1463515 0,21.4855594 L0,17.2700106 C0,16.6113993 0.535027539,16.0749145 1.19453087,16.0749145 L5.38084839,16.0749145 C6.03816794,16.0749145 6.57319548,16.6092184 6.57319548,17.2700106 L6.57319548,21.4855594 Z" id="Path" fill="#5A3B8F"></path>
                <polygon id="Path" fill="#C2C2C2" points="45.4686057 36.6685135 42.0881051 36.6685135 42.0881051 33.2925852 45.4686057 33.2925852"></polygon>
                <path d="M56.9203788,32.3046682 C56.3089187,35.5453849 54.2430573,36.9956383 51.3626437,36.9956383 C47.6196347,36.9956383 45.5537733,34.4353413 45.5537733,30.8326064 C45.5537733,27.1622657 47.7768673,24.5779795 51.5657358,24.5779795 C54.0377814,24.5779795 56.6474055,26.0740304 56.8068219,28.9963456 L53.5857378,29.1315572 C53.3826457,27.9757161 52.6794666,27.3192856 51.4980385,27.3192856 C49.5915934,27.3192856 49.0259928,29.0421431 49.0259928,30.6734056 C49.0259928,32.2828598 49.4802203,34.1627372 51.4303411,34.1627372 C52.655445,34.1627372 53.5398782,33.3689143 53.6774568,32.1454674 L56.9203788,32.3046682 Z" id="Path" fill="#C2C2C2"></path>
                <path d="M63.251174,36.9956383 C59.5758624,36.9956383 57.2828872,34.4571496 57.2828872,30.8544147 C57.2828872,27.0488624 59.7549328,24.5779795 63.567823,24.5779795 C67.1754372,24.5779795 69.4443908,27.2298715 69.4443908,30.7410114 C69.4443908,34.3677355 66.902464,36.9956383 63.251174,36.9956383 Z M63.4084066,27.2516798 C61.3884047,27.2516798 60.7092473,28.9745373 60.7092473,30.7192031 C60.7092473,32.4180714 61.344729,34.2761405 63.3647309,34.2761405 C65.4305923,34.2761405 66.0202145,32.3504656 66.0202145,30.6057998 C66.0180307,28.9287398 65.382549,27.2516798 63.4084066,27.2516798 Z" id="Shape" fill="#C2C2C2"></path>
                <path d="M83.6258962,36.6554285 L83.6258962,30.4923966 C83.6258962,29.2231522 83.5123394,27.6834846 81.924727,27.6834846 C80.1776983,27.6834846 80.110001,29.1795355 80.110001,30.4923966 L80.110001,36.6554285 L76.7513383,36.6554285 L76.7513383,30.0169751 C76.7513383,29.0203348 76.5023867,27.6834846 75.0261475,27.6834846 C73.3249783,27.6834846 73.1655619,29.2929388 73.1655619,30.4029824 L73.1655619,36.6576093 L69.8527587,36.6576093 L69.8527587,24.9181893 L73.1655619,24.9181893 L73.1655619,26.481846 C73.8687409,25.1668042 74.9366122,24.6455853 76.4106677,24.6455853 C77.8170258,24.6455853 78.9962702,25.3020158 79.5422166,26.6628551 C80.2672335,25.3936108 81.6058943,24.6695744 83.0581119,24.6695744 C83.9425452,24.6695744 84.9863948,24.9421785 85.6895739,25.5091949 C86.9365156,26.5298244 86.9605372,27.7750796 86.9605372,29.2471413 L86.9605372,36.6576093 L83.6258962,36.6576093 L83.6258962,36.6554285 Z" id="Path" fill="#C2C2C2"></path>
                <polygon id="Path" fill="#C2C2C2" points="90.7428544 36.6554285 87.3623539 36.6554285 87.3623539 33.2795002 90.7428544 33.2795002 90.7428544 36.6554285"></polygon>
                <path d="M98.9429703,35.5890015 C97.8314233,36.3152187 97.1500821,36.9934575 95.2676587,36.9934575 C93.1122621,36.9934575 91.1599575,35.7024048 91.1599575,33.2097135 C91.1599575,30.6494165 93.1559378,29.7661794 95.3571939,29.4477779 L96.9448063,29.2209714 C97.9427964,29.0857598 98.7595323,28.9941648 98.7595323,28.2461393 C98.7595323,27.2713073 97.5104068,27.157904 96.9666441,27.157904 C95.7415402,27.157904 94.9029665,27.6115172 94.9029665,28.6299658 L91.817277,28.6299658 C92.0203691,24.7328186 95.7415402,24.5736178 96.8312494,24.5736178 C100.030496,24.5736178 102.164054,25.5026524 102.164054,28.991984 L102.164054,34.0667806 C102.164054,35.2684192 102.255774,36.038253 102.550585,36.5594719 L102.618282,36.648886 L99.1023867,36.648886 L98.9429703,35.5890015 Z M98.8512513,31.0354238 C98.5346024,31.1488271 98.3293265,31.240422 98.0345154,31.3080278 C97.1042226,31.5566427 94.540458,31.5806319 94.540458,33.0984911 C94.540458,34.0733231 95.4248913,34.3677355 96.1062325,34.3677355 C96.3573679,34.3677355 97.9908397,34.3459271 98.8512513,32.8498762 L98.8512513,31.0354238 Z" id="Shape" fill="#C2C2C2"></path>
                <path d="M109.774548,36.6641518 L109.774548,35.3730991 C109.121596,36.4373453 107.660644,36.9585642 106.468296,36.9585642 C102.823558,36.9585642 102.57679,33.9904515 102.57679,31.7703643 L102.57679,24.9269126 L105.883042,24.9269126 L105.883042,31.656961 C105.883042,32.9480137 106.12981,34.1954497 107.706503,34.1954497 C109.370548,34.1954497 109.709035,32.8128021 109.709035,31.046328 L109.709035,24.9290935 L112.925751,24.9290935 L112.925751,36.6663327 L109.774548,36.6663327 L109.774548,36.6641518 Z" id="Path" fill="#C2C2C2"></path>
                <path d="M55.3829935,20.5216315 L55.3829935,10.9804904 C55.3829935,9.41683367 54.7890038,7.88370859 52.9720939,7.88370859 C50.7795729,7.88370859 50.1855831,9.82246847 50.1855831,11.5431451 L50.1855831,20.5216315 L45.5494057,20.5216315 L45.5494057,4.31804786 L50.0589236,4.31804786 L50.0589236,6.19574443 C51.1879409,4.75639514 52.6598125,3.94294471 54.5378684,3.94294471 C55.7586047,3.94294471 56.9815248,4.25698456 57.9511257,5.00719085 C59.7986086,6.41600849 60.1130737,8.38530001 60.1130737,10.5748556 L60.1130737,20.5216315 L55.3829935,20.5216315 Z" id="Path" fill="#000000"></path>
                <path d="M65.4873708,13.7654132 C65.7690791,15.7674172 66.8653396,17.2372981 68.9945309,17.2372981 C70.4358295,17.2372981 71.3442845,16.7378875 72.032177,15.5166215 L76.6683544,15.8306613 C75.5109479,19.3025463 72.440545,20.9926913 68.8678713,20.9926913 C63.7316069,20.9926913 60.661204,17.394318 60.661204,12.4220205 C60.661204,7.57403041 63.8866557,3.85134976 68.8678713,3.85134976 C74.2880278,3.85134976 76.85616,7.97966521 76.85616,12.9846752 L76.85616,13.767594 L65.4873708,13.767594 L65.4873708,13.7654132 Z M72.0037878,10.2608157 C71.8465552,8.63391489 70.6563919,7.47807379 68.9967147,7.47807379 C67.0225722,7.47807379 66.0202145,8.41583166 65.5201275,10.2629966 L72.0037878,10.2629966 L72.0037878,10.2608157 Z" id="Shape" fill="#000000"></path>
                <polygon id="Path" fill="#000000" points="99.0346893 4.31804786 94.3351821 20.5216315 90.0440429 20.5216315 87.3186781 9.57385359 84.6238864 20.5216315 80.2694173 20.5216315 75.5393371 4.31804786 80.2694173 4.31804786 82.7436467 14.4523753 85.2812059 4.31804786 89.3539666 4.31804786 91.8609527 14.4523753 94.3351821 4.31804786"></polygon>
                <path d="M102.541849,14.8274785 C102.823558,16.9232583 103.919818,17.5164447 105.987864,17.5164447 C106.990221,17.5164447 108.30486,17.2983614 108.30486,16.0160321 C108.30486,13.1068018 98.6568944,15.4533773 98.6568944,8.97848638 C98.6568944,5.16202994 102.133481,3.84916893 105.422263,3.84916893 C108.992753,3.84916893 112.344864,5.382294 112.53267,9.35358953 L108.208774,9.57167276 C108.114871,7.85099611 106.706329,7.22509725 105.358933,7.22509725 C104.481051,7.22509725 103.103082,7.38211718 103.103082,8.6012024 C103.103082,11.0720853 113,9.13332547 113,15.5449723 C113,19.7365319 109.211132,20.9883296 105.671215,20.9883296 C102.225201,20.9883296 98.1546236,19.4552045 98.1546236,15.1698692 L98.1546236,14.9823176 L102.541849,14.8274785 Z" id="Path" fill="#000000"></path>
            </g>
        </g>
    </g>
</svg>