<?xml version="1.0" encoding="UTF-8"?>
<svg width="728px" height="392px" viewBox="0 0 728 392" version="1.1" xmlns="http://www.w3.org/2000/svg" xmlns:xlink="http://www.w3.org/1999/xlink">
    <title>techcrunch-big_00A800</title>
    <g id="techcrunch-big_00A800" stroke="none" stroke-width="1" fill="none" fill-rule="evenodd">
        <g id="techcrunch-vector-logo" transform="translate(184.000000, 123.000000)" fill="#FFFFFF" fill-rule="nonzero">
            <g id="Group-2" transform="translate(105.223724, 0.000000)">
                <polygon id="Fill-1" points="100.816918 25.7753086 151.270345 25.7753086 151.270345 0 100.816918 0"></polygon>
                <polyline id="Fill-2" points="0 0 0 25.7753086 25.1817459 25.7753086 25.1817459 77.3259259 50.3634917 77.3259259 50.3634917 25.7753086 75.6351724 25.7753086 75.6351724 0 0 0"></polyline>
                <polyline id="Fill-3" points="75.6351724 77.3259259 151.270345 77.3259259 151.270345 51.5506173 100.816918 51.5506173 100.816918 25.7753086 75.6351724 25.7753086 75.6351724 77.3259259"></polyline>
            </g>
            <g id="Group-3" transform="translate(0.000000, 99.135802)">
                <polyline id="Fill-4" points="37.0531404 1.80246914 0 1.80246914 0 12.5271605 12.4110033 12.5271605 12.4110033 46.1432099 24.642137 46.1432099 24.642137 12.5271605 37.0531404 12.5271605 37.0531404 1.80246914"></polyline>
                <path d="M50.9930354,12.1666667 C42.2693591,12.1666667 35.7940531,18.0246914 35.7940531,29.5604938 C35.7940531,39.7444444 41.2800763,46.8641975 51.2628398,46.8641975 C56.4790586,46.8641975 60.7059945,45.5123457 64.7530608,43.0790123 L60.4361901,35.7790123 C57.1086023,37.491358 54.7702973,38.1222222 51.8024487,38.1222222 C48.7446652,38.1222222 46.5862299,36.5 46.1365558,32.8049383 L65.6524089,32.8049383 C65.7423437,32.2641975 65.7423437,31.5432099 65.7423437,30.5518519 C65.8322785,18.2049383 60.1663857,12.1666667 50.9930354,12.1666667 Z M46.3164254,25.6851852 C46.6761647,22.3506173 48.1151216,20.6382716 50.723231,20.6382716 C54.0508188,20.6382716 55.2199713,22.3506173 55.7595802,25.6851852 L46.3164254,25.6851852 Z" id="Fill-5"></path>
                <path d="M87.4166321,37.5814815 C84.3588487,37.5814815 82.7400222,34.8777778 82.7400222,29.5604938 C82.7400222,24.3333333 84.1789791,21.3592593 87.1468277,21.3592593 C89.5750675,21.3592593 90.6542851,22.7111111 92.2731117,25.6851852 L100.09744,19.737037 C97.219526,15.0506173 93.6221338,12.1666667 87.3266973,12.1666667 C76.7143901,12.1666667 71.4981713,19.1962963 71.4981713,29.3802469 C71.4981713,40.5555556 77.3439338,46.7740741 87.0568929,46.7740741 C92.9026553,46.7740741 96.5000476,44.5209877 100.367244,38.8432099 L93.1724597,33.1654321 C91.0140244,36.4098765 89.5750675,37.5814815 87.4166321,37.5814815" id="Fill-6"></path>
                <path d="M126.628208,12.1666667 C122.671076,12.1666667 120.332771,13.5185185 118.264271,15.0506173 L118.264271,0 L106.84255,4.5962963 L106.84255,46.2333333 L118.264271,46.2333333 L118.264271,27.217284 C118.264271,23.0716049 119.703228,21.9 122.131467,21.9 C124.469772,21.9 125.908729,23.0716049 125.908729,27.3074074 L125.908729,46.2333333 L137.33045,46.2333333 L137.33045,25.8654321 C137.33045,17.1234568 133.822992,12.1666667 126.628208,12.1666667" id="Fill-7"></path>
                <path d="M164.760566,36.1395062 C159.454412,36.1395062 157.295977,30.7320988 157.295977,23.9728395 C157.295977,16.9432099 159.544347,11.8061728 164.670631,11.8061728 C168.717697,11.8061728 170.246589,14.4197531 171.775481,18.5654321 L182.927397,14.1493827 C179.869613,5.76790123 175.552743,1.08148148 164.670631,1.08148148 C152.799237,1.08148148 144.4353,9.73333333 144.4353,23.9728395 C144.4353,37.1308642 151.450214,46.8641975 164.580696,46.8641975 C175.103069,46.8641975 180.049483,41.1864198 183.017332,35.4185185 L172.674829,29.9209877 C170.246589,34.0666667 168.627763,36.1395062 164.760566,36.1395062" id="Fill-8"></path>
                <path d="M201.364032,15.3209877 L201.364032,12.8876543 L189.942312,12.8876543 L189.942312,46.1432099 L201.364032,46.1432099 L201.364032,28.0283951 C201.364032,23.9728395 203.072794,22.6209877 205.860773,22.6209877 C208.109143,22.6209877 209.727969,23.7925926 211.166926,25.4148148 L213.86497,13.608642 C212.515948,12.7975309 210.897122,12.1666667 208.468882,12.1666667 C205.501033,12.1666667 203.252663,13.4283951 201.364032,15.3209877" id="Fill-9"></path>
                <path d="M238.237303,31.9037037 C238.237303,36.0493827 236.798346,37.2209877 234.460041,37.2209877 C232.121736,37.2209877 230.682779,36.0493827 230.682779,31.8135802 L230.682779,12.8876543 L219.261059,12.8876543 L219.261059,33.2555556 C219.261059,41.9975309 222.768516,46.8641975 230.053236,46.8641975 C233.920432,46.8641975 236.348672,45.5123457 238.327238,43.9802469 L238.327238,46.2333333 L249.748958,46.2333333 L249.748958,12.9777778 L238.327238,12.9777778 L238.327238,31.9037037" id="Fill-10"></path>
                <path d="M277.718683,12.1666667 C273.761552,12.1666667 271.423247,13.5185185 269.354746,15.0506173 L269.354746,12.7975309 L257.933026,12.7975309 L257.933026,46.0530864 L269.354746,46.0530864 L269.354746,27.037037 C269.354746,22.891358 270.793703,21.7197531 273.221943,21.7197531 C275.560248,21.7197531 276.999205,22.891358 276.999205,27.1271605 L276.999205,46.0530864 L288.420925,46.0530864 L288.420925,25.6851852 C288.420925,17.1234568 285.003402,12.1666667 277.718683,12.1666667" id="Fill-11"></path>
                <path d="M311.084496,37.5814815 C308.026713,37.5814815 306.407886,34.8777778 306.407886,29.5604938 C306.407886,24.3333333 307.846843,21.3592593 310.724757,21.3592593 C313.152997,21.3592593 314.232215,22.7111111 315.851041,25.6851852 L323.675369,19.737037 C320.797455,15.0506173 317.200063,12.1666667 310.904627,12.1666667 C300.29232,12.1666667 295.076101,19.1962963 295.076101,29.3802469 C295.076101,40.5555556 300.921863,46.7740741 310.634822,46.7740741 C316.480585,46.7740741 320.077977,44.5209877 323.945174,38.8432099 L316.750389,33.1654321 C314.771823,36.4098765 313.242932,37.5814815 311.084496,37.5814815" id="Fill-12"></path>
                <path d="M350.296072,12.1666667 C346.338941,12.1666667 344.000636,13.5185185 341.932135,15.0506173 L341.932135,0 L330.510415,4.5962963 L330.510415,46.2333333 L341.932135,46.2333333 L341.932135,27.217284 C341.932135,23.0716049 343.371092,21.9 345.799332,21.9 C348.137637,21.9 349.576594,23.0716049 349.576594,27.3074074 L349.576594,46.2333333 L360.998314,46.2333333 L360.998314,25.8654321 C361.088249,17.1234568 357.580791,12.1666667 350.296072,12.1666667" id="Fill-13"></path>
            </g>
        </g>
    </g>
</svg>