<?xml version="1.0" encoding="UTF-8"?>
<svg width="180px" height="70px" viewBox="0 0 180 70" version="1.1" xmlns="http://www.w3.org/2000/svg" xmlns:xlink="http://www.w3.org/1999/xlink">
    <title>techcrunch-small</title>
    <g id="techcrunch-small" stroke="none" stroke-width="1" fill="none" fill-rule="evenodd">
        <g id="Group-6-Copy" transform="translate(27.000000, 10.000000)" fill="#00A800" fill-rule="nonzero">
            <g id="techcrunch-vector-logo">
                <g id="Group-2" transform="translate(36.726286, 0.000000)">
                    <polygon id="Fill-1" points="35.1881765 9.0037037 52.7979597 9.0037037 52.7979597 0 35.1881765 0"></polygon>
                    <polyline id="Fill-2" points="3.54287237e-15 0 3.54287237e-15 9.0037037 8.78919662 9.0037037 8.78919662 27.0111111 17.5783932 27.0111111 17.5783932 9.0037037 26.3989799 9.0037037 26.3989799 0 3.54287237e-15 0"></polyline>
                    <polyline id="Fill-3" points="26.3989799 27.0111111 52.7979597 27.0111111 52.7979597 18.0074074 35.1881765 18.0074074 35.1881765 9.0037037 26.3989799 9.0037037 26.3989799 27.0111111"></polyline>
                </g>
                <g id="Group-3" transform="translate(0.000000, 34.629630)">
                    <polyline id="Fill-4" points="12.932675 0.62962963 0 0.62962963 0 4.37592593 4.33181833 4.37592593 4.33181833 16.1185185 8.60085669 16.1185185 8.60085669 4.37592593 12.932675 4.37592593 12.932675 0.62962963"></polyline>
                    <path d="M17.7981232,4.25 C14.7532943,4.25 12.4932152,6.2962963 12.4932152,10.3259259 C12.4932152,13.8833333 14.4080045,16.3703704 17.8922931,16.3703704 C19.7129124,16.3703704 21.1882419,15.8981481 22.6007913,15.0481481 L21.0940719,12.4981481 C19.9326423,13.0962963 19.1165027,13.3166667 18.080633,13.3166667 C17.0133735,13.3166667 16.2600137,12.75 16.1030638,11.4592593 L22.9146912,11.4592593 C22.9460812,11.2703704 22.9460812,11.0185185 22.9460812,10.6722222 C22.9774712,6.35925926 20.9999019,4.25 17.7981232,4.25 Z M16.1658438,8.97222222 C16.2914037,7.80740741 16.7936435,7.20925926 17.7039532,7.20925926 C18.8653827,7.20925926 19.2734526,7.80740741 19.4617925,8.97222222 L16.1658438,8.97222222 Z" id="Fill-5"></path>
                    <path d="M30.5110683,13.1277778 C29.4438087,13.1277778 28.8787889,12.1833333 28.8787889,10.3259259 C28.8787889,8.5 29.3810287,7.46111111 30.4168983,7.46111111 C31.264428,7.46111111 31.6411078,7.93333333 32.2061276,8.97222222 L34.9370566,6.89444444 C33.932577,5.25740741 32.6769774,4.25 30.4796783,4.25 C26.7756597,4.25 24.9550404,6.70555556 24.9550404,10.262963 C24.9550404,14.1666667 26.9953896,16.3388889 30.3855083,16.3388889 C32.4258575,16.3388889 33.6814571,15.5518519 35.0312265,13.5685185 L32.5200275,11.5851852 C31.7666678,12.7185185 31.264428,13.1277778 30.5110683,13.1277778" id="Fill-6"></path>
                    <path d="M44.197103,4.25 C42.8159435,4.25 41.9998039,4.72222222 41.2778341,5.25740741 L41.2778341,0 L37.2913057,1.60555556 L37.2913057,16.15 L41.2778341,16.15 L41.2778341,9.50740741 C41.2778341,8.05925926 41.7800739,7.65 42.6276036,7.65 C43.4437433,7.65 43.9459831,8.05925926 43.9459831,9.53888889 L43.9459831,16.15 L47.9325116,16.15 L47.9325116,9.03518519 C47.9325116,5.98148148 46.708302,4.25 44.197103,4.25" id="Fill-7"></path>
                    <path d="M57.5064579,12.6240741 C55.6544486,12.6240741 54.9010889,10.7351852 54.9010889,8.37407407 C54.9010889,5.91851852 55.6858386,4.12407407 57.4750679,4.12407407 C58.8876174,4.12407407 59.4212472,5.03703704 59.954877,6.48518519 L63.8472355,4.94259259 C62.7799759,2.01481481 61.2732564,0.377777778 57.4750679,0.377777778 C53.3315895,0.377777778 50.4123206,3.4 50.4123206,8.37407407 C50.4123206,12.9703704 52.8607397,16.3703704 57.4436779,16.3703704 C61.1163065,16.3703704 62.8427558,14.387037 63.8786254,12.3722222 L60.2687768,10.4518519 C59.4212472,11.9 58.8562274,12.6240741 57.5064579,12.6240741" id="Fill-8"></path>
                    <path d="M70.282183,5.35185185 L70.282183,4.50185185 L66.2956545,4.50185185 L66.2956545,16.1185185 L70.282183,16.1185185 L70.282183,9.79074074 C70.282183,8.37407407 70.8785928,7.90185185 71.8516824,7.90185185 C72.6364321,7.90185185 73.2014519,8.31111111 73.7036917,8.87777778 L74.6453913,4.7537037 C74.1745415,4.47037037 73.6095217,4.25 72.761992,4.25 C71.7261224,4.25 70.9413727,4.69074074 70.282183,5.35185185" id="Fill-9"></path>
                    <path d="M83.152078,11.1444444 C83.152078,12.5925926 82.6498382,13.0018519 81.8336985,13.0018519 C81.0175589,13.0018519 80.515319,12.5925926 80.515319,11.112963 L80.515319,4.50185185 L76.5287906,4.50185185 L76.5287906,11.6166667 C76.5287906,14.6703704 77.7530001,16.3703704 80.2955891,16.3703704 C81.6453586,16.3703704 82.4928883,15.8981481 83.183468,15.362963 L83.183468,16.15 L87.1699965,16.15 L87.1699965,4.53333333 L83.183468,4.53333333 L83.183468,11.1444444" id="Fill-10"></path>
                    <path d="M96.9322827,4.25 C95.5511233,4.25 94.7349836,4.72222222 94.0130139,5.25740741 L94.0130139,4.47037037 L90.0264854,4.47037037 L90.0264854,16.087037 L94.0130139,16.087037 L94.0130139,9.44444444 C94.0130139,7.9962963 94.5152537,7.58703704 95.3627833,7.58703704 C96.178923,7.58703704 96.6811628,7.9962963 96.6811628,9.47592593 L96.6811628,16.087037 L100.667691,16.087037 L100.667691,8.97222222 C100.667691,5.98148148 99.4748718,4.25 96.9322827,4.25" id="Fill-11"></path>
                    <path d="M108.577968,13.1277778 C107.510709,13.1277778 106.945689,12.1833333 106.945689,10.3259259 C106.945689,8.5 107.447929,7.46111111 108.452408,7.46111111 C109.299938,7.46111111 109.676618,7.93333333 110.241638,8.97222222 L112.972567,6.89444444 C111.968087,5.25740741 110.712487,4.25 108.515188,4.25 C104.81117,4.25 102.99055,6.70555556 102.99055,10.262963 C102.99055,14.1666667 105.0309,16.3388889 108.421018,16.3388889 C110.461368,16.3388889 111.716967,15.5518519 113.066737,13.5685185 L110.555537,11.5851852 C109.864958,12.7185185 109.331328,13.1277778 108.577968,13.1277778" id="Fill-12"></path>
                    <path d="M122.264003,4.25 C120.882844,4.25 120.066704,4.72222222 119.344734,5.25740741 L119.344734,0 L115.358206,1.60555556 L115.358206,16.15 L119.344734,16.15 L119.344734,9.50740741 C119.344734,8.05925926 119.846974,7.65 120.694504,7.65 C121.510643,7.65 122.012883,8.05925926 122.012883,9.53888889 L122.012883,16.15 L125.999412,16.15 L125.999412,9.03518519 C126.030802,5.98148148 124.806592,4.25 122.264003,4.25" id="Fill-13"></path>
                </g>
            </g>
        </g>
    </g>
</svg>